<svg width="20" height="20" viewBox="0 0 20 20" fill="none" xmlns="http://www.w3.org/2000/svg">
<path d="M13.4375 6.09375V5.15625C13.4375 5.07031 13.3672 5 13.2812 5H5.78125C5.69531 5 5.625 5.07031 5.625 5.15625V6.09375C5.625 6.17969 5.69531 6.25 5.78125 6.25H13.2812C13.3672 6.25 13.4375 6.17969 13.4375 6.09375ZM5.78125 7.8125C5.69531 7.8125 5.625 7.88281 5.625 7.96875V8.90625C5.625 8.99219 5.69531 9.0625 5.78125 9.0625H9.375C9.46094 9.0625 9.53125 8.99219 9.53125 8.90625V7.96875C9.53125 7.88281 9.46094 7.8125 9.375 7.8125H5.78125ZM13.125 10.0781C10.7949 10.0781 8.90625 11.9668 8.90625 14.2969C8.90625 16.627 10.7949 18.5156 13.125 18.5156C15.4551 18.5156 17.3438 16.627 17.3438 14.2969C17.3438 11.9668 15.4551 10.0781 13.125 10.0781ZM15.2246 16.3965C14.6641 16.957 13.918 17.2656 13.125 17.2656C12.332 17.2656 11.5859 16.957 11.0254 16.3965C10.4648 15.8359 10.1562 15.0898 10.1562 14.2969C10.1562 13.5039 10.4648 12.7578 11.0254 12.1973C11.5859 11.6367 12.332 11.3281 13.125 11.3281C13.918 11.3281 14.6641 11.6367 15.2246 12.1973C15.7852 12.7578 16.0938 13.5039 16.0938 14.2969C16.0938 15.0898 15.7852 15.8359 15.2246 16.3965ZM14.8633 12.8125H13.998C13.9473 12.8125 13.9004 12.8359 13.8711 12.877L12.6309 14.5918L12.1797 13.9688C12.1652 13.9486 12.1462 13.9323 12.1241 13.921C12.102 13.9098 12.0775 13.9041 12.0527 13.9043H11.1914C11.0645 13.9043 10.9902 14.0488 11.0645 14.1523L12.5059 16.1465C12.5684 16.2324 12.6953 16.2324 12.7578 16.1465L14.9883 13.0605C15.0645 12.957 14.9902 12.8125 14.8633 12.8125ZM8.59375 16.6406H4.0625V2.89062H15V9.60938C15 9.69531 15.0703 9.76562 15.1562 9.76562H16.25C16.3359 9.76562 16.4062 9.69531 16.4062 9.60938V2.10938C16.4062 1.76367 16.127 1.48438 15.7812 1.48438H3.28125C2.93555 1.48438 2.65625 1.76367 2.65625 2.10938V17.4219C2.65625 17.7676 2.93555 18.0469 3.28125 18.0469H8.59375C8.67969 18.0469 8.75 17.9766 8.75 17.8906V16.7969C8.75 16.7109 8.67969 16.6406 8.59375 16.6406Z" fill="#007327"/>
</svg>
