<svg width="24" height="24" viewBox="0 0 24 24" fill="none" xmlns="http://www.w3.org/2000/svg">
<g clip-path="url(#clip0_1795_1715)">
<path d="M3.63601 11.2727H20.3633V0.363647H3.63601V11.2727ZM5.81783 2.54547H18.1815V4.00001H5.81783V2.54547ZM5.81783 5.09092H18.1815V6.54547H5.81783V5.09092ZM5.81783 7.63637H18.1815V9.09092H5.81783V7.63637ZM2.5451 23.6364C3.7451 23.6364 4.72692 22.6546 4.72692 21.4546C4.72692 20.5091 4.10874 19.7091 3.27237 19.3818V17.8182H11.2724V19.3818C10.436 19.6727 9.81783 20.4727 9.81783 21.4546C9.81783 22.6546 10.7996 23.6364 11.9996 23.6364C13.1996 23.6364 14.1815 22.6546 14.1815 21.4546C14.1815 20.5091 13.5633 19.6727 12.7269 19.3818V17.8182H20.7269V19.3818C19.8906 19.6727 19.2724 20.4727 19.2724 21.4182C19.2724 22.6182 20.2542 23.6 21.4542 23.6C22.6542 23.6 23.636 22.6182 23.636 21.4182C23.636 20.4727 23.0178 19.6727 22.1815 19.3818V16.3636H20.7269H12.7269V12H11.2724V16.3636H3.27237H1.81783V19.3818C0.981463 19.6727 0.363281 20.5091 0.363281 21.4546C0.363281 22.6546 1.3451 23.6364 2.5451 23.6364ZM21.4542 20.3636C21.7451 20.3636 21.9996 20.4727 22.1815 20.6546C22.3996 20.8364 22.5451 21.1273 22.5451 21.4546C22.5451 22.0727 22.036 22.5455 21.4542 22.5455C20.836 22.5455 20.3633 22.0727 20.3633 21.4546C20.3633 21.1273 20.5087 20.8364 20.7269 20.6546C20.9087 20.4727 21.1996 20.3636 21.4542 20.3636ZM12.7269 20.6182C12.9451 20.8 13.0906 21.1273 13.0906 21.4546C13.0906 22.0727 12.5815 22.5455 11.9996 22.5455C11.3815 22.5455 10.9087 22.0727 10.9087 21.4546C10.9087 21.1273 11.0542 20.8364 11.2724 20.6182C11.4542 20.4364 11.7087 20.3273 11.9996 20.3273C12.2906 20.3273 12.5451 20.4727 12.7269 20.6182ZM1.81783 20.6182C1.99964 20.4727 2.25419 20.3636 2.5451 20.3636C2.83601 20.3636 3.09055 20.4727 3.27237 20.6546C3.49055 20.8364 3.63601 21.1636 3.63601 21.4909C3.63601 22.1091 3.16328 22.5818 2.5451 22.5818C1.96328 22.5818 1.45419 22.1091 1.45419 21.4909C1.45419 21.1273 1.59964 20.8364 1.81783 20.6182Z" fill="black"/>
</g>
<defs>
<clipPath id="clip0_1795_1715">
<rect width="24" height="24" fill="white"/>
</clipPath>
</defs>
</svg>
