<svg width="24" height="24" viewBox="0 0 24 24" fill="none" xmlns="http://www.w3.org/2000/svg">
<path d="M22 11.0909C22 16.1364 17.7333 20.8545 12 22C6.26667 20.8545 2 16.1364 2 11.0909V5.63636L12 2L22 5.63636V11.0909ZM12 20.1818C16.1667 19.2727 19.7778 15.2182 19.7778 11.2909V6.81818L12 3.98182L4.22222 6.81818V11.2909C4.22222 15.2182 7.83333 19.2727 12 20.1818Z" fill="black"/>
<path d="M16.5545 10.0293C16.5543 9.85213 16.5051 9.67816 16.412 9.5248C16.3188 9.37145 16.1849 9.2441 16.0237 9.15553L12.308 7.13533C12.1467 7.04667 11.9636 7 11.7772 7C11.5909 7 11.4078 7.04667 11.2464 7.13533L7.5308 9.15553C7.36958 9.2441 7.23567 9.37145 7.1425 9.5248C7.04933 9.67816 7.00019 9.85213 7 10.0293V14.0697C7.00019 14.2468 7.04933 14.4208 7.1425 14.5741C7.23567 14.7275 7.36958 14.8548 7.5308 14.9434L11.2464 16.9636C11.4078 17.0523 11.5909 17.0989 11.7772 17.0989C11.9636 17.0989 12.1467 17.0523 12.308 16.9636L16.0237 14.9434C16.1849 14.8548 16.3188 14.7275 16.412 14.5741C16.5051 14.4208 16.5543 14.2468 16.5545 14.0697V10.0293Z" stroke="black" stroke-linecap="round" stroke-linejoin="round"/>
<path d="M7.1582 9.52441L11.7762 12.0497M11.7762 12.0497L16.3942 9.52441M11.7762 12.0497V17.1002" stroke="black" stroke-linecap="round" stroke-linejoin="round"/>
</svg>
