<svg width="24" height="24" viewBox="0 0 24 24" fill="none" xmlns="http://www.w3.org/2000/svg">
<path fill-rule="evenodd" clip-rule="evenodd" d="M12.0001 17.7585L16.4351 20.0547C16.6101 20.1452 16.8041 20.1931 17.0011 20.1944C17.1981 20.1957 17.3927 20.1504 17.5689 20.0622L21.3089 18.1922C21.5165 18.0885 21.6911 17.929 21.8132 17.7316C21.9353 17.5343 22 17.3068 22.0001 17.0747V13.6197C22 13.3876 21.9353 13.1602 21.8132 12.9628C21.6911 12.7654 21.5165 12.606 21.3089 12.5022L17.0001 10.3472L12.6751 12.5872C12.4717 12.6926 12.3011 12.8519 12.1821 13.0476C12.0631 13.2434 12.0001 13.4681 12.0001 13.6972V17.7585Z" stroke="#6A6A6A" stroke-width="1.36148" stroke-linecap="round" stroke-linejoin="round"/>
<path fill-rule="evenodd" clip-rule="evenodd" d="M2.675 18.1072L6.435 20.0547C6.61001 20.1452 6.80394 20.1931 7.00098 20.1944C7.19801 20.1957 7.39255 20.1504 7.56875 20.0622L12 17.8472V13.6197C11.9999 13.3876 11.9351 13.1602 11.8131 12.9628C11.691 12.7654 11.5163 12.6059 11.3087 12.5022L7 10.3472L2.675 12.5872C2.47157 12.6926 2.30101 12.8519 2.18197 13.0476C2.06293 13.2434 1.99998 13.4681 2 13.6972V16.9972C1.99998 17.2263 2.06293 17.451 2.18197 17.6468C2.30101 17.8425 2.47157 18.0018 2.675 18.1072ZM7 10.2585L11.435 12.5547C11.61 12.6452 11.8039 12.6931 12.001 12.6944C12.198 12.6957 12.3926 12.6504 12.5687 12.5622L17 10.3472V6.11971C16.9999 5.88763 16.9351 5.66017 16.8131 5.4628C16.691 5.26543 16.5163 5.10595 16.3087 5.00221L12.5687 3.13221C12.3926 3.04402 12.198 2.99872 12.001 3.00003C11.8039 3.00133 11.61 3.04919 11.435 3.13971L7.675 5.08721C7.47157 5.1926 7.30101 5.35188 7.18197 5.54763C7.06293 5.74339 6.99998 5.9681 7 6.19721V10.2585Z" stroke="#6A6A6A" stroke-width="1.36148" stroke-linecap="round" stroke-linejoin="round"/>
<path d="M7.43262 5.56346L11.4414 7.56721C11.6149 7.65391 11.8062 7.69904 12.0001 7.69904C12.1941 7.69904 12.3854 7.65391 12.5589 7.56721L16.5251 5.58471M9.87387 4.28346L14.5001 6.59721M14.8739 11.7835L19.5001 14.0972M4.87387 11.7835L9.50012 14.0972M12.4326 13.0635L16.4414 15.0672C16.6149 15.1539 16.8062 15.199 17.0001 15.199C17.1941 15.199 17.3854 15.1539 17.5589 15.0672L21.5239 13.0847M2.43262 13.0635L6.44137 15.0672C6.61487 15.1539 6.80616 15.199 7.00012 15.199C7.19407 15.199 7.38537 15.1539 7.55887 15.0672L11.5239 13.0847M12.0001 7.84721V12.8472M17.0001 15.3472V19.7222M7.00012 15.3472V19.7222" stroke="#6A6A6A" stroke-width="1.36148" stroke-linecap="round" stroke-linejoin="round"/>
</svg>
