<svg width="30" height="30" viewBox="0 0 30 30" fill="none" xmlns="http://www.w3.org/2000/svg">
<path d="M26.9994 20.1428V4.71423H2.99944V20.1428H26.9994ZM4.71373 6.42852H25.2852V18.4285H4.71373V6.42852ZM26.9994 25.2857L28.7137 21.8571H18.428V22.7142H11.5709V21.8571H1.28516L2.99944 25.2857H26.9994ZM4.71373 22.7142C5.1423 22.7142 5.57087 23.1428 5.57087 23.5714C5.57087 24.0857 5.1423 24.4285 4.71373 24.4285C4.28516 24.4285 3.85658 24.0857 3.85658 23.5714C3.85658 23.1428 4.28516 22.7142 4.71373 22.7142Z" fill="black"/>
<path d="M23.5711 8.14282H14.1426V9.85711H23.5711V8.14282Z" fill="black"/>
<path d="M23.5711 11.5714H14.1426V13.2857H23.5711V11.5714Z" fill="black"/>
<path d="M23.5706 15H6.42773V16.7143H23.5706V15Z" fill="black"/>
<path d="M12.4277 8.14282H6.42773V13.2857H12.4277V8.14282Z" fill="black"/>
</svg>
