<svg width="24" height="24" viewBox="0 0 24 24" fill="none" xmlns="http://www.w3.org/2000/svg">
<path d="M19.8571 16.3787V13.4225C19.8571 13.0438 19.7066 12.6806 19.4387 12.4128C19.1708 12.1451 18.8074 11.9947 18.4286 11.9947H12.7143V9.13904H14.1429C14.5216 9.13866 14.8848 8.98811 15.1526 8.72042C15.4204 8.45274 15.571 8.08979 15.5714 7.71123V3.42781C15.571 3.04925 15.4204 2.6863 15.1526 2.41861C14.8848 2.15093 14.5216 2.00038 14.1429 2H9.85714C9.47838 2.00038 9.11524 2.15093 8.84741 2.41861C8.57958 2.6863 8.42895 3.04925 8.42857 3.42781V7.71123C8.42895 8.08979 8.57958 8.45274 8.84741 8.72042C9.11524 8.98811 9.47838 9.13866 9.85714 9.13904H11.2857V11.9947H5.57143C5.19255 11.9947 4.82919 12.1451 4.56128 12.4128C4.29337 12.6806 4.14286 13.0438 4.14286 13.4225V16.3794C3.46954 16.5532 2.88273 16.9664 2.49243 17.5417C2.10214 18.1169 1.93515 18.8147 2.02278 19.5042C2.1104 20.1937 2.44662 20.8276 2.96841 21.2871C3.4902 21.7465 4.16174 22 4.85715 22C5.55256 22 6.22409 21.7465 6.74588 21.2871C7.26767 20.8276 7.60389 20.1937 7.69152 19.5042C7.77914 18.8147 7.61216 18.1169 7.22186 17.5417C6.83157 16.9664 6.24476 16.5532 5.57143 16.3794V13.4225H11.2857V16.3794C10.6124 16.5532 10.0256 16.9664 9.63529 17.5417C9.24499 18.1169 9.07801 18.8147 9.16563 19.5042C9.25326 20.1937 9.58947 20.8276 10.1113 21.2871C10.6331 21.7465 11.3046 22 12 22C12.6954 22 13.3669 21.7465 13.8887 21.2871C14.4105 20.8276 14.7467 20.1937 14.8344 19.5042C14.922 18.8147 14.755 18.1169 14.3647 17.5417C13.9744 16.9664 13.3876 16.5532 12.7143 16.3794V13.4225H18.4286V16.3787C17.7552 16.5525 17.1684 16.9657 16.7781 17.541C16.3878 18.1162 16.2209 18.814 16.3085 19.5035C16.3961 20.193 16.7323 20.8269 17.2541 21.2863C17.7759 21.7458 18.4474 21.9993 19.1429 21.9993C19.8383 21.9993 20.5098 21.7458 21.0316 21.2863C21.5534 20.8269 21.8896 20.193 21.9772 19.5035C22.0648 18.814 21.8979 18.1162 21.5076 17.541C21.1173 16.9657 20.5305 16.5525 19.8571 16.3787ZM9.85714 3.42781H14.1429L14.1436 7.71123H9.85714V3.42781ZM6.28572 19.1337C6.28572 19.4161 6.20193 19.6921 6.04496 19.9269C5.88799 20.1617 5.66488 20.3447 5.40384 20.4528C5.1428 20.5609 4.85556 20.5892 4.57845 20.5341C4.30133 20.479 4.04679 20.343 3.847 20.1433C3.64721 19.9436 3.51115 19.6892 3.45603 19.4122C3.40091 19.1353 3.4292 18.8482 3.53732 18.5873C3.64545 18.3264 3.82855 18.1034 4.06348 17.9465C4.2984 17.7896 4.5746 17.7059 4.85715 17.7059C5.23591 17.7063 5.59905 17.8568 5.86688 18.1245C6.13471 18.3922 6.28534 18.7551 6.28572 19.1337ZM13.4286 19.1337C13.4286 19.4161 13.3448 19.6921 13.1878 19.9269C13.0308 20.1617 12.8077 20.3447 12.5467 20.4528C12.2857 20.5609 11.9984 20.5892 11.7213 20.5341C11.4442 20.479 11.1896 20.343 10.9898 20.1433C10.7901 19.9436 10.654 19.6892 10.5989 19.4122C10.5438 19.1353 10.572 18.8482 10.6802 18.5873C10.7883 18.3264 10.9714 18.1034 11.2063 17.9465C11.4413 17.7896 11.7175 17.7059 12 17.7059C12.3787 17.7064 12.7417 17.8571 13.0095 18.1247C13.2773 18.3923 13.428 18.7552 13.4286 19.1337ZM19.1429 20.5615C18.8603 20.5615 18.5841 20.4778 18.3492 20.3209C18.1143 20.164 17.9312 19.941 17.823 19.6801C17.7149 19.4192 17.6866 19.1321 17.7417 18.8551C17.7969 18.5782 17.9329 18.3238 18.1327 18.1241C18.3325 17.9244 18.587 17.7884 18.8642 17.7333C19.1413 17.6782 19.4285 17.7065 19.6895 17.8146C19.9506 17.9226 20.1737 18.1056 20.3307 18.3404C20.4876 18.5752 20.5714 18.8513 20.5714 19.1337C20.571 19.5123 20.4204 19.8752 20.1526 20.1429C19.8848 20.4106 19.5216 20.5611 19.1429 20.5615Z" fill="black"/>
</svg>
