<svg width="45" height="45" viewBox="0 0 45 45" fill="none" xmlns="http://www.w3.org/2000/svg">
<path d="M22.285 21.0469C24.1122 21.0494 25.8991 20.5098 27.4196 19.4964C28.94 18.4831 30.1257 17.0415 30.8267 15.3541C31.5276 13.6666 31.7123 11.8092 31.3573 10.0168C31.0024 8.22442 30.1237 6.57758 28.8325 5.28468C27.5414 3.99178 25.8957 3.11092 24.1038 2.75354C22.3119 2.39617 20.4542 2.57835 18.7658 3.27702C17.0775 3.9757 15.6343 5.15948 14.6189 6.67858C13.6035 8.19769 13.0615 9.98384 13.0615 11.8111C13.0615 14.2584 14.0329 16.6057 15.7622 18.3374C17.4916 20.0692 19.8376 21.0437 22.285 21.0469ZM22.285 5.03889C23.623 5.03644 24.9317 5.43113 26.0452 6.17296C27.1587 6.91479 28.0271 7.9704 28.5402 9.20609C29.0534 10.4418 29.1883 11.802 28.9279 13.1144C28.6674 14.4268 28.0234 15.6324 27.0773 16.5786C26.1311 17.5247 24.9255 18.1687 23.6131 18.4292C22.3007 18.6896 20.9405 18.5547 19.7048 18.0415C18.4691 17.5284 17.4135 16.66 16.6717 15.5465C15.9298 14.4329 15.5352 13.1243 15.5376 11.7863C15.5409 9.99778 16.2528 8.28345 17.5175 7.01877C18.7822 5.7541 20.4965 5.04216 22.285 5.03889Z" fill="#006836"/>
<path d="M7.42834 39.4816V31.9047C9.33974 29.8986 11.6477 28.3123 14.2054 27.2466C16.7632 26.1809 19.5147 25.6591 22.285 25.7144C26.0767 25.6633 29.8087 26.6617 33.0685 28.5991L34.7398 26.7296C31.013 24.3823 26.6893 23.1573 22.285 23.2012C19.0626 23.1191 15.8618 23.7489 12.9107 25.0457C9.95962 26.3426 7.331 28.2745 5.21222 30.7038C5.04706 30.9165 4.95579 31.1773 4.95222 31.4466V39.4816C4.93557 40.156 5.18677 40.8095 5.65084 41.2991C6.1149 41.7887 6.75404 42.0745 7.42834 42.0939H22.7678L20.4155 39.6178L7.42834 39.4816Z" fill="#006836"/>
<path d="M37.1417 39.4816V39.6178H33.2418L31.0133 42.0939H37.1417C37.8073 42.0745 38.4389 41.7956 38.9016 41.3167C39.3642 40.8378 39.6213 40.197 39.6178 39.5311V32.4371L37.1417 35.1979V39.4816Z" fill="#006836"/>
<path d="M43.0348 23.0526C42.79 22.8347 42.4688 22.7227 42.1415 22.7413C41.8143 22.7598 41.5078 22.9074 41.2892 23.1516L26.903 39.2464L20.4651 32.3256C20.3594 32.2021 20.2304 32.1005 20.0855 32.0268C19.9406 31.9531 19.7825 31.9086 19.6204 31.896C19.4583 31.8833 19.2953 31.9027 19.1407 31.9531C18.9861 32.0034 18.843 32.0838 18.7194 32.1894C18.5984 32.2996 18.5004 32.4326 18.4311 32.5808C18.3617 32.729 18.3225 32.8895 18.3156 33.053C18.3087 33.2164 18.3342 33.3797 18.3908 33.5332C18.4474 33.6867 18.5338 33.8276 18.6451 33.9475L26.9277 42.8615L43.1339 24.7611C43.3405 24.5183 43.4455 24.2052 43.4271 23.887C43.4086 23.5687 43.2681 23.2698 43.0348 23.0526Z" fill="#006836"/>
</svg>
