<svg width="20" height="20" viewBox="0 0 20 20" fill="none" xmlns="http://www.w3.org/2000/svg">
<path d="M8.71261 8.71429C10.8429 8.71429 12.5698 6.98738 12.5698 4.85714C12.5698 2.7269 10.8429 1 8.71261 1C6.58237 1 4.85547 2.7269 4.85547 4.85714C4.85547 6.98738 6.58237 8.71429 8.71261 8.71429Z" fill="#8A0303"/>
<path d="M5.25877 14.647C5.27198 14.3297 5.38916 14.0232 5.5955 13.766C5.80184 13.5088 6.08808 13.3126 6.41803 13.2022C6.74797 13.0917 7.10682 13.072 7.4492 13.1455C7.79159 13.2189 8.10213 13.3823 8.34159 13.615L10.7951 15.9943L15.1429 11.6198C13.3469 10.5402 11.2306 9.97655 9.07257 10.003C7.57557 9.96882 6.08846 10.2309 4.71578 10.7707C3.3431 11.3105 2.11819 12.115 1.12716 13.1276C1.04332 13.2284 0.998643 13.3513 1.00003 13.4774V16.5676C0.999883 16.8659 1.12857 17.1524 1.35879 17.3665C1.58901 17.5806 1.90265 17.7053 2.23316 17.7143H7.68053L5.72914 15.8223C5.56791 15.6645 5.44325 15.4793 5.36248 15.2774C5.2817 15.0756 5.24645 14.8612 5.25877 14.647Z" fill="#8A0303"/>
<path d="M15.4545 17.7143C15.7151 17.7039 15.9624 17.5582 16.144 17.3081C16.3255 17.0581 16.427 16.7234 16.4269 16.375V13.8572L13.8555 17.7143H15.4545Z" fill="#8A0303"/>
<path d="M18.8031 8.87761C18.7408 8.8215 18.6679 8.77827 18.5888 8.75042C18.5096 8.72257 18.4257 8.71065 18.3419 8.71536C18.258 8.72006 18.176 8.7413 18.1005 8.77784C18.0249 8.81438 17.9574 8.8655 17.9019 8.92822L10.5273 17.1527L7.22711 13.6162C7.17294 13.553 7.10682 13.5012 7.03253 13.4635C6.95824 13.4258 6.87724 13.4031 6.79414 13.3966C6.71105 13.3902 6.62749 13.4001 6.54824 13.4258C6.46899 13.4515 6.3956 13.4926 6.33226 13.5466C6.27277 13.6054 6.22556 13.6754 6.19334 13.7525C6.16112 13.8296 6.14453 13.9123 6.14453 13.9958C6.14453 14.0793 6.16112 14.162 6.19334 14.2391C6.22556 14.3162 6.27277 14.3861 6.33226 14.445L10.5717 19.0001L18.8475 9.75067C18.9542 9.62741 19.0091 9.46788 19.0009 9.30526C18.9926 9.14265 18.9217 8.98948 18.8031 8.87761Z" fill="#8A0303"/>
</svg>
