<svg width="24" height="24" viewBox="0 0 24 24" fill="none" xmlns="http://www.w3.org/2000/svg">
<path fill-rule="evenodd" clip-rule="evenodd" d="M3.75 1.5C2.51625 1.5 1.5 2.51624 1.5 3.75V20.25C1.5 21.4838 2.51625 22.5 3.75 22.5H15.75C16.7331 22.5 17.5757 21.8542 17.8784 20.9678C17.6719 20.9894 17.4621 21 17.25 21C13.9452 21 11.25 18.3048 11.25 15C11.25 11.6952 13.9452 9 17.25 9C17.5037 9 17.7541 9.01756 18 9.04839V3.75C18 2.51624 16.9838 1.5 15.75 1.5H3.75ZM6 4.5H13.5C13.9142 4.5 14.25 4.83579 14.25 5.25C14.25 5.66421 13.9142 6 13.5 6H6C5.58579 6 5.25 5.66421 5.25 5.25C5.25 4.83579 5.58579 4.5 6 4.5ZM6 6.75H13.5C13.9142 6.75 14.25 7.08579 14.25 7.5C14.25 7.91421 13.9142 8.25 13.5 8.25H6C5.58579 8.25 5.25 7.91421 5.25 7.5C5.25 7.08579 5.58579 6.75 6 6.75ZM6 9H10.5C10.9142 9 11.25 9.33579 11.25 9.75C11.25 10.1642 10.9142 10.5 10.5 10.5H6C5.58579 10.5 5.25 10.1642 5.25 9.75C5.25 9.33579 5.58579 9 6 9ZM7.125 12C7.53921 12 7.875 12.3358 7.875 12.75V12.7646C8.25191 12.9365 8.56299 13.2312 8.7583 13.5908C8.95661 13.9552 8.8214 14.4114 8.45654 14.6089C8.09248 14.8062 7.6374 14.6711 7.43994 14.3071C7.36489 14.169 7.25157 14.1006 7.125 14.1006C6.93605 14.1006 6.75 14.2675 6.75 14.5503C6.75 14.833 6.93604 15 7.125 15C8.17868 15 9 15.907 9 16.9497C9 17.7264 8.54305 18.4266 7.875 18.7339V18.75C7.875 19.1642 7.53921 19.5 7.125 19.5C6.71079 19.5 6.375 19.1642 6.375 18.75V18.7354C6.00077 18.5643 5.69148 18.2715 5.49609 17.9151C5.29687 17.5522 5.42931 17.0965 5.79199 16.897C6.15558 16.697 6.61246 16.8302 6.81152 17.1944C6.88672 17.3316 6.99893 17.3994 7.125 17.3994C7.31399 17.3994 7.5 17.2325 7.5 16.9497C7.5 16.6669 7.31398 16.5 7.125 16.5C6.07134 16.5 5.25 15.593 5.25 14.5503C5.25 13.7733 5.70665 13.0718 6.375 12.7646V12.75C6.375 12.3358 6.71079 12 7.125 12Z" fill="black"/>
<path d="M7.125 12C7.53921 12 7.875 12.3358 7.875 12.75V12.7646C8.25191 12.9365 8.56299 13.2312 8.7583 13.5908C8.95661 13.9552 8.8214 14.4114 8.45654 14.6089C8.09248 14.8062 7.6374 14.6711 7.43994 14.3071C7.36489 14.169 7.25157 14.1006 7.125 14.1006C6.93605 14.1006 6.75 14.2675 6.75 14.5503C6.75 14.833 6.93604 15 7.125 15C8.17868 15 9 15.907 9 16.9497C9 17.7264 8.54305 18.4266 7.875 18.7339V18.75C7.875 19.1642 7.53921 19.5 7.125 19.5C6.71079 19.5 6.375 19.1642 6.375 18.75V18.7354C6.00077 18.5643 5.69148 18.2715 5.49609 17.9151C5.29687 17.5522 5.42931 17.0965 5.79199 16.897C6.15558 16.697 6.61246 16.8302 6.81152 17.1944C6.88672 17.3316 6.99893 17.3994 7.125 17.3994C7.31399 17.3994 7.5 17.2325 7.5 16.9497C7.5 16.6669 7.31398 16.5 7.125 16.5C6.07134 16.5 5.25 15.593 5.25 14.5503C5.25 13.7733 5.70665 13.0718 6.375 12.7646V12.75C6.375 12.3358 6.71079 12 7.125 12Z" fill="black"/>
<path fill-rule="evenodd" clip-rule="evenodd" d="M17.25 10.5C14.7736 10.5 12.75 12.5236 12.75 15C12.75 17.4764 14.7736 19.5 17.25 19.5C19.7264 19.5 21.75 17.4764 21.75 15C21.75 14.8011 21.671 14.6103 21.5303 14.4697C21.3897 14.329 21.1989 14.25 21 14.25C20.8011 14.25 20.6103 14.329 20.4697 14.4697C20.329 14.6103 20.25 14.8011 20.25 15C20.25 16.6657 18.9157 18 17.25 18C15.5843 18 14.25 16.6657 14.25 15C14.25 13.3343 15.5843 12 17.25 12C17.68 12 18.085 12.0894 18.4526 12.2505C18.6347 12.3302 18.8409 12.3343 19.026 12.2621C19.2111 12.1899 19.36 12.0471 19.4399 11.8652C19.4796 11.775 19.5011 11.6779 19.5032 11.5793C19.5053 11.4808 19.488 11.3828 19.4522 11.291C19.4165 11.1992 19.3629 11.1153 19.2947 11.0442C19.2265 10.973 19.1449 10.9161 19.0547 10.8765C18.5018 10.6342 17.8893 10.5 17.25 10.5Z" fill="black"/>
<path fill-rule="evenodd" clip-rule="evenodd" d="M21.7499 10.5C21.551 10.5 21.3602 10.5791 21.2196 10.7197L17.2499 14.6895L16.2802 13.7197C16.1395 13.5791 15.9488 13.5001 15.7499 13.5001C15.551 13.5001 15.3603 13.5791 15.2196 13.7197C15.079 13.8604 15 14.0511 15 14.25C15 14.4489 15.079 14.6396 15.2196 14.7803L16.7196 16.2803C16.8603 16.4209 17.051 16.4999 17.2499 16.4999C17.4488 16.4999 17.6395 16.4209 17.7802 16.2803L22.2802 11.7803C22.4208 11.6396 22.4998 11.4489 22.4998 11.25C22.4998 11.0511 22.4208 10.8604 22.2802 10.7197C22.1395 10.5791 21.9488 10.5 21.7499 10.5Z" fill="black"/>
</svg>
