<svg width="24" height="24" viewBox="0 0 24 24" fill="none" xmlns="http://www.w3.org/2000/svg">
<path d="M8.4 1.5V4.509H4.5V22.5H19.5V4.509H15.6V1.5H8.4ZM14.4 2.7V6.6H9.6V2.7H14.4ZM18.3 5.709V21.3H5.7V5.709H8.4V6.6H7.5V7.8H16.5V6.6H15.6V5.709H18.3Z" fill="black"/>
<path d="M6.89844 14.3992H8.99844V15.5992H6.89844V14.3992ZM10.9859 14.3992H13.0859V15.5992H10.9859V14.3992ZM15.0734 14.3992H17.1734V15.5992H15.0734V14.3992ZM6.89844 16.7992H8.99844V17.9992H6.89844V16.7992ZM10.9859 16.7992H13.0859V17.9992H10.9859V16.7992ZM15.0734 16.7992H17.1734V17.9992H15.0734V16.7992ZM6.89844 19.1992H8.99844V20.3992H6.89844V19.1992ZM10.9859 19.1992H13.0859V20.3992H10.9859V19.1992ZM15.0734 19.1992H17.1734V20.3992H15.0734V19.1992ZM6.89844 13.1992H17.0984V8.69922H6.89844V13.1992ZM8.09844 9.89922H15.8984V11.9992H8.09844V9.89922Z" fill="black"/>
</svg>
