<svg width="24" height="24" viewBox="0 0 24 24" fill="none" xmlns="http://www.w3.org/2000/svg">
<path d="M12 4V2H22V4H12ZM12 8V6H22V8H12ZM12 12V10H22V12H12ZM18.95 22C16.8667 22 14.8083 21.546 12.775 20.638C10.7417 19.73 8.89167 18.4423 7.225 16.775C5.55833 15.1083 4.271 13.2583 3.363 11.225C2.455 9.19167 2.00067 7.13333 2 5.05C2 4.75 2.1 4.5 2.3 4.3C2.5 4.1 2.75 4 3.05 4H7.1C7.33333 4 7.54167 4.07933 7.725 4.238C7.90833 4.39667 8.01667 4.584 8.05 4.8L8.7 8.3C8.73333 8.56667 8.725 8.79167 8.675 8.975C8.625 9.15833 8.53333 9.31667 8.4 9.45L5.975 11.9C6.30833 12.5167 6.704 13.1127 7.162 13.688C7.62 14.2633 8.12433 14.8173 8.675 15.35C9.19167 15.8667 9.73333 16.346 10.3 16.788C10.8667 17.23 11.4667 17.634 12.1 18L14.45 15.65C14.6 15.5 14.796 15.3877 15.038 15.313C15.28 15.2383 15.5173 15.2173 15.75 15.25L19.2 15.95C19.4333 16.0167 19.625 16.1377 19.775 16.313C19.925 16.4883 20 16.684 20 16.9V20.95C20 21.25 19.9 21.5 19.7 21.7C19.5 21.9 19.25 22 18.95 22Z" fill="black"/>
</svg>
