<svg width="20" height="20" viewBox="0 0 20 20" fill="none" xmlns="http://www.w3.org/2000/svg">
<path fill-rule="evenodd" clip-rule="evenodd" d="M10 19C5.0293 19 1 14.9707 1 10C1 5.0293 5.0293 1 10 1C14.9707 1 19 5.0293 19 10C19 14.9707 14.9707 19 10 19ZM10 17.2C11.9096 17.2 13.7409 16.4414 15.0912 15.0912C16.4414 13.7409 17.2 11.9096 17.2 10C17.2 8.09044 16.4414 6.25909 15.0912 4.90883C13.7409 3.55857 11.9096 2.8 10 2.8C8.09044 2.8 6.25909 3.55857 4.90883 4.90883C3.55857 6.25909 2.8 8.09044 2.8 10C2.8 11.9096 3.55857 13.7409 4.90883 15.0912C6.25909 16.4414 8.09044 17.2 10 17.2ZM9.1 13.6H10.9V15.4H9.1V13.6ZM9.1 11.8072C9.1 11.8072 10.9 11.8 10.9 11.8072C10.9 10.9054 13.6 10 13.6 8.2C13.6 6.211 12.0043 4.6 10.0081 4.6C9.53466 4.59893 9.06566 4.69127 8.62795 4.87171C8.19024 5.05215 7.79243 5.31715 7.45728 5.65155C7.12213 5.98594 6.85623 6.38317 6.67481 6.82047C6.49338 7.25777 6.4 7.72656 6.4 8.2H8.2C8.2 7.21 9.01 6.4 10 6.4C10.99 6.4 11.8 7.21 11.8 8.2C11.8 9.01 9.1 10.3303 9.1 11.8072Z" fill="#B8682F"/>
</svg>
