<svg width="16" height="16" viewBox="0 0 16 16" fill="none" xmlns="http://www.w3.org/2000/svg">
<path d="M9.06607 1H6.81809C5.79974 1 4.99269 1 4.36171 1.08429C3.71167 1.17085 3.18576 1.3531 2.77126 1.76371C2.35619 2.17433 2.17203 2.69543 2.08486 3.33897C2 3.96429 2 4.76331 2 5.77191V9.0967C2 9.95552 2.53111 10.6913 3.28563 11C3.24695 10.4817 3.24695 9.75562 3.24695 9.15081V6.29757C3.24695 5.56803 3.24695 4.93872 3.31507 4.43528C3.38839 3.89538 3.5535 3.37827 3.97723 2.95854C4.40096 2.53881 4.92341 2.37536 5.46838 2.30247C5.9764 2.23526 6.61142 2.23526 7.34862 2.23526H9.12091C9.85754 2.23526 10.4914 2.23526 11 2.30247C10.8476 1.91883 10.5816 1.58938 10.2366 1.35706C9.89165 1.12473 9.48375 1.00031 9.06607 1Z" fill="#876408"/>
<path d="M4.3999 7.2647C4.3999 5.44736 4.3999 4.5387 4.96257 3.97403C5.52457 3.40936 6.42924 3.40936 8.2399 3.40936H10.1599C11.9699 3.40936 12.8752 3.40936 13.4379 3.97403C13.9999 4.5387 13.9999 5.44736 13.9999 7.2647V10.478C13.9999 12.2954 13.9999 13.204 13.4379 13.7687C12.8752 14.3334 11.9699 14.3334 10.1599 14.3334H8.2399C6.4299 14.3334 5.52457 14.3334 4.96257 13.7687C4.3999 13.204 4.3999 12.2954 4.3999 10.478V7.2647Z" fill="#876408"/>
</svg>
