<svg width="16" height="16" viewBox="0 0 16 16" fill="none" xmlns="http://www.w3.org/2000/svg">
<path d="M3 11.75C3 12.4375 3.44875 13 4 13C4.12065 12.9973 4.2395 12.9701 4.3493 12.92C4.45911 12.8699 4.55759 12.7981 4.63875 12.7087C4.73087 12.6149 4.85624 12.5612 4.98771 12.5591C5.11919 12.5571 5.24618 12.6069 5.34118 12.6978C5.43619 12.7887 5.49157 12.9133 5.49533 13.0448C5.49908 13.1762 5.45091 13.3038 5.36125 13.4C5.18715 13.5874 4.97661 13.7373 4.74254 13.8405C4.50847 13.9436 4.25579 13.9979 4 14C2.89688 14 2 12.9906 2 11.75C2 10.5094 2.89688 9.5 4 9.5C4.25579 9.50207 4.50847 9.55636 4.74254 9.65953C4.97661 9.7627 5.18715 9.91259 5.36125 10.1C5.45091 10.1962 5.49908 10.3238 5.49533 10.4552C5.49157 10.5867 5.43619 10.7113 5.34118 10.8022C5.24618 10.8931 5.11919 10.9429 4.98771 10.9409C4.85624 10.9388 4.73087 10.8851 4.63875 10.7912C4.55759 10.7019 4.45911 10.6301 4.3493 10.58C4.2395 10.5299 4.12065 10.5027 4 10.5C3.44875 10.5 3 11.0625 3 11.75ZM7.975 11.2069C7.725 11.1344 7.46625 11.06 7.32188 10.9669C7.24375 10.9162 7.245 10.9044 7.25187 10.8481C7.25297 10.8027 7.26488 10.7582 7.28662 10.7183C7.30836 10.6784 7.3393 10.6443 7.37687 10.6187C7.66437 10.4237 8.33563 10.5106 8.61563 10.5837C8.74392 10.6181 8.88063 10.6002 8.99567 10.5338C9.11071 10.4674 9.19467 10.358 9.22906 10.2297C9.26346 10.1014 9.24548 9.96468 9.17908 9.84964C9.11268 9.7346 9.0033 9.65064 8.875 9.61625C8.7425 9.58187 7.5625 9.29 6.8225 9.78875C6.66601 9.89377 6.53452 10.0319 6.43732 10.1934C6.34011 10.3548 6.27958 10.5357 6.26 10.7231C6.135 11.7156 7.11313 11.9987 7.6975 12.1675C8.45125 12.3856 8.5175 12.475 8.49625 12.6419C8.47688 12.7925 8.4175 12.8506 8.3625 12.8875C8.075 13.0787 7.41437 12.985 7.14062 12.91C7.01266 12.8743 6.87574 12.8909 6.76 12.9561C6.64425 13.0213 6.55916 13.1298 6.52344 13.2578C6.48772 13.3858 6.50429 13.5227 6.56952 13.6384C6.63475 13.7542 6.74328 13.8393 6.87125 13.875C7.18124 13.9562 7.50019 13.9982 7.82062 14C8.18437 14 8.58937 13.9375 8.91375 13.7212C9.07385 13.6149 9.2084 13.4743 9.30771 13.3097C9.40702 13.1452 9.46864 12.9606 9.48812 12.7694C9.625 11.6875 8.59312 11.3856 7.975 11.2069ZM13.1681 9.52937C13.1063 9.50723 13.0407 9.4975 12.9751 9.50072C12.9095 9.50394 12.8451 9.52006 12.7858 9.54815C12.7264 9.57624 12.6731 9.61576 12.629 9.66444C12.5849 9.71312 12.5509 9.77002 12.5288 9.83187L11.75 12.0131L10.9706 9.83187C10.926 9.70697 10.8337 9.6049 10.7138 9.54811C10.594 9.49133 10.4565 9.48447 10.3316 9.52906C10.2067 9.57365 10.1046 9.66603 10.0478 9.78588C9.99101 9.90573 9.98416 10.0432 10.0288 10.1681L11.2788 13.6681C11.3134 13.7653 11.3773 13.8494 11.4616 13.9088C11.5459 13.9682 11.6465 14.0001 11.7497 14.0001C11.8528 14.0001 11.9535 13.9682 12.0378 13.9088C12.1221 13.8494 12.186 13.7653 12.2206 13.6681L13.4706 10.1681C13.5151 10.0433 13.5083 9.90591 13.4516 9.78614C13.3949 9.66637 13.2929 9.57402 13.1681 9.52937ZM13.5 6V7.5C13.5 7.63261 13.4473 7.75978 13.3536 7.85355C13.2598 7.94732 13.1326 8 13 8C12.8674 8 12.7402 7.94732 12.6464 7.85355C12.5527 7.75978 12.5 7.63261 12.5 7.5V6.5H9.5C9.36739 6.5 9.24021 6.44732 9.14645 6.35355C9.05268 6.25978 9 6.13261 9 6V3H3.5V7.5C3.5 7.63261 3.44732 7.75978 3.35355 7.85355C3.25979 7.94732 3.13261 8 3 8C2.86739 8 2.74021 7.94732 2.64645 7.85355C2.55268 7.75978 2.5 7.63261 2.5 7.5V3C2.5 2.73478 2.60536 2.48043 2.79289 2.29289C2.98043 2.10536 3.23478 2 3.5 2H9.5C9.56568 1.99995 9.63073 2.01284 9.69143 2.03793C9.75212 2.06303 9.80728 2.09983 9.85375 2.14625L13.3538 5.64625C13.4002 5.69272 13.437 5.74788 13.4621 5.80858C13.4872 5.86927 13.5001 5.93432 13.5 6ZM11.7931 5.5L10 3.70688V5.5H11.7931Z" fill="#180E8B"/>
</svg>
