<svg width="20" height="20" viewBox="0 0 20 20" fill="none" xmlns="http://www.w3.org/2000/svg">
<path d="M19 17.9114L2.09714 1L1 2.08857L3.46857 4.54857L2.04571 7C1.93429 7.18857 1.98571 7.42 2.14857 7.54857L3.95714 8.94571C3.92286 9.23714 3.89714 9.52 3.89714 9.80286C3.89714 10.0857 3.92286 10.36 3.95714 10.6343L2.14857 12.0571C1.98571 12.1857 1.93429 12.4171 2.04571 12.6057L3.76 15.5714C3.86286 15.76 4.09429 15.8286 4.28286 15.76L6.41714 14.8943C6.86286 15.2371 7.32571 15.5286 7.86571 15.7429L8.18286 18.0143C8.21714 18.22 8.39714 18.3743 8.61143 18.3743H12.04C12.2543 18.3743 12.4343 18.22 12.4686 18.0143L12.7857 15.7429C13.2229 15.5629 13.6086 15.3314 13.9771 15.0657L17.9114 19L19 17.9114ZM10.3257 12.8029C8.67143 12.8029 7.32571 11.4571 7.32571 9.80286C7.32571 9.37429 7.42857 9.01429 7.57429 8.66286L11.4657 12.5543C11.1143 12.7086 10.7543 12.8029 10.3257 12.8029ZM10.1029 6.82857L7.37714 4.10286C7.54 4.01714 7.69429 3.93143 7.86571 3.86286L8.18286 1.59143C8.21714 1.38571 8.39714 1.23143 8.61143 1.23143H12.04C12.2543 1.23143 12.4343 1.38571 12.4686 1.59143L12.7857 3.86286C13.3257 4.07714 13.7886 4.36857 14.2343 4.70286L16.3686 3.84571C16.5571 3.76857 16.7886 3.84571 16.8914 4.03429L18.6057 7C18.7086 7.18857 18.6657 7.42 18.5029 7.54857L16.6943 8.94571C16.7286 9.23714 16.7543 9.52 16.7543 9.80286C16.7543 10.0857 16.7286 10.36 16.6943 10.6343L18.5029 12.0571C18.6657 12.1857 18.7086 12.4171 18.6057 12.6057L17.6114 14.3371L13.3 10.0257C13.3257 9.95714 13.3257 9.88 13.3257 9.80286C13.3257 8.14857 11.98 6.80286 10.3257 6.80286C10.2486 6.80286 10.18 6.80286 10.1029 6.82857Z" fill="#4694DB"/>
</svg>
