<svg width="24" height="24" viewBox="0 0 24 24" fill="none" xmlns="http://www.w3.org/2000/svg">
<path d="M12 2C11.2129 1.99883 10.4508 2.27626 9.84861 2.78316C9.24645 3.29006 8.84312 3.99372 8.71005 4.7695C8.57698 5.54528 8.72277 6.34312 9.12158 7.02171C9.5204 7.70031 10.1465 8.21586 10.889 8.47706V10.8879H7.55605C6.6721 10.8879 5.82434 11.239 5.19929 11.8641C4.57424 12.4892 4.22309 13.3369 4.22309 14.2209V15.5207C3.48152 15.7828 2.85647 16.2986 2.45844 16.977C2.06042 17.6554 1.91503 18.4526 2.04799 19.2278C2.18095 20.003 2.58369 20.7063 3.18502 21.2133C3.78635 21.7202 4.54755 21.9983 5.33408 21.9983C6.12061 21.9983 6.88181 21.7202 7.48314 21.2133C8.08447 20.7063 8.48721 20.003 8.62017 19.2278C8.75313 18.4526 8.60774 17.6554 8.20971 16.977C7.81168 16.2986 7.18664 15.7828 6.44507 15.5207V14.2209C6.44507 13.9262 6.56212 13.6436 6.77047 13.4353C6.97882 13.2269 7.2614 13.1099 7.55605 13.1099H16.4439C16.7386 13.1099 17.0212 13.2269 17.2295 13.4353C17.4379 13.6436 17.5549 13.9262 17.5549 14.2209V15.5207C16.8134 15.7828 16.1883 16.2986 15.7903 16.977C15.3923 17.6554 15.2469 18.4526 15.3798 19.2278C15.5128 20.003 15.9155 20.7063 16.5169 21.2133C17.1182 21.7202 17.8794 21.9983 18.6659 21.9983C19.4524 21.9983 20.2137 21.7202 20.815 21.2133C21.4163 20.7063 21.8191 20.003 21.952 19.2278C22.085 18.4526 21.9396 17.6554 21.5416 16.977C21.1435 16.2986 20.5185 15.7828 19.7769 15.5207V14.2209C19.7769 13.3369 19.4258 12.4892 18.8007 11.8641C18.1757 11.239 17.3279 10.8879 16.4439 10.8879H13.111V8.47706C13.8522 8.2147 14.4768 7.69883 14.8745 7.02059C15.2722 6.34235 15.4175 5.54536 15.2846 4.77042C15.1516 3.99549 14.7491 3.29246 14.1481 2.78552C13.5471 2.27859 12.7863 2.00036 12 2Z" fill="#6A6A6A"/>
</svg>
