<svg width="45" height="45" viewBox="0 0 45 45" fill="none" xmlns="http://www.w3.org/2000/svg">
<path d="M32.0347 2.78562L23.6778 11.1425L25.6486 13.0952L30.6419 8.10338V38.9987H8.35685V16.7137H5.57123V38.9987C5.57197 39.7373 5.86569 40.4454 6.38793 40.9677C6.91018 41.4899 7.61829 41.7836 8.35685 41.7844H30.6419C31.3804 41.7836 32.0885 41.4899 32.6108 40.9677C33.133 40.4454 33.4267 39.7373 33.4275 38.9987V8.0992L38.4221 13.0952L40.3915 11.1425L32.0347 2.78562Z" fill="#0E50B3"/>
<path d="M22.285 33.4275H16.7137C15.9752 33.4268 15.2671 33.133 14.7448 32.6108C14.2226 32.0886 13.9288 31.3804 13.9281 30.6419V25.0706C13.9288 24.3321 14.2226 23.624 14.7448 23.1017C15.2671 22.5795 15.9752 22.2857 16.7137 22.285H22.285C23.0235 22.2857 23.7317 22.5795 24.2539 23.1017C24.7761 23.624 25.0699 24.3321 25.0706 25.0706V30.6419C25.0699 31.3804 24.7761 32.0886 24.2539 32.6108C23.7317 33.133 23.0235 33.4268 22.285 33.4275ZM16.7137 25.0706V30.6419H22.285V25.0706H16.7137Z" fill="#0E50B3"/>
</svg>
