<svg width="26" height="26" viewBox="0 0 26 26" fill="none" xmlns="http://www.w3.org/2000/svg">
<path d="M18.6875 1.625L13.8125 6.5L14.9622 7.63913L17.875 4.72712V22.75H4.875V9.75H3.25V22.75C3.25064 23.1808 3.42206 23.5937 3.72666 23.8983C4.03127 24.2029 4.44422 24.3744 4.875 24.375H17.875C18.3058 24.3744 18.7187 24.2029 19.0233 23.8983C19.3279 23.5937 19.4994 23.1808 19.5 22.75V4.72469L22.4136 7.63913L23.5625 6.5L18.6875 1.625Z" fill="#074A4A"/>
<path d="M13 19.5H9.75C9.31916 19.4996 8.90608 19.3282 8.60143 19.0236C8.29677 18.7189 8.12543 18.3058 8.125 17.875V14.625C8.12543 14.1942 8.29677 13.7811 8.60143 13.4764C8.90608 13.1718 9.31916 13.0004 9.75 13H13C13.4308 13.0004 13.8439 13.1718 14.1486 13.4764C14.4532 13.7811 14.6246 14.1942 14.625 14.625V17.875C14.6246 18.3058 14.4532 18.7189 14.1486 19.0236C13.8439 19.3282 13.4308 19.4996 13 19.5ZM9.75 14.625V17.875H13V14.625H9.75Z" fill="#074A4A"/>
</svg>
