<svg width="26" height="26" viewBox="0 0 26 26" fill="none" xmlns="http://www.w3.org/2000/svg">
<g clip-path="url(#clip0_1112_608)">
<path d="M19.5 3.25H6.5C5.63805 3.25 4.8114 3.59241 4.2019 4.2019C3.59241 4.8114 3.25 5.63805 3.25 6.5V19.5C3.25 20.362 3.59241 21.1886 4.2019 21.7981C4.8114 22.4076 5.63805 22.75 6.5 22.75H19.5C20.362 22.75 21.1886 22.4076 21.7981 21.7981C22.4076 21.1886 22.75 20.362 22.75 19.5V6.5C22.75 5.63805 22.4076 4.8114 21.7981 4.2019C21.1886 3.59241 20.362 3.25 19.5 3.25ZM20.5833 19.5C20.5833 19.7873 20.4692 20.0629 20.266 20.266C20.0629 20.4692 19.7873 20.5833 19.5 20.5833H6.5C6.21268 20.5833 5.93713 20.4692 5.73397 20.266C5.5308 20.0629 5.41667 19.7873 5.41667 19.5V6.5C5.41667 6.21268 5.5308 5.93713 5.73397 5.73397C5.93713 5.5308 6.21268 5.41667 6.5 5.41667H19.5C19.7873 5.41667 20.0629 5.5308 20.266 5.73397C20.4692 5.93713 20.5833 6.21268 20.5833 6.5V19.5Z" fill="black"/>
<path d="M15.9263 9.0892L11.8313 14.5059L10.0654 12.22C9.88873 11.993 9.6291 11.8456 9.34365 11.81C9.05821 11.7744 8.77033 11.8537 8.54335 12.0304C8.31637 12.2071 8.16887 12.4668 8.13332 12.7522C8.09777 13.0377 8.17706 13.3255 8.35376 13.5525L10.9863 16.9217C11.0883 17.0508 11.2184 17.155 11.3667 17.2263C11.515 17.2976 11.6775 17.3342 11.8421 17.3334C12.0075 17.333 12.1707 17.2947 12.319 17.2214C12.4674 17.1482 12.597 17.042 12.6979 16.9109L17.6488 10.4109C17.824 10.181 17.9008 9.89094 17.8622 9.60448C17.8236 9.31802 17.6728 9.05863 17.4429 8.88336C17.2131 8.7081 16.923 8.63132 16.6366 8.66992C16.3501 8.70852 16.0907 8.85934 15.9154 9.0892H15.9263Z" fill="black"/>
</g>
<defs>
<clipPath id="clip0_1112_608">
<rect width="26" height="26" fill="white"/>
</clipPath>
</defs>
</svg>
