<svg width="34" height="34" viewBox="0 0 34 34" fill="none" xmlns="http://www.w3.org/2000/svg">
<path fill-rule="evenodd" clip-rule="evenodd" d="M34 32.875V3.125H27.625V1H25.5V3.125H8.5V1H6.375V3.125H0V32.875H34ZM2.125 9.5V5.25H6.375V7.375H8.5V5.25H25.5V7.375H27.625V5.25H31.875V9.5H2.125ZM12.4094 21.0943C12.3865 20.9109 12.375 20.7246 12.375 20.5355C12.375 19.3421 12.776 18.3286 13.5781 17.495C14.3802 16.6615 15.3542 16.2447 16.5 16.2447H16.6203L16.0016 16.883C15.8755 17.013 15.8125 17.1785 15.8125 17.3794C15.8125 17.5804 15.8755 17.7459 16.0016 17.8759C16.1276 18.0059 16.288 18.0709 16.4828 18.0709C16.6776 18.0709 16.838 18.0059 16.9641 17.8759L18.7516 16.0319C18.8891 15.8901 18.9578 15.7246 18.9578 15.5355C18.9578 15.3463 18.8891 15.1809 18.7516 15.039L16.9641 13.195C16.838 13.065 16.6776 13 16.4828 13C16.288 13 16.1276 13.065 16.0016 13.195C15.8755 13.3251 15.8125 13.4905 15.8125 13.6915C15.8125 13.8924 15.8755 14.0579 16.0016 14.1879L16.6203 14.8262H16.5C14.9646 14.8262 13.6641 15.3818 12.5984 16.4929C11.5328 17.604 11 18.9515 11 20.5355C10.9995 20.8191 11.0195 21.1028 11.0598 21.3865C11.1002 21.6702 11.1662 21.948 11.2578 22.2199C11.3156 22.4213 11.4331 22.5603 11.6105 22.6369C11.7879 22.7135 11.9682 22.7045 12.1516 22.6099C12.3234 22.5277 12.4438 22.3948 12.5125 22.2113C12.5813 22.0279 12.587 21.8357 12.5297 21.6348C12.4724 21.4579 12.4323 21.2778 12.4094 21.0943ZM20.5906 19.9064C20.6135 20.0894 20.625 20.2754 20.625 20.4645C20.625 21.6589 20.224 22.6726 19.4219 23.5057C18.6198 24.3388 17.6458 24.7553 16.5 24.7553H16.3797L16.9984 24.117C17.1245 23.987 17.1875 23.8215 17.1875 23.6206C17.1875 23.4196 17.1245 23.2541 16.9984 23.1241C16.8724 22.9941 16.712 22.9291 16.5172 22.9291C16.3224 22.9291 16.162 22.9941 16.0359 23.1241L14.2484 24.9681C14.1109 25.1099 14.0422 25.2754 14.0422 25.4645C14.0422 25.6537 14.1109 25.8191 14.2484 25.961L16.0359 27.805C16.162 27.935 16.3224 28 16.5172 28C16.712 28 16.8724 27.935 16.9984 27.805C17.1245 27.6749 17.1875 27.5095 17.1875 27.3085C17.1875 27.1076 17.1245 26.9421 16.9984 26.8121L16.3797 26.1738H16.5C18.0354 26.1738 19.3359 25.6182 20.4016 24.5071C21.4672 23.396 22 22.0485 22 20.4645C22.0005 20.1809 21.9805 19.8972 21.9402 19.6135C21.8998 19.3298 21.8338 19.052 21.7422 18.7801C21.6844 18.5797 21.5669 18.4409 21.3895 18.3638C21.2121 18.2868 21.0318 18.2955 20.8484 18.3901C20.6766 18.4733 20.5562 18.6064 20.4875 18.7894C20.4187 18.9723 20.413 19.1643 20.4703 19.3652C20.5276 19.543 20.5677 19.7234 20.5906 19.9064Z" fill="black"/>
</svg>
