<svg width="24" height="24" viewBox="0 0 24 24" fill="none" xmlns="http://www.w3.org/2000/svg">
<path d="M12 2.15625C9.88716 2.15625 8.15625 3.88716 8.15625 6C8.15625 7.20994 8.72452 8.29387 9.60647 9H6L1.5 22.5H22.5L18 9H14.3935C15.2755 8.29387 15.8438 7.20994 15.8438 6C15.8438 3.88716 14.1128 2.15625 12 2.15625ZM12 3.84375C13.2008 3.84375 14.1562 4.79916 14.1562 6C14.1562 7.20084 13.2008 8.15625 12 8.15625C10.7992 8.15625 9.84375 7.20084 9.84375 6C9.84375 4.79916 10.7992 3.84375 12 3.84375ZM8.14617 13.357H9.24773V14.9162L10.8355 13.357H12.1144L10.0574 15.3796L12.3262 17.6284H10.9472L9.24773 15.9462V17.6284H8.14617V13.357ZM13.7681 14.3527C13.9912 14.3526 14.1877 14.3965 14.3574 14.4842C14.5272 14.5719 14.6826 14.7102 14.8238 14.899V14.4242H15.8538V17.3052C15.8538 17.8202 15.6907 18.2131 15.3645 18.4839C15.0403 18.7567 14.5691 18.893 13.9511 18.893C13.7509 18.893 13.5573 18.8778 13.3703 18.8473C13.179 18.8157 12.9905 18.7688 12.8067 18.7071V17.9088C12.9861 18.0119 13.1616 18.0882 13.3331 18.1378C13.5049 18.1893 13.6775 18.215 13.8511 18.215C14.1868 18.215 14.4328 18.1416 14.5892 17.9947C14.7456 17.8479 14.8238 17.6181 14.8238 17.3053V17.085C14.6827 17.2718 14.5272 17.4091 14.3574 17.4969C14.1877 17.5846 13.9912 17.6285 13.7681 17.6285C13.377 17.6285 13.0538 17.475 12.7982 17.1679C12.5426 16.8589 12.4148 16.466 12.4148 15.9892C12.4148 15.5104 12.5426 15.1185 12.7982 14.8133C13.0538 14.5062 13.377 14.3527 13.7681 14.3527ZM14.1486 15.0908C13.9369 15.0908 13.7719 15.169 13.6536 15.3254C13.5354 15.4818 13.4762 15.7031 13.4762 15.9892C13.4762 16.2829 13.5335 16.506 13.6479 16.6586C13.7624 16.8093 13.9293 16.8847 14.1486 16.8847C14.3622 16.8846 14.5281 16.8064 14.6464 16.65C14.7647 16.4936 14.8238 16.2733 14.8238 15.9892C14.8238 15.703 14.7647 15.4818 14.6464 15.3254C14.5281 15.169 14.3622 15.0908 14.1486 15.0908H14.1486Z" fill="black"/>
</svg>
