<svg width="24" height="24" viewBox="0 0 24 24" fill="none" xmlns="http://www.w3.org/2000/svg">
<path d="M21.6274 11.2246C21.2177 10.5977 20.5788 10.6387 20.1483 11.2246L16.9401 15.5547C16.5478 16.0879 16.0583 16.375 15.5513 16.375H11.4439C11.1384 16.375 10.8884 15.9531 10.8884 15.4375C10.8884 14.9219 11.1384 14.5 11.4439 14.5H14.1625C14.7146 14.5 15.2284 13.8613 15.3187 12.9414C15.4333 11.7695 14.8986 10.75 14.2215 10.75H8.6663C7.72885 10.75 6.82265 11.2949 6.09352 12.291L4.47903 14.5H2.55552C2.24999 14.5 2 14.9219 2 15.4375V21.0625C2 21.5781 2.24999 22 2.55552 22H14.9437C15.4472 22 15.9367 21.7129 16.3325 21.1797L21.5823 14.0898C22.11 13.3809 22.1517 12.0215 21.6274 11.2246Z" fill="black"/>
<path d="M17 2.50043L17.197 2.04044C17.1348 2.01376 17.0677 2 17 2C16.9323 2 16.8652 2.01376 16.803 2.04044L17 2.50043ZM17 11.5002L16.752 11.9342C16.8275 11.9773 16.913 12 17 12C17.087 12 17.1725 11.9773 17.248 11.9342L17 11.5002ZM15.012 10.3637L14.7635 10.7982L15.0115 10.3637H15.012ZM16.803 2.04094L13.606 3.4104L14 4.33038L17.197 2.96042L16.803 2.04094ZM13 4.32988V7.75978H14V4.32988H13ZM14.7635 10.7982L16.752 11.9342L17.248 11.0662L15.2595 9.92972L14.7635 10.7982ZM17.248 11.9342L19.2365 10.7982L18.7405 9.92972L16.752 11.0662L17.248 11.9342ZM21 7.75928V4.33038H20V7.76028H21V7.75928ZM20.394 3.4109L17.197 2.04094L16.803 2.95992L20 4.33038L20.394 3.4109ZM21 4.33038C21 4.13471 20.9426 3.94335 20.8348 3.78C20.7271 3.61666 20.5738 3.488 20.394 3.4109L20 4.33038H21ZM19.2365 10.7982C19.7723 10.492 20.2177 10.0501 20.5274 9.51634C20.8371 8.98257 21.0001 8.37639 21 7.75928H20C19.9999 8.20001 19.8834 8.6329 19.6621 9.01406C19.4408 9.39523 19.1227 9.71112 18.74 9.92972L19.2365 10.7982ZM13 7.75928C13 8.37631 13.1631 8.98238 13.4728 9.51606C13.7825 10.0497 14.2278 10.4921 14.7635 10.7982L15.2595 9.92972C14.877 9.71114 14.5591 9.39538 14.3379 9.01441C14.1168 8.63344 14.0002 8.2008 14 7.76028H13V7.75928ZM13.606 3.4104C13.4261 3.48753 13.2728 3.61627 13.165 3.77971C13.0573 3.94316 12.9999 4.13463 13 4.33038H14L13.606 3.4114V3.4104Z" fill="black"/>
<path d="M19 5L16.3333 8L15 6.5" stroke="black" stroke-linecap="round" stroke-linejoin="round"/>
</svg>
