<svg width="20" height="20" viewBox="0 0 20 20" fill="none" xmlns="http://www.w3.org/2000/svg">
<g clip-path="url(#clip0_2034_1780)">
<path fill-rule="evenodd" clip-rule="evenodd" d="M6.6241 3.25C6.32573 3.25 6.03958 3.36853 5.8286 3.5795C5.61763 3.79048 5.4991 4.07663 5.4991 4.375V4.96169C4.8861 5.04286 4.31693 5.32378 3.87966 5.761L2.28891 7.35231C2.23519 7.4042 2.19234 7.46627 2.16286 7.5349C2.13338 7.60352 2.11786 7.67734 2.11721 7.75202C2.11656 7.82671 2.13079 7.90078 2.15907 7.96991C2.18736 8.03904 2.22913 8.10184 2.28194 8.15466C2.33475 8.20747 2.39756 8.24924 2.46669 8.27752C2.53582 8.30581 2.60989 8.32004 2.68458 8.31939C2.75926 8.31874 2.83307 8.30322 2.9017 8.27374C2.97033 8.24426 3.0324 8.20141 3.08429 8.14769L4.6756 6.5575C4.90155 6.33122 5.18713 6.17379 5.4991 6.10356V8.15444L5.14754 8.43569C5.03102 8.52893 4.95632 8.66463 4.93987 8.81295C4.92341 8.96127 4.96655 9.11005 5.05979 9.22656C5.15303 9.34308 5.28873 9.41778 5.43705 9.43423C5.58537 9.45069 5.73415 9.40755 5.85066 9.31431L7.4836 8.00763C7.69984 7.83465 7.97227 7.74749 8.24876 7.76285C8.52525 7.77821 8.78635 7.89501 8.9821 8.09087L9.14297 8.25175L5.46141 11.0125C5.36405 11.0855 5.24562 11.125 5.12391 11.125H2.6866C2.53742 11.125 2.39434 11.1843 2.28885 11.2898C2.18336 11.3952 2.1241 11.5383 2.1241 11.6875C2.1241 11.8367 2.18336 11.9798 2.28885 12.0852C2.39434 12.1907 2.53742 12.25 2.6866 12.25H5.12391C5.48904 12.25 5.84431 12.1316 6.13641 11.9125L9.4366 9.4375H12.2491C12.5475 9.4375 12.8336 9.31897 13.0446 9.10799C13.2556 8.89702 13.3741 8.61087 13.3741 8.3125V4.375C13.3741 4.07663 13.2556 3.79048 13.0446 3.5795C12.8336 3.36853 12.5475 3.25 12.2491 3.25H6.6241ZM6.6241 7.255L6.78104 7.12956C7.2134 6.78369 7.75812 6.60938 8.31096 6.64C8.8638 6.67061 9.38594 6.904 9.77747 7.2955L9.93835 7.45637C10.1752 7.69319 10.2826 8.0065 10.2663 8.3125H12.2491V6.0625H6.6241V7.255ZM12.2491 4.9375V4.375H6.6241V4.9375H12.2491Z" fill="#780505"/>
</g>
<path d="M7.44961 14.275V14.8L11.6496 16.1125L15.3246 15.115V15.85H18.4746V10.075H14.2746L11.0196 11.2825C10.4946 11.4925 10.0746 12.07 10.0746 12.7H9.02461C8.13211 12.7 7.44961 13.3825 7.44961 14.275ZM16.3746 14.8V11.125H17.4246V14.8H16.3746ZM8.55211 14.065C8.65711 13.855 8.81461 13.75 9.02461 13.75H11.8596C12.1221 13.75 12.4371 13.6975 12.6996 13.645L13.9071 13.225L13.5921 12.2275L12.3321 12.6475C12.1746 12.6475 11.1246 12.7 11.1246 12.7C11.1246 12.49 11.2296 12.3325 11.4396 12.28L14.4846 11.125H15.3246V14.0125L11.6496 15.01L8.55211 14.065Z" fill="#780505"/>
<defs>
<clipPath id="clip0_2034_1780">
<rect width="13.5" height="13.5" fill="white" transform="translate(1 1)"/>
</clipPath>
</defs>
</svg>
