<svg width="23" height="23" viewBox="0 0 23 23" fill="none" xmlns="http://www.w3.org/2000/svg">
<path d="M19.2975 9.39227C18.621 9.09488 17.843 9.45111 17.568 10.1838L15.9922 14.0156H15.4859V3.59375C15.4859 2.80312 14.8885 2.15625 14.1585 2.15625C13.428 2.15625 12.831 2.80312 12.831 3.59375V10.4106L12.1671 10.4219V1.4375C12.1671 0.646875 11.5696 0 10.8396 0C10.1097 0 9.51221 0.646875 9.51221 1.4375V10.4106L8.84961 10.4219V2.875C8.84961 2.08437 8.25215 1.4375 7.52217 1.4375C6.79174 1.4375 6.19473 2.08437 6.19473 2.875V11.1294L5.52988 11.1406V5.75C5.52988 4.95937 4.93242 4.3125 4.20244 4.3125C3.47246 4.3125 2.875 4.95937 2.875 5.75V15.4531C2.875 18.8582 4.54295 23 10.4668 23C12.2996 23 14.0345 22.6855 14.9886 22.0566C15.587 21.6622 16.1017 21.1538 16.5034 20.5603C16.8036 20.1174 17.0452 19.6376 17.2221 19.1327L20.0275 11.2651C20.3047 10.5324 19.9741 9.6901 19.2975 9.39227Z" fill="black"/>
</svg>
