<svg width="80" height="80" viewBox="0 0 80 80" fill="none" xmlns="http://www.w3.org/2000/svg">
<path d="M3.33333 14.2335L9.99999 20.9002V36.6668C9.99999 55.1668 22.8 72.4668 40 76.6668C46.2333 75.1335 51.9 71.8668 56.5667 67.4668L64.1 75.0002L68.3333 70.7335L7.59999 10.0002L3.33333 14.2335ZM40 70.0002C27.5 66.6668 16.6667 51.8002 16.6667 37.4002V27.5668L51.9667 62.8668C48.4333 66.3002 44.3333 68.8335 40 70.0002ZM70 16.6668V36.6668C70 44.2668 67.8333 51.6668 64.1 58.0002L59.2333 53.1668C61.8 48.3335 63.3333 42.8002 63.3333 37.4002V21.0002L40 10.6002L23.8667 17.8002L18.8333 12.7335L40 3.3335L70 16.6668Z" fill="#EA5656"/>
</svg>
