<svg width="20" height="20" viewBox="0 0 20 20" fill="none" xmlns="http://www.w3.org/2000/svg">
<g clip-path="url(#clip0_1063_628)">
<path fill-rule="evenodd" clip-rule="evenodd" d="M19.41 3.71572C19.584 3.78517 19.7332 3.90517 19.8384 4.06025C19.9436 4.21532 19.9999 4.39835 20 4.58572V15.4132C19.9999 15.6006 19.9436 15.7836 19.8384 15.9387C19.7332 16.0938 19.584 16.2138 19.41 16.2832L10.3475 19.9082C10.124 19.9976 9.87473 19.9976 9.65125 19.9082L0.58875 16.2832C0.414961 16.2136 0.266007 16.0935 0.161076 15.9384C0.0561445 15.7834 4.35749e-05 15.6004 0 15.4132L0 4.58572C4.35749e-05 4.39849 0.0561445 4.21557 0.161076 4.06051C0.266007 3.90545 0.414961 3.78537 0.58875 3.71572L9.30375 0.229469L9.31625 0.225719L9.65125 0.0907193C9.8751 0.00101023 10.1249 0.00101023 10.3488 0.0907193L10.685 0.225719L10.6975 0.229469L19.41 3.71572ZM13.005 2.49947L5.3125 5.57572L2.3075 4.37447L1.25 4.79822V5.29822L9.375 8.54822V18.4507L10 18.7007L10.625 18.4507V8.54947L18.75 5.29947V4.79947L17.6925 4.37572L10 7.45072L6.995 6.24947L14.6875 3.17322L13.005 2.49947Z" fill="black"/>
</g>
<defs>
<clipPath id="clip0_1063_628">
<rect width="20" height="20" fill="white"/>
</clipPath>
</defs>
</svg>
