<svg width="34" height="34" viewBox="0 0 34 34" fill="none" xmlns="http://www.w3.org/2000/svg">
<path fill-rule="evenodd" clip-rule="evenodd" d="M17.0003 32.5833C14.3559 32.5833 11.9239 31.9812 9.70449 30.777C7.48505 29.5729 5.66699 27.9673 4.25033 25.9604V28.3333C4.25033 28.7347 4.11433 29.0714 3.84233 29.3434C3.57033 29.6154 3.2341 29.7509 2.83366 29.75C2.43227 29.75 2.09605 29.614 1.82499 29.342C1.55394 29.07 1.41794 28.7337 1.41699 28.3333V22.6666C1.41699 22.2652 1.55299 21.929 1.82499 21.658C2.09699 21.3869 2.43321 21.2509 2.83366 21.25H8.50033C8.90171 21.25 9.23841 21.386 9.51041 21.658C9.78241 21.93 9.91794 22.2662 9.91699 22.6666C9.91699 23.068 9.78099 23.4047 9.50899 23.6767C9.23699 23.9487 8.90077 24.0842 8.50033 24.0833H6.41074C7.54408 25.7833 9.03771 27.1527 10.8917 28.1916C12.7456 29.2305 14.7818 29.75 17.0003 29.75C20.3295 29.75 23.1926 28.6402 25.5896 26.4208C27.9866 24.2013 29.3499 21.4743 29.6795 18.2395C29.7267 17.8618 29.892 17.5605 30.1753 17.3357C30.4587 17.1109 30.7892 16.999 31.167 17C31.5684 17 31.9107 17.1242 32.1941 17.3725C32.4774 17.6209 32.5955 17.9217 32.5482 18.275C32.383 20.2819 31.8635 22.1528 30.9899 23.8878C30.1163 25.6227 28.983 27.1338 27.5899 28.4211C26.1969 29.7084 24.5974 30.7237 22.7917 31.467C20.9859 32.2102 19.0554 32.5823 17.0003 32.5833ZM17.0003 4.24996C13.6712 4.24996 10.8085 5.35968 8.41249 7.57913C6.01644 9.79857 4.65266 12.5257 4.32116 15.7604C4.27394 16.1382 4.10866 16.4394 3.82533 16.6642C3.54199 16.889 3.21144 17.0009 2.83366 17C2.43227 17 2.08991 16.8762 1.80658 16.6288C1.52324 16.3813 1.40519 16.0801 1.45241 15.725C1.61769 13.718 2.13713 11.8471 3.01074 10.1121C3.88435 8.37718 5.01769 6.86607 6.41074 5.57879C7.8038 4.29151 9.40369 3.27624 11.2104 2.53296C13.0171 1.78968 14.9471 1.41757 17.0003 1.41663C19.6448 1.41663 22.0767 2.01871 24.2962 3.22288C26.5156 4.42704 28.3337 6.0326 29.7503 8.03954V5.66663C29.7503 5.26524 29.8863 4.92901 30.1583 4.65796C30.4303 4.3869 30.7665 4.2509 31.167 4.24996C31.5684 4.24996 31.9051 4.38596 32.1771 4.65796C32.4491 4.92996 32.5846 5.26618 32.5837 5.66663V11.3333C32.5837 11.7347 32.4477 12.0714 32.1757 12.3434C31.9037 12.6154 31.5674 12.7509 31.167 12.75H25.5003C25.0989 12.75 24.7627 12.614 24.4917 12.342C24.2206 12.07 24.0846 11.7337 24.0837 11.3333C24.0837 10.9319 24.2197 10.5957 24.4917 10.3246C24.7637 10.0536 25.0999 9.91757 25.5003 9.91663H27.5899C26.4566 8.21663 24.9634 6.84718 23.1104 5.80829C21.2574 4.7694 19.2207 4.24996 17.0003 4.24996Z" fill="black"/>
<path d="M16.9997 8.5C13.8713 8.5 11.333 10.9479 11.333 13.9643C11.333 18.8214 16.9997 25.5 16.9997 25.5C16.9997 25.5 22.6663 18.8214 22.6663 13.9643C22.6663 10.9479 20.128 8.5 16.9997 8.5ZM16.9997 17C16.5514 17 16.1131 16.8576 15.7404 16.5907C15.3676 16.3239 15.0771 15.9446 14.9055 15.5008C14.734 15.057 14.6891 14.5687 14.7766 14.0976C14.864 13.6265 15.0799 13.1938 15.3969 12.8542C15.7139 12.5145 16.1178 12.2832 16.5575 12.1895C16.9972 12.0958 17.4529 12.1439 17.8671 12.3277C18.2813 12.5115 18.6353 12.8228 18.8843 13.2222C19.1334 13.6216 19.2663 14.0911 19.2663 14.5714C19.2657 15.2153 19.0267 15.8326 18.6017 16.2879C18.1768 16.7432 17.6006 16.9993 16.9997 17Z" fill="black"/>
</svg>
