<svg width="24" height="24" viewBox="0 0 24 24" fill="none" xmlns="http://www.w3.org/2000/svg">
<g id="location">
<path id="Vector" d="M21.8319 20.102L20.4649 16H18.9649L19.7979 20H5.13188L5.96488 16H4.46488L3.09688 20.102C2.74988 21.146 3.36488 22 4.46488 22H20.4649C21.5649 22 22.1799 21.146 21.8319 20.102ZM17.4649 7C17.4649 5.67392 16.9381 4.40215 16.0004 3.46447C15.0627 2.52678 13.791 2 12.4649 2C11.1388 2 9.86703 2.52678 8.92934 3.46447C7.99166 4.40215 7.46488 5.67392 7.46488 7C7.46488 11.775 12.4649 17 12.4649 17C12.4649 17 17.4649 11.775 17.4649 7ZM9.76488 7.06C9.76488 6.70548 9.83472 6.35443 9.97042 6.02691C10.1061 5.69938 10.305 5.4018 10.5558 5.15117C10.8065 4.90053 11.1041 4.70174 11.4317 4.56616C11.7593 4.43058 12.1104 4.36087 12.4649 4.361C13.1808 4.361 13.8675 4.64541 14.3737 5.15167C14.88 5.65792 15.1644 6.34455 15.1644 7.0605C15.1644 7.77645 14.88 8.46308 14.3737 8.96933C13.8675 9.47559 13.1808 9.76 12.4649 9.76C11.7488 9.76 11.062 9.47554 10.5557 8.96919C10.0493 8.46284 9.76488 7.77608 9.76488 7.06Z" fill="#6A6A6A"/>
</g>
</svg>
