<svg width="24" height="24" viewBox="0 0 24 24" fill="none" xmlns="http://www.w3.org/2000/svg">
<path d="M3 2C2.44687 2 2 2.55859 2 3.25C2 3.94141 2.44687 4.5 3 4.5H3.5C3.775 4.5 4 4.78125 4 5.125V16.375C4 18.1016 5.11875 19.5 6.5 19.5H7.08437C7.02812 19.6953 7 19.9062 7 20.125C7 21.1602 7.67188 22 8.5 22C9.32812 22 10 21.1602 10 20.125C10 19.9062 9.96875 19.6953 9.91563 19.5H16.0844C16.0281 19.6953 16 19.9062 16 20.125C16 21.1602 16.6719 22 17.5 22C18.3281 22 19 21.1602 19 20.125C19 19.9062 18.9688 19.6953 18.9156 19.5H21C21.5531 19.5 22 18.9414 22 18.25C22 17.5586 21.5531 17 21 17H6.5C6.225 17 6 16.7188 6 16.375V5.125C6 3.39844 4.88125 2 3.5 2H3ZM8 5.125V12.625C8 13.6602 8.67188 14.5 9.5 14.5H19.5C20.3281 14.5 21 13.6602 21 12.625V5.125C21 4.08984 20.3281 3.25 19.5 3.25H16.5V8.875C16.5 9.10547 16.4 9.31641 16.2344 9.42578C16.0688 9.53516 15.875 9.52344 15.7219 9.39453L14.5 8.375L13.2781 9.39453C13.125 9.52344 12.9281 9.53516 12.7656 9.42578C12.6031 9.31641 12.5 9.10547 12.5 8.875V3.25H9.5C8.67188 3.25 8 4.08984 8 5.125Z" fill="black"/>
</svg>
