<svg width="20" height="20" viewBox="0 0 20 20" fill="none" xmlns="http://www.w3.org/2000/svg">
<path d="M1.90917 1L1 1.90855L2.6016 4.67639L3.64026 4.52416L9.98019 10.8605L9.4394 11.3794C9.16243 11.6562 9.16243 12.0755 9.4394 12.3523L9.72053 12.634C9.9975 12.9107 10.4213 12.9107 10.629 12.634L11.4516 13.4553C11.3824 13.8705 11.4516 14.3639 11.7978 14.7098L15.5411 18.4291C16.3028 19.1903 17.5492 19.1903 18.3109 18.4291C19.211 17.5988 19.2027 16.3574 18.4411 15.5962L14.7192 11.8548C14.373 11.5088 13.8793 11.3704 13.4638 11.5088L12.5547 10.6875C12.7624 10.4107 12.7624 9.9872 12.5547 9.77892L12.295 9.52012C12.2321 9.45453 12.1565 9.40233 12.0728 9.36667C11.9892 9.33102 11.8992 9.31263 11.8082 9.31263C11.7173 9.31263 11.6273 9.33102 11.5436 9.36667C11.46 9.40233 11.3844 9.45453 11.3214 9.52012L10.8672 9.97405L4.52727 3.63845L4.67822 2.60051L1.90917 1ZM15.4117 1.02145C14.0455 0.907969 12.2341 1.81306 11.3865 2.59982C10.3437 3.64191 10.5141 5.00438 11.3429 6.3198L9.87217 7.79022L10.9108 8.95756C11.4648 8.47319 12.2818 8.47319 12.8358 8.95756L13.1176 9.2385L13.1827 9.30354L13.7886 8.69807C15.0405 9.43363 16.3437 9.5395 17.3373 8.54653C18.3067 7.64698 19.3578 5.42855 18.8731 4.11383L16.926 6.12467C16.649 6.40145 16.2294 6.40145 15.9524 6.12467L13.9395 4.11383C13.8739 4.05092 13.8217 3.9754 13.786 3.8918C13.7503 3.80821 13.7319 3.71826 13.7319 3.62738C13.7319 3.53649 13.7503 3.44655 13.786 3.36295C13.8217 3.27936 13.8739 3.20383 13.9395 3.14093L15.9531 1.13009C15.78 1.0692 15.6069 1.03806 15.4117 1.02145ZM7.79487 9.64952L5.2841 12.1579C5.01429 12.098 4.73855 12.069 4.46218 12.0714C2.52336 12.0714 1 13.5937 1 15.5312C1 17.4687 2.52336 18.991 4.46218 18.991C6.401 18.991 7.92435 17.4687 7.92435 15.5312C7.92435 15.1762 7.86827 14.8351 7.77271 14.5147L9.24413 13.0443L9.02809 12.7633C8.47415 12.2098 8.4783 11.3711 8.96301 10.8169L7.79487 9.64952ZM13.1612 12.8069C13.2478 12.8069 13.3295 12.8235 13.3987 12.8934L17.489 16.9802C17.6274 17.1186 17.6274 17.3386 17.489 17.477C17.3505 17.6154 17.1289 17.6154 16.9904 17.477L12.9016 13.3903C12.7631 13.2519 12.7631 13.0318 12.9016 12.8934C12.9708 12.8242 13.0747 12.8069 13.1612 12.8069ZM4.93857 13.7356L6.25835 15.0551L5.78196 16.8494L3.98647 17.3255L2.666 16.0059L3.14239 14.2116L4.93857 13.7356Z" fill="#005C8F"/>
</svg>
