<svg width="20" height="20" viewBox="0 0 20 20" fill="none" xmlns="http://www.w3.org/2000/svg">
<path d="M14.7689 7.81793C15.6133 7.35953 16.3009 6.75757 16.7754 6.06138C17.2499 5.36518 17.4977 4.59457 17.4986 3.81268V3.25014H18.9985V1H1V3.25014H2.49987V3.81268C2.49985 4.59183 2.74552 5.35993 3.21682 6.05426C3.68811 6.7486 4.37166 7.34947 5.21165 7.8078C5.71344 8.04363 6.13586 8.3632 6.44597 8.74159C6.75608 9.11998 6.94551 9.54698 6.9995 9.98931C6.93622 10.4417 6.74096 10.8782 6.42757 11.2676C6.11418 11.6571 5.69035 11.99 5.18615 12.2428C4.36515 12.7009 3.69588 13.2948 3.23028 13.9782C2.76468 14.6617 2.51526 15.4165 2.50137 16.1839V16.7499H1.0015V19H19V16.7499H17.5001V16.1873C17.4881 15.4238 17.2426 14.6726 16.7826 13.9915C16.3226 13.3104 15.6604 12.7175 14.8468 12.2586C14.3386 12.0087 13.9098 11.678 13.591 11.2899C13.2722 10.9018 13.0711 10.4658 13.002 10.0129C13.0491 9.57124 13.2319 9.14373 13.5361 8.76388C13.8403 8.38404 14.2576 8.06219 14.7554 7.82355L14.7689 7.81793ZM11.4991 10.0006C11.5495 10.6127 11.7799 11.2089 12.1738 11.7464C12.5677 12.2839 13.1153 12.7492 13.7774 13.1091C14.4401 13.4571 14.9858 13.916 15.3714 14.4495C15.7569 14.9829 15.9717 15.5764 15.9987 16.1828V16.751H14.4989C14.4989 16.751 12.0691 12.8132 9.99925 12.8132C7.92942 12.8132 5.49962 16.751 5.49962 16.751H3.99975V16.1884C4.02454 15.5858 4.235 14.9955 4.61465 14.464C4.9943 13.9325 5.53283 13.4742 6.18807 13.1249C6.85616 12.7668 7.40992 12.3019 7.80937 11.7637C8.20881 11.2255 8.44397 10.6276 8.49787 10.0129C8.45616 9.41439 8.23192 8.83101 7.84239 8.30769C7.45287 7.78437 6.90846 7.33507 6.25106 6.99437C5.5598 6.64105 4.99351 6.16688 4.60103 5.61277C4.20856 5.05866 4.00168 4.44126 3.99825 3.8138V3.25127H15.9972V3.8138C15.9958 4.4365 15.7932 5.04967 15.4069 5.60083C15.0206 6.15199 14.462 6.62474 13.7789 6.97862C13.1165 7.31629 12.5663 7.76355 12.1708 8.28593C11.7753 8.80831 11.545 9.39186 11.4976 9.99156L11.4991 10.0006Z" fill="#389281"/>
</svg>
