<svg width="24" height="24" viewBox="0 0 24 24" fill="none" xmlns="http://www.w3.org/2000/svg">
<path d="M11.6725 10.4435C12.4937 10.4435 13.1595 9.77778 13.1595 8.95656C13.1595 8.13534 12.4937 7.4696 11.6725 7.4696C10.8513 7.4696 10.1855 8.13534 10.1855 8.95656C10.1855 9.77778 10.8513 10.4435 11.6725 10.4435Z" stroke="black" stroke-width="0.963768"/>
<path d="M12.5479 4.07534C12.366 4 12.135 4 11.6731 4C11.2112 4 10.9802 4 10.7983 4.07534C10.6779 4.12516 10.5686 4.19821 10.4765 4.29032C10.3844 4.38242 10.3113 4.49178 10.2615 4.61213C10.2159 4.72266 10.1975 4.85203 10.1906 5.03988C10.1875 5.17568 10.15 5.30847 10.0815 5.42578C10.013 5.54308 9.91579 5.64106 9.79904 5.7105C9.68053 5.77693 9.54707 5.81215 9.41121 5.81285C9.27535 5.81354 9.14154 5.77969 9.02235 5.71446C8.85581 5.62623 8.73537 5.57766 8.61592 5.5618C8.35536 5.52754 8.09186 5.59813 7.88334 5.75808C7.72771 5.87852 7.61173 6.07827 7.38075 6.47826C7.14978 6.87825 7.0338 7.078 7.00852 7.27378C6.99148 7.40288 7.00005 7.53406 7.03373 7.65984C7.06741 7.78563 7.12554 7.90354 7.2048 8.00685C7.27815 8.10202 7.38075 8.18182 7.53986 8.28194C7.7743 8.42915 7.92498 8.67995 7.92498 8.95652C7.92498 9.2331 7.7743 9.4839 7.53986 9.63061C7.38075 9.73123 7.27766 9.81103 7.2048 9.90619C7.12554 10.0095 7.06741 10.1274 7.03373 10.2532C7.00005 10.379 6.99148 10.5102 7.00852 10.6393C7.03429 10.8345 7.14978 11.0348 7.38026 11.4348C7.61173 11.8348 7.72721 12.0345 7.88334 12.155C7.98666 12.2342 8.10457 12.2924 8.23035 12.326C8.35613 12.3597 8.48732 12.3683 8.61641 12.3512C8.73537 12.3354 8.85581 12.2868 9.02235 12.1986C9.14154 12.1334 9.27535 12.0995 9.41121 12.1002C9.54707 12.1009 9.68053 12.1361 9.79904 12.2025C10.0384 12.3413 10.1807 12.5966 10.1906 12.8732C10.1975 13.0615 10.2154 13.1904 10.2615 13.3009C10.3113 13.4213 10.3844 13.5306 10.4765 13.6227C10.5686 13.7148 10.6779 13.7879 10.7983 13.8377C10.9802 13.913 11.2112 13.913 11.6731 13.913C12.135 13.913 12.366 13.913 12.5479 13.8377C12.6683 13.7879 12.7776 13.7148 12.8697 13.6227C12.9618 13.5306 13.0349 13.4213 13.0847 13.3009C13.1303 13.1904 13.1487 13.0615 13.1556 12.8732C13.1655 12.5966 13.3078 12.3408 13.5472 12.2025C13.6657 12.1361 13.7991 12.1009 13.935 12.1002C14.0709 12.0995 14.2047 12.1334 14.3238 12.1986C14.4904 12.2868 14.6108 12.3354 14.7298 12.3512C14.8589 12.3683 14.9901 12.3597 15.1158 12.326C15.2416 12.2924 15.3595 12.2342 15.4629 12.155C15.619 12.035 15.7345 11.8348 15.9654 11.4348C16.1964 11.0348 16.3124 10.835 16.3377 10.6393C16.3547 10.5102 16.3461 10.379 16.3125 10.2532C16.2788 10.1274 16.2207 10.0095 16.1414 9.90619C16.068 9.81103 15.9654 9.73123 15.8063 9.6311C15.6902 9.56053 15.594 9.46159 15.5266 9.34359C15.4592 9.22558 15.423 9.09239 15.4212 8.95652C15.4212 8.67995 15.5719 8.42915 15.8063 8.28243C15.9654 8.18182 16.0685 8.10202 16.1414 8.00685C16.2207 7.90354 16.2788 7.78563 16.3125 7.65984C16.3461 7.53406 16.3547 7.40288 16.3377 7.27378C16.3119 7.0785 16.1964 6.87825 15.9659 6.47826C15.7345 6.07827 15.619 5.87852 15.4629 5.75808C15.3595 5.67882 15.2416 5.62069 15.1158 5.58701C14.9901 5.55333 14.8589 5.54477 14.7298 5.5618C14.6108 5.57766 14.4904 5.62623 14.3234 5.71446C14.2042 5.7796 14.0705 5.8134 13.9347 5.81271C13.799 5.81202 13.6656 5.77685 13.5472 5.7105C13.4304 5.64106 13.3332 5.54308 13.2647 5.42578C13.1962 5.30847 13.1587 5.17568 13.1556 5.03988C13.1487 4.85153 13.1308 4.72266 13.0847 4.61213C13.0349 4.49178 12.9618 4.38242 12.8697 4.29032C12.7776 4.19821 12.6683 4.12516 12.5479 4.07534Z" stroke="black" stroke-width="0.963768"/>
<path d="M21.2308 2H2.76923C2.3444 2 2 2.36985 2 2.82609V16.0435C2 16.4997 2.3444 16.8696 2.76923 16.8696H21.2308C21.6556 16.8696 22 16.4997 22 16.0435V2.82609C22 2.36985 21.6556 2 21.2308 2Z" stroke="black" stroke-width="1.15652" stroke-linecap="round" stroke-linejoin="round"/>
<path d="M10.3043 17L8.65217 21.1304M13.6087 17L15.2609 21.1304M7 21.1304H16.913" stroke="black" stroke-width="1.15652" stroke-linecap="round" stroke-linejoin="round"/>
</svg>
