<svg width="26" height="26" viewBox="0 0 26 26" fill="none" xmlns="http://www.w3.org/2000/svg">
<path d="M20.9249 5.07569C16.548 0.698727 9.45266 0.698727 5.07569 5.07569C0.698727 9.45266 0.698727 16.548 5.07569 20.9249C9.45266 25.3019 16.548 25.3019 20.9249 20.9249C25.3019 16.548 25.301 9.45266 20.9249 5.07569ZM17.7547 16.487C17.9228 16.6551 18.0173 16.8831 18.0173 17.1209C18.0173 17.3586 17.9228 17.5866 17.7547 17.7547C17.5866 17.9228 17.3586 18.0173 17.1209 18.0173C16.8831 18.0173 16.6551 17.9228 16.487 17.7547L13.0003 14.268L9.51362 17.7547C9.43056 17.8383 9.33179 17.9046 9.22301 17.9498C9.11423 17.9951 8.99758 18.0183 8.87976 18.0183C8.76195 18.0183 8.6453 17.9951 8.53651 17.9498C8.42773 17.9046 8.32897 17.8383 8.2459 17.7547C8.16257 17.6715 8.09646 17.5727 8.05135 17.464C8.00625 17.3552 7.98303 17.2386 7.98303 17.1209C7.98303 17.0031 8.00625 16.8865 8.05135 16.7778C8.09646 16.669 8.16257 16.5702 8.2459 16.487L11.7326 13.0003L8.2459 9.51362C8.07779 9.34551 7.98335 9.11751 7.98335 8.87976C7.98335 8.64202 8.07779 8.41401 8.2459 8.2459C8.41401 8.07779 8.64202 7.98335 8.87976 7.98335C9.11751 7.98335 9.34551 8.07779 9.51362 8.2459L13.0003 11.7326L16.487 8.2459C16.5702 8.16266 16.6691 8.09663 16.7778 8.05158C16.8866 8.00653 17.0031 7.98335 17.1209 7.98335C17.2386 7.98335 17.3552 8.00653 17.4639 8.05158C17.5727 8.09663 17.6715 8.16266 17.7547 8.2459C17.838 8.32914 17.904 8.42796 17.949 8.53672C17.9941 8.64548 18.0173 8.76204 18.0173 8.87976C18.0173 8.99748 17.9941 9.11405 17.949 9.22281C17.904 9.33157 17.838 9.43038 17.7547 9.51362L14.268 13.0003L17.7547 16.487Z" fill="black"/>
</svg>
