<svg width="16" height="16" viewBox="0 0 16 16" fill="none" xmlns="http://www.w3.org/2000/svg">
<path d="M13.5 10C13.5 10.1326 13.4473 10.2598 13.3536 10.3536C13.2598 10.4473 13.1326 10.5 13 10.5H11.5V11.5H12.5C12.6326 11.5 12.7598 11.5527 12.8536 11.6464C12.9473 11.7402 13 11.8674 13 12C13 12.1326 12.9473 12.2598 12.8536 12.3536C12.7598 12.4473 12.6326 12.5 12.5 12.5H11.5V13.5C11.5 13.6326 11.4473 13.7598 11.3536 13.8536C11.2598 13.9473 11.1326 14 11 14C10.8674 14 10.7402 13.9473 10.6464 13.8536C10.5527 13.7598 10.5 13.6326 10.5 13.5V10C10.5 9.86739 10.5527 9.74021 10.6464 9.64645C10.7402 9.55268 10.8674 9.5 11 9.5H13C13.1326 9.5 13.2598 9.55268 13.3536 9.64645C13.4473 9.74021 13.5 9.86739 13.5 10ZM5.25 11.25C5.25 11.7141 5.06563 12.1592 4.73744 12.4874C4.40925 12.8156 3.96413 13 3.5 13H3V13.5C3 13.6326 2.94732 13.7598 2.85355 13.8536C2.75979 13.9473 2.63261 14 2.5 14C2.36739 14 2.24021 13.9473 2.14645 13.8536C2.05268 13.7598 2 13.6326 2 13.5V10C2 9.86739 2.05268 9.74021 2.14645 9.64645C2.24021 9.55268 2.36739 9.5 2.5 9.5H3.5C3.96413 9.5 4.40925 9.68437 4.73744 10.0126C5.06563 10.3408 5.25 10.7859 5.25 11.25ZM4.25 11.25C4.25 11.0511 4.17098 10.8603 4.03033 10.7197C3.88968 10.579 3.69891 10.5 3.5 10.5H3V12H3.5C3.69891 12 3.88968 11.921 4.03033 11.7803C4.17098 11.6397 4.25 11.4489 4.25 11.25ZM9.75 11.75C9.75 12.3467 9.51295 12.919 9.09099 13.341C8.66903 13.7629 8.09674 14 7.5 14H6.5C6.36739 14 6.24021 13.9473 6.14645 13.8536C6.05268 13.7598 6 13.6326 6 13.5V10C6 9.86739 6.05268 9.74021 6.14645 9.64645C6.24021 9.55268 6.36739 9.5 6.5 9.5H7.5C8.09674 9.5 8.66903 9.73705 9.09099 10.159C9.51295 10.581 9.75 11.1533 9.75 11.75ZM8.75 11.75C8.75 11.4185 8.6183 11.1005 8.38388 10.8661C8.14946 10.6317 7.83152 10.5 7.5 10.5H7V13H7.5C7.83152 13 8.14946 12.8683 8.38388 12.6339C8.6183 12.3995 8.75 12.0815 8.75 11.75ZM2 7.5V3C2 2.73478 2.10536 2.48043 2.29289 2.29289C2.48043 2.10536 2.73478 2 3 2H9C9.06568 1.99995 9.13073 2.01284 9.19143 2.03793C9.25212 2.06303 9.30728 2.09983 9.35375 2.14625L12.8538 5.64625C12.9002 5.69272 12.937 5.74788 12.9621 5.80858C12.9872 5.86927 13.0001 5.93432 13 6V7.5C13 7.63261 12.9473 7.75979 12.8536 7.85355C12.7598 7.94732 12.6326 8 12.5 8C12.3674 8 12.2402 7.94732 12.1464 7.85355C12.0527 7.75979 12 7.63261 12 7.5V6.5H9C8.86739 6.5 8.74021 6.44732 8.64645 6.35355C8.55268 6.25979 8.5 6.13261 8.5 6V3H3V7.5C3 7.63261 2.94732 7.75979 2.85355 7.85355C2.75979 7.94732 2.63261 8 2.5 8C2.36739 8 2.24021 7.94732 2.14645 7.85355C2.05268 7.75979 2 7.63261 2 7.5ZM9.5 5.5H11.2931L9.5 3.70688V5.5Z" fill="#8F0808"/>
</svg>
