<svg width="26" height="26" viewBox="0 0 26 26" fill="none" xmlns="http://www.w3.org/2000/svg">
<g clip-path="url(#clip0_1058_624)">
<path d="M18.5226 21.816C18.6278 21.816 18.7131 21.7321 18.7131 21.6287C18.7131 21.5253 18.6278 21.4414 18.5226 21.4414C18.4173 21.4414 18.332 21.5253 18.332 21.6287C18.332 21.7321 18.4173 21.816 18.5226 21.816Z" fill="black"/>
<path d="M24.8068 23.6897H24.0451L23.8928 20.5433L23.74 17.3977L23.5877 14.2517L23.4357 11.1061L23.2834 7.96009H23.2131C23.3962 7.75334 23.4978 7.4871 23.4991 7.21096C23.4991 6.87581 23.3512 6.56218 23.1038 6.34646C23.1132 6.28065 23.1181 6.21484 23.1181 6.14984C23.1181 5.28696 22.3803 4.57278 21.5097 4.62153C21.4567 4.50637 21.3928 4.39658 21.3188 4.29368C21.3245 4.2429 21.3273 4.19212 21.3273 4.13971C21.3273 2.92462 20.3251 1.93621 19.0933 1.93621C19.0039 1.93627 18.9146 1.94251 18.826 1.9549C18.6185 1.60515 18.3232 1.31572 17.9693 1.11534C17.6154 0.914947 17.2153 0.81056 16.8086 0.812527C16.2679 0.813203 15.7442 1.00095 15.3262 1.3439C14.8665 0.996802 14.3056 0.810128 13.7296 0.812527C13.2121 0.812573 12.7058 0.963643 12.2728 1.24721C11.4709 0.667496 10.2818 0.686996 9.49203 1.31303C8.59341 0.72884 7.38481 0.655715 6.41672 1.14078C5.92114 0.923354 5.3857 0.811562 4.84453 0.812527C2.69384 0.812527 0.944125 2.53584 0.944125 4.65443C0.944125 6.77303 2.69384 8.49675 4.84453 8.49675C6.12544 8.49675 7.30234 7.88859 8.03441 6.85915C8.54278 6.82398 9.03432 6.66238 9.46439 6.38903C9.89446 6.11568 10.2494 5.73923 10.4971 5.29387C10.9283 5.37931 11.3752 5.33492 11.7812 5.16631C12.0302 5.43435 12.3317 5.64815 12.667 5.79431C13.0024 5.94048 13.3642 6.01587 13.73 6.01578C14.1002 6.01676 14.4664 5.93998 14.8049 5.79043C15.1435 5.64088 15.4469 5.42188 15.6955 5.14762C16.1708 5.41157 16.7251 5.49605 17.2575 5.38568C17.3818 5.56565 17.5305 5.72571 17.6991 5.86018C17.9014 6.76328 18.7163 7.42425 19.6658 7.42425C19.9538 7.42425 20.2349 7.36412 20.4945 7.24712C20.7041 7.44984 20.9653 7.58837 21.2522 7.64728C21.2989 7.76265 21.3647 7.86746 21.4443 7.96009H20.9987L20.8463 11.1061L20.6936 14.2517L20.5412 17.3977L20.3893 20.5433L20.2369 23.6897V16.1992H15.6666L11.0963 12.454V16.1992L6.526 12.454V16.1992L1.95569 12.454V23.6893H1.19356C1.09342 23.6888 0.997162 23.728 0.92578 23.7983C0.854398 23.8685 0.813678 23.9641 0.8125 24.0642V24.813C0.8125 25.0189 0.983531 25.1875 1.19356 25.1875H24.8068C24.9069 25.188 25.003 25.1488 25.0743 25.0787C25.1456 25.0085 25.1863 24.913 25.1875 24.813V24.0642C25.1863 23.9642 25.1456 23.8687 25.0743 23.7985C25.003 23.7284 24.9069 23.6892 24.8068 23.6897ZM20.9402 6.51384L20.7155 6.14659L20.3617 6.39237C20.1573 6.53493 19.9141 6.61136 19.6649 6.61134C19.0612 6.61134 18.5486 6.16609 18.4726 5.57621L18.4486 5.39259L18.2947 5.29021C18.0877 5.15006 17.9216 4.95761 17.8132 4.73243L17.6552 4.40825L17.3144 4.52687C16.7558 4.72106 16.2667 4.6065 15.8547 4.28312L15.5082 4.00971L15.2648 4.3794C15.0976 4.63345 14.8696 4.84179 14.6015 4.98557C14.3335 5.12935 14.0338 5.20404 13.7296 5.20287C13.4347 5.20335 13.1439 5.13288 12.8819 4.99741C12.6198 4.86194 12.3942 4.66545 12.2241 4.4245L12.0075 4.11615L11.6838 4.30871C11.2974 4.53865 10.8798 4.59593 10.4146 4.42896L10.0478 4.29734L9.90112 4.65809C9.55744 5.50309 8.73722 6.05112 7.81097 6.05437L7.58753 6.05518L7.4685 6.24409C6.89975 7.14515 5.91866 7.68343 4.84453 7.68343C3.14194 7.68343 1.75662 6.32412 1.75662 4.65362C1.75662 2.98393 3.14153 1.62503 4.84453 1.62503C5.33528 1.62503 5.80734 1.73756 6.24731 1.95896L6.44597 2.0589L6.63731 1.94556C7.45347 1.46171 8.54181 1.5515 9.2625 2.15112L9.56069 2.39893L9.82231 2.11293C9.96089 1.95903 10.1303 1.83605 10.3196 1.75198C10.5089 1.66792 10.7137 1.62466 10.9208 1.62503C11.3147 1.62341 11.6931 1.77814 11.973 2.05525L12.2399 2.3189L12.5239 2.07353C12.8589 1.78416 13.2869 1.62497 13.7296 1.62503C14.2313 1.62503 14.7002 1.82165 15.0487 2.17915L15.3575 2.49521L15.6467 2.16087C15.7906 1.9934 15.9688 1.85886 16.1693 1.7664C16.3698 1.67394 16.5878 1.62572 16.8086 1.62503C17.4362 1.62503 17.9928 1.99593 18.2268 2.56956L18.3629 2.9039L18.7111 2.80762C18.8573 2.767 18.9788 2.74831 19.0933 2.74831C19.8774 2.74831 20.5148 3.37231 20.5148 4.13931C20.5148 4.20593 20.5038 4.26971 20.4917 4.34731L20.4636 4.53175L20.5851 4.67353C20.7147 4.82425 20.8012 4.99162 20.8427 5.17078L20.9402 5.59328L21.3549 5.46856C21.4378 5.44337 21.5057 5.432 21.5686 5.432C21.9745 5.432 22.3052 5.75375 22.3052 6.14943C22.3052 6.22459 22.2901 6.30259 22.2588 6.38912L22.1288 6.74621L22.4766 6.89937C22.5379 6.92546 22.5904 6.96878 22.6276 7.02409C22.6648 7.0794 22.6852 7.14431 22.6862 7.21096C22.6862 7.40028 22.5266 7.55384 22.3307 7.55384C22.2433 7.55542 22.1586 7.52382 22.0935 7.4654C22.0285 7.40698 21.988 7.32608 21.9802 7.239L21.9493 6.86646L21.5467 6.86687C21.4241 6.86353 21.3043 6.82946 21.1984 6.76777C21.0924 6.70609 21.0036 6.61877 20.9402 6.51384ZM21.3326 13.6423L21.426 11.7155H22.8548L22.9478 13.6423H21.3326ZM21.0283 19.9339L21.1213 18.0071H23.1595L23.2529 19.9339H21.0283ZM19.3732 24.8739H16.5295V24.5408H19.3732V24.8739ZM19.424 19.9445V22.8776H19.2969V19.9445H19.424ZM17.0117 23.4866V20.1472H18.8906V23.4866H17.0117ZM16.9102 24.3372V23.8928H18.9922V24.3372H16.9102ZM6.71572 20.1317H10.9054V21.4431H6.71572V20.1317ZM6.33506 21.4427H2.76778V20.1313H6.33506V21.4427ZM11.286 20.1317H15.2852V21.4431H11.286V20.1317ZM11.286 19.7572V18.4462H15.2852V19.7572H11.286ZM10.9054 19.7572H6.71572V18.4462H10.9054V19.7572ZM6.33506 19.7572H2.76778V18.4462H6.33506V19.7572Z" fill="black"/>
<path d="M9.15119 3.49434C9.1052 3.45611 9.05537 3.42275 9.0025 3.39481C8.94949 3.36305 8.89358 3.33639 8.83553 3.31519C8.76674 3.28826 8.6958 3.2672 8.62347 3.25222C8.57244 3.02936 8.45735 2.8263 8.29238 2.66803C8.18873 2.56391 8.06863 2.47757 7.93691 2.4125C7.80515 2.34547 7.66573 2.29472 7.52172 2.26137C6.98425 2.13828 6.38747 2.28859 6.01453 2.62456C6.01006 2.62294 6.00722 2.62009 6.00356 2.61887C5.93277 2.59019 5.85928 2.56869 5.78419 2.55469C5.63465 2.52882 5.48162 2.53089 5.33284 2.56078C5.04644 2.62578 4.80716 2.80128 4.72266 3.01741C4.90517 2.86925 5.13439 2.79078 5.36941 2.796C5.4795 2.79641 5.58391 2.81997 5.67694 2.85734C5.73097 2.87887 5.74559 2.887 5.80938 2.92234C5.84513 2.94347 5.88169 2.97516 5.91378 3.00481L6.05434 3.13359L6.22944 2.98816C6.539 2.73019 6.98953 2.63025 7.38766 2.71637C7.43519 2.72531 7.488 2.74075 7.53066 2.75375C7.56763 2.76512 7.61922 2.78462 7.68016 2.81428C7.75531 2.85369 7.85037 2.90731 7.92269 2.96703C8.07462 3.08809 8.18391 3.25019 8.25094 3.42894L8.30538 3.57194L8.44066 3.57112C8.5345 3.57072 8.63647 3.57194 8.72422 3.58616C8.8075 3.59469 8.92409 3.6345 9.00819 3.66781C9.19019 3.74622 9.35512 3.86931 9.4835 4.03506C9.45587 3.83681 9.334 3.64141 9.15119 3.49434ZM20.3003 4.60341C20.2743 4.56553 20.2448 4.53017 20.2122 4.49778C20.1744 4.45797 20.133 4.42166 20.0887 4.38931C20.1256 4.22327 20.1127 4.05002 20.0517 3.89125C20.015 3.78852 19.9612 3.69277 19.8924 3.60809C19.8603 3.56642 19.8254 3.52693 19.788 3.48987C19.7477 3.44966 19.705 3.41195 19.6601 3.37694C19.3351 3.12709 18.8833 3.04422 18.5226 3.15594L18.5169 3.14862C18.4782 3.10719 18.4353 3.06989 18.3889 3.03731C18.2956 2.97345 18.1914 2.92731 18.0814 2.90122C17.8669 2.85653 17.6487 2.90122 17.522 3.02147C17.6922 2.97734 17.8727 2.9952 18.031 3.07184C18.1053 3.10597 18.1687 3.15472 18.2195 3.20834C18.2496 3.23962 18.2565 3.24978 18.2886 3.29325C18.306 3.31884 18.3202 3.35175 18.3324 3.38141L18.3869 3.51222L18.5518 3.46794C18.8439 3.38912 19.1811 3.46103 19.4228 3.64262C19.4521 3.66375 19.4829 3.69016 19.5077 3.71209C19.5292 3.73119 19.5577 3.76084 19.5894 3.79944C19.628 3.84941 19.6747 3.91522 19.7043 3.97819C19.7681 4.10737 19.7909 4.25078 19.7791 4.39256L19.7702 4.50631L19.8624 4.54775C19.9257 4.57659 19.9948 4.60869 20.0492 4.64566C20.2372 4.77153 20.3697 4.96458 20.4197 5.18516C20.4657 5.04337 20.4457 4.87356 20.369 4.71716C20.3498 4.67711 20.3268 4.63902 20.3003 4.60341Z" fill="black"/>
</g>
<defs>
<clipPath id="clip0_1058_624">
<rect width="26" height="26" fill="white"/>
</clipPath>
</defs>
</svg>
