<svg width="24" height="24" viewBox="0 0 24 24" fill="none" xmlns="http://www.w3.org/2000/svg">
<path d="M9.22291 8.25C9.07561 8.25 8.93433 8.31585 8.83017 8.43306C8.72601 8.55027 8.66749 8.70924 8.66749 8.875C8.66749 9.04076 8.72601 9.19973 8.83017 9.31694C8.93433 9.43415 9.07561 9.5 9.22291 9.5H14.7771C14.9244 9.5 15.0657 9.43415 15.1698 9.31694C15.274 9.19973 15.3325 9.04076 15.3325 8.875C15.3325 8.70924 15.274 8.55027 15.1698 8.43306C15.0657 8.31585 14.9244 8.25 14.7771 8.25H9.22291ZM7.55666 11.375C7.55666 11.2092 7.61518 11.0503 7.71934 10.9331C7.8235 10.8158 7.96477 10.75 8.11208 10.75H15.8879C16.0352 10.75 16.1765 10.8158 16.2807 10.9331C16.3848 11.0503 16.4433 11.2092 16.4433 11.375C16.4433 11.5408 16.3848 11.6997 16.2807 11.8169C16.1765 11.9342 16.0352 12 15.8879 12H8.11208C7.96477 12 7.8235 11.9342 7.71934 11.8169C7.61518 11.6997 7.55666 11.5408 7.55666 11.375ZM9.22291 13.25C9.07561 13.25 8.93433 13.3158 8.83017 13.4331C8.72601 13.5503 8.66749 13.7092 8.66749 13.875C8.66749 14.0408 8.72601 14.1997 8.83017 14.3169C8.93433 14.4342 9.07561 14.5 9.22291 14.5H14.7771C14.9244 14.5 15.0657 14.4342 15.1698 14.3169C15.274 14.1997 15.3325 14.0408 15.3325 13.875C15.3325 13.7092 15.274 13.5503 15.1698 13.4331C15.0657 13.3158 14.9244 13.25 14.7771 13.25H9.22291ZM3.66874 2C3.27524 1.99934 2.89423 2.15542 2.59319 2.44058C2.29215 2.72574 2.09051 3.12159 2.02399 3.55802C1.95746 3.99444 2.03035 4.44328 2.22973 4.82503C2.42911 5.20678 2.74212 5.49681 3.11332 5.64375V14.5C3.11332 15.4946 3.46442 16.4484 4.08939 17.1517C4.71435 17.8549 5.56199 18.25 6.44583 18.25H11.4446V20.75H8.11208C7.96477 20.75 7.8235 20.8158 7.71934 20.9331C7.61518 21.0503 7.55666 21.2092 7.55666 21.375C7.55666 21.5408 7.61518 21.6997 7.71934 21.8169C7.8235 21.9342 7.96477 22 8.11208 22H15.8879C16.0352 22 16.1765 21.9342 16.2807 21.8169C16.3848 21.6997 16.4433 21.5408 16.4433 21.375C16.4433 21.2092 16.3848 21.0503 16.2807 20.9331C16.1765 20.8158 16.0352 20.75 15.8879 20.75H12.5554V18.25H17.5542C18.438 18.25 19.2856 17.8549 19.9106 17.1517C20.5356 16.4484 20.8867 15.4946 20.8867 14.5V5.64375C21.2579 5.49681 21.5709 5.20678 21.7703 4.82503C21.9697 4.44328 22.0425 3.99444 21.976 3.55802C21.9095 3.12159 21.7078 2.72574 21.4068 2.44058C21.1058 2.15542 20.7248 1.99934 20.3313 2H3.66874ZM4.22416 14.5V5.75H19.7758V14.5C19.7758 15.163 19.5418 15.7989 19.1251 16.2678C18.7085 16.7366 18.1434 17 17.5542 17H6.44583C5.8566 17 5.29151 16.7366 4.87487 16.2678C4.45822 15.7989 4.22416 15.163 4.22416 14.5Z" fill="black"/>
</svg>
