<svg width="24" height="24" viewBox="0 0 24 24" fill="none" xmlns="http://www.w3.org/2000/svg">
<path fill-rule="evenodd" clip-rule="evenodd" d="M2.59319 2.44058C2.89423 2.15542 3.27524 1.99934 3.66874 2H20.3313C20.7248 1.99934 21.1058 2.15542 21.4068 2.44058C21.7078 2.72574 21.9095 3.12159 21.976 3.55802C22.0425 3.99444 21.9697 4.44328 21.7703 4.82503C21.5709 5.20678 21.2579 5.49681 20.8867 5.64375V14.5C20.8867 15.4946 20.5356 16.4484 19.9106 17.1517C19.2856 17.8549 18.438 18.25 17.5542 18.25H12.5554V20.75H15.8879C16.0352 20.75 16.1765 20.8158 16.2807 20.9331C16.3848 21.0503 16.4433 21.2092 16.4433 21.375C16.4433 21.5408 16.3848 21.6997 16.2807 21.8169C16.1765 21.9342 16.0352 22 15.8879 22H8.11208C7.96477 22 7.8235 21.9342 7.71934 21.8169C7.61518 21.6997 7.55666 21.5408 7.55666 21.375C7.55666 21.2092 7.61518 21.0503 7.71934 20.9331C7.8235 20.8158 7.96477 20.75 8.11208 20.75H11.4446V18.25H6.44583C5.56199 18.25 4.71436 17.8549 4.08939 17.1517C3.46442 16.4484 3.11332 15.4946 3.11332 14.5V5.64375C2.74212 5.49681 2.42911 5.20678 2.22973 4.82503C2.03035 4.44328 1.95746 3.99444 2.02399 3.55802C2.09051 3.12159 2.29215 2.72574 2.59319 2.44058ZM4.22416 5.75V14.5C4.22416 15.163 4.45822 15.7989 4.87487 16.2678C5.29151 16.7366 5.8566 17 6.44583 17H17.5542C18.1434 17 18.7085 16.7366 19.1251 16.2678C19.5418 15.7989 19.7758 15.163 19.7758 14.5V5.75H4.22416Z" fill="black"/>
<path d="M12.0045 7C12.3181 7.00328 12.6304 7.03815 12.9368 7.1038C13.0019 7.11777 13.0609 7.15094 13.1055 7.19868C13.1501 7.24641 13.178 7.30633 13.1854 7.37006L13.2581 7.99654C13.2683 8.08486 13.3 8.16964 13.3506 8.24406C13.4012 8.31847 13.4693 8.38044 13.5494 8.42498C13.6295 8.46952 13.7193 8.49538 13.8117 8.50049C13.9041 8.5056 13.9965 8.48981 14.0814 8.4544L14.6795 8.20208C14.7403 8.17638 14.8079 8.16944 14.873 8.18223C14.938 8.19502 14.9973 8.2269 15.0427 8.27347C15.4752 8.71698 15.7973 9.2489 15.9848 9.82921C16.0044 9.89023 16.0037 9.9556 15.9829 10.0162C15.9621 10.0769 15.9221 10.1298 15.8686 10.1677L15.3384 10.5435C15.2637 10.5961 15.2029 10.6648 15.161 10.7441C15.1192 10.8235 15.0973 10.9112 15.0973 11.0001C15.0973 11.0891 15.1192 11.1767 15.161 11.2561C15.2029 11.3354 15.2637 11.4042 15.3384 11.4567L15.8694 11.8321C15.9231 11.87 15.9631 11.923 15.9839 11.9838C16.0047 12.0445 16.0054 12.1099 15.9857 12.171C15.7982 12.7513 15.4763 13.2832 15.044 13.7268C14.9987 13.7733 14.9395 13.8052 14.8745 13.8181C14.8095 13.8309 14.742 13.8241 14.6812 13.7985L14.0805 13.5454C13.9958 13.5097 13.9034 13.4937 13.811 13.4986C13.7186 13.5036 13.6287 13.5293 13.5485 13.5738C13.4684 13.6183 13.4003 13.6803 13.3498 13.7548C13.2993 13.8293 13.2677 13.9141 13.2576 14.0025L13.185 14.6285C13.1777 14.6915 13.1504 14.7508 13.1068 14.7983C13.0631 14.8458 13.0052 14.8792 12.941 14.894C12.3222 15.0353 11.6774 15.0353 11.0585 14.894C10.9943 14.8793 10.9363 14.8459 10.8926 14.7984C10.8488 14.7509 10.8214 14.6916 10.8142 14.6285L10.7419 14.0033C10.7315 13.9152 10.6996 13.8307 10.6489 13.7566C10.5983 13.6825 10.5302 13.6208 10.4503 13.5765C10.3703 13.5322 10.2806 13.5066 10.1884 13.5016C10.0962 13.4966 10.0041 13.5125 9.91948 13.5479L9.31875 13.8006C9.25794 13.8263 9.19032 13.8331 9.12526 13.8203C9.0602 13.8074 9.0009 13.7754 8.95559 13.7288C8.52323 13.2847 8.20141 12.7522 8.01434 12.1714C7.99464 12.1103 7.99525 12.0449 8.01608 11.9842C8.0369 11.9234 8.07692 11.8704 8.13056 11.8325L8.66163 11.4567C8.73634 11.4042 8.79709 11.3354 8.83897 11.2561C8.88084 11.1767 8.90267 11.0891 8.90267 11.0001C8.90267 10.9112 8.88084 10.8235 8.83897 10.7441C8.79709 10.6648 8.73634 10.5961 8.66163 10.5435L8.13056 10.1685C8.07692 10.1306 8.0369 10.0776 8.01608 10.0169C7.99525 9.95615 7.99464 9.8907 8.01434 9.82962C8.20183 9.24931 8.52394 8.71739 8.95644 8.27388C9.00181 8.22731 9.06112 8.19543 9.12618 8.18264C9.19124 8.16985 9.25883 8.17679 9.31961 8.2025L9.91777 8.45481C10.0028 8.4902 10.0953 8.50595 10.1878 8.5008C10.2803 8.49564 10.3703 8.46971 10.4505 8.4251C10.5307 8.3805 10.5989 8.31845 10.6496 8.24395C10.7003 8.16945 10.732 8.08457 10.7424 7.99613L10.815 7.37006C10.8223 7.30621 10.8503 7.24615 10.895 7.19833C10.9396 7.1505 10.9988 7.11731 11.0641 7.10339C11.373 7.03783 11.6881 7.00318 12.0045 7ZM11.9994 9.76931C11.6594 9.76931 11.3334 9.89898 11.093 10.1298C10.8526 10.3606 10.7176 10.6737 10.7176 11.0001C10.7176 11.3265 10.8526 11.6396 11.093 11.8704C11.3334 12.1012 11.6594 12.2309 11.9994 12.2309C12.3393 12.2309 12.6653 12.1012 12.9057 11.8704C13.1461 11.6396 13.2811 11.3265 13.2811 11.0001C13.2811 10.6737 13.1461 10.3606 12.9057 10.1298C12.6653 9.89898 12.3393 9.76931 11.9994 9.76931Z" fill="black"/>
</svg>
