<svg width="24" height="24" viewBox="0 0 24 24" fill="none" xmlns="http://www.w3.org/2000/svg">
<path d="M21.374 8.87569L21.292 8.66236L21.1289 8.82245L19.9109 10.0179L19.8497 10.0781L19.8705 10.1614C20.0178 10.7506 20.1007 11.3399 20.1007 12C20.1007 16.4937 16.4944 20.1 12.0007 20.1C7.50707 20.1 3.9 16.4936 3.9 12C3.9 7.50634 7.50634 3.9 12 3.9C14.2097 3.9 16.193 4.7801 17.5894 6.17657L17.6955 6.28263L17.8016 6.17657L18.8561 5.12207L18.9621 5.01605L18.8561 4.90998C17.1032 3.15551 14.6651 2.1 12 2.1C6.51716 2.1 2.1 6.51716 2.1 12C2.1 17.4828 6.51716 21.9 12 21.9C17.4828 21.9 21.9 17.4828 21.9 12C21.9 10.9386 21.7573 9.87307 21.374 8.87569ZM20.5668 5.35468L20.4607 5.24861L20.3547 5.35469L12 13.7101L8.89533 10.6047L8.78926 10.4986L8.68318 10.6047L7.60468 11.6832L7.49862 11.7892L7.60468 11.8953L11.3547 15.6453L11.3547 15.6453L11.3571 15.6477L11.8964 16.163L12 16.262L12.1036 16.163L12.6429 15.6477L12.6429 15.6477L12.6453 15.6453L21.6453 6.64532L21.7514 6.53925L21.6453 6.43318L20.5668 5.35468Z" fill="black" stroke="black" stroke-width="0.3"/>
</svg>
