<svg width="46" height="45" viewBox="0 0 46 45" fill="none" xmlns="http://www.w3.org/2000/svg">
<path d="M23.1665 2.05007C20.5176 2.01259 17.8876 2.50197 15.4295 3.48974C12.9713 4.47752 10.734 5.944 8.84758 7.80396C6.96112 9.66392 5.46314 11.8803 4.44069 14.3242C3.41825 16.7681 2.89172 19.3909 2.89172 22.0401C2.89172 24.6892 3.41825 27.312 4.44069 29.7559C5.46314 32.1999 6.96112 34.4162 8.84758 36.2762C10.734 38.1361 12.9713 39.6026 15.4295 40.5904C17.8876 41.5782 20.5176 42.0675 23.1665 42.0301C28.4192 41.9558 33.4316 39.817 37.1198 36.0762C40.8081 32.3354 42.8757 27.2933 42.8757 22.0401C42.8757 16.7868 40.8081 11.7447 37.1198 8.00392C33.4316 4.26315 28.4192 2.12437 23.1665 2.05007ZM7.1745 22.0421C7.14095 19.9209 7.52976 17.8144 8.31827 15.845C9.10678 13.8756 10.2792 12.0827 11.7674 10.5709C13.2555 9.05902 15.0296 7.85835 16.9863 7.03879C18.9429 6.21922 21.0431 5.79715 23.1645 5.79715C25.2859 5.79715 27.3861 6.21922 29.3427 7.03879C31.2994 7.85835 33.0735 9.05902 34.5616 10.5709C36.0498 12.0827 37.2222 13.8756 38.0107 15.845C38.7992 17.8144 39.1881 19.9209 39.1545 22.0421C39.0881 26.2391 37.3743 30.2417 34.3828 33.1863C31.3913 36.1308 27.362 37.7812 23.1645 37.7812C18.967 37.7812 14.9377 36.1308 11.9462 33.1863C8.95474 30.2417 7.24089 26.2391 7.1745 22.0421ZM31.5905 15.6341C31.7768 15.8198 31.9245 16.0405 32.0254 16.2835C32.1262 16.5265 32.1781 16.787 32.1781 17.0501C32.1781 17.3131 32.1262 17.5736 32.0254 17.8166C31.9245 18.0596 31.7768 18.2803 31.5905 18.4661L22.5905 27.4661C22.4047 27.6523 22.184 27.8001 21.941 27.9009C21.6981 28.0017 21.4376 28.0536 21.1745 28.0536C20.9114 28.0536 20.6509 28.0017 20.408 27.9009C20.165 27.8001 19.9443 27.6523 19.7585 27.4661L15.7585 23.4661C15.383 23.0905 15.172 22.5812 15.172 22.0501C15.172 21.519 15.383 21.0096 15.7585 20.6341C16.134 20.2585 16.6434 20.0475 17.1745 20.0475C17.7056 20.0475 18.215 20.2585 18.5905 20.6341L21.1745 23.2221L28.7585 15.6341C28.9443 15.4478 29.165 15.3 29.408 15.1992C29.6509 15.0984 29.9114 15.0465 30.1745 15.0465C30.4376 15.0465 30.6981 15.0984 30.941 15.1992C31.184 15.3 31.4047 15.4478 31.5905 15.6341Z" fill="#228400"/>
</svg>
