<svg width="26" height="26" viewBox="0 0 26 26" fill="none" xmlns="http://www.w3.org/2000/svg">
<path fill-rule="evenodd" clip-rule="evenodd" d="M19.6733 13.0079C21.1575 12.9243 22.6256 13.352 23.8327 14.2197V6.49986C23.8327 5.26234 23.8327 3.79154 23.8327 3.24987C22.7493 3.25012 23.5597 3.24985 22.7493 3.24987L18.416 3.24986H13.6172H11.2812H3.24935C2.96203 3.24986 2.68648 3.36399 2.48332 3.56716C2.28015 3.77032 2.16602 4.04587 2.16602 4.33319V21.6665C2.16602 21.9539 2.28015 22.2294 2.48332 22.4326C2.68648 22.6357 2.96203 22.7499 3.24935 22.7499H14.4109C13.6671 21.4627 13.387 19.9595 13.6172 18.4909C13.8475 17.0222 14.5742 15.6768 15.6763 14.6791C16.7783 13.6813 18.189 13.0915 19.6733 13.0079ZM24.916 18.4165H21.666V14.6249L16.2493 19.4999L21.666 24.3749V20.5832H24.916V18.4165Z" fill="#E8F4E3"/>
</svg>
