<svg width="32" height="32" viewBox="0 0 32 32" fill="none" xmlns="http://www.w3.org/2000/svg">
<path d="M27.5561 6H19.0001V4C19.0001 3.46957 18.7894 2.96086 18.4143 2.58579C18.0393 2.21071 17.5306 2 17.0001 2H15.0001C14.4697 2 13.961 2.21071 13.5859 2.58579C13.2108 2.96086 13.0001 3.46957 13.0001 4V6H4.44413C3.78875 6.00818 3.16338 6.27598 2.7052 6.74465C2.24702 7.21333 1.99346 7.84461 2.00013 8.5V17.5C1.99346 18.1554 2.24702 18.7867 2.7052 19.2553C3.16338 19.724 3.78875 19.9918 4.44413 20H13.0001V28H9.00013C8.73491 28 8.48056 28.1054 8.29302 28.2929C8.10549 28.4804 8.00013 28.7348 8.00013 29C8.00013 29.2652 8.10549 29.5196 8.29302 29.7071C8.48056 29.8946 8.73491 30 9.00013 30H23.0001C23.2653 30 23.5197 29.8946 23.7072 29.7071C23.8948 29.5196 24.0001 29.2652 24.0001 29C24.0001 28.7348 23.8948 28.4804 23.7072 28.2929C23.5197 28.1054 23.2653 28 23.0001 28H19.0001V20H27.5561C28.2115 19.9918 28.8369 19.724 29.2951 19.2553C29.7532 18.7867 30.0068 18.1554 30.0001 17.5V8.5C30.0068 7.84461 29.7532 7.21333 29.2951 6.74465C28.8369 6.27598 28.2115 6.00818 27.5561 6ZM15.0001 4H17.0001V6H15.0001V4ZM17.0001 28H15.0001V20H17.0001V28ZM28.0001 17.5C28.007 17.625 27.9642 17.7477 27.881 17.8414C27.7979 17.935 27.6811 17.992 27.5561 18H4.44413C4.31916 17.992 4.20239 17.935 4.11924 17.8414C4.03609 17.7477 3.99328 17.625 4.00013 17.5V8.5C3.99328 8.37496 4.03609 8.25227 4.11924 8.15864C4.20239 8.065 4.31916 8.00799 4.44413 8H27.5561C27.6811 8.00799 27.7979 8.065 27.881 8.15864C27.9642 8.25227 28.007 8.37496 28.0001 8.5V17.5Z" fill="black"/>
<path d="M6.1772 16V10.1818H8.14311C8.59766 10.1818 8.97076 10.2595 9.26243 10.4148C9.5541 10.5682 9.77 10.7794 9.91016 11.0483C10.0503 11.3172 10.1204 11.6231 10.1204 11.9659C10.1204 12.3087 10.0503 12.6127 9.91016 12.8778C9.77 13.143 9.55504 13.3513 9.26527 13.5028C8.9755 13.6525 8.60523 13.7273 8.15447 13.7273H6.56357V13.0909H8.13175C8.44235 13.0909 8.69235 13.0455 8.88175 12.9545C9.07304 12.8636 9.21129 12.7348 9.29652 12.5682C9.38364 12.3996 9.4272 12.1989 9.4272 11.9659C9.4272 11.733 9.38364 11.5294 9.29652 11.3551C9.2094 11.1809 9.07019 11.0464 8.87891 10.9517C8.68762 10.8551 8.43478 10.8068 8.12038 10.8068H6.88175V16H6.1772ZM8.91584 13.3864L10.3477 16H9.52947L8.12038 13.3864H8.91584ZM11.2944 16V10.1818H14.8058V10.8068H11.9989V12.7727H14.6239V13.3977H11.9989V15.375H14.8512V16H11.2944ZM20.6893 10.1818V16H20.0075L16.837 11.4318H16.7802V16H16.0756V10.1818H16.7575L19.9393 14.7614H19.9961V10.1818H20.6893ZM21.7809 10.8068V10.1818H26.1445V10.8068H24.315V16H23.6104V10.8068H21.7809Z" fill="black"/>
</svg>
