<svg width="24" height="24" viewBox="0 0 24 24" fill="none" xmlns="http://www.w3.org/2000/svg">
<g clip-path="url(#clip0_1021_1653)">
<path d="M8.66667 22H15.3333M8.66667 22V16.4444M8.66667 22H2.66667C2.48986 22 2.32029 21.9298 2.19526 21.8047C2.07024 21.6797 2 21.5101 2 21.3333V17.1111C2 16.9343 2.07024 16.7647 2.19526 16.6397C2.32029 16.5147 2.48986 16.4444 2.66667 16.4444H8.66667M15.3333 22V8.66667M15.3333 22H21.3333C21.5101 22 21.6797 21.9298 21.8047 21.8047C21.9298 21.6797 22 21.5101 22 21.3333V2.66667C22 2.48986 21.9298 2.32029 21.8047 2.19526C21.6797 2.07024 21.5101 2 21.3333 2H16C15.8232 2 15.6536 2.07024 15.5286 2.19526C15.4036 2.32029 15.3333 2.48986 15.3333 2.66667V8.66667M8.66667 16.4444V9.33333C8.66667 9.15652 8.7369 8.98695 8.86193 8.86193C8.98695 8.7369 9.15652 8.66667 9.33333 8.66667H15.3333" stroke="#6A6A6A" stroke-width="2.04222"/>
</g>
<defs>
<clipPath id="clip0_1021_1653">
<rect width="24" height="24" fill="white"/>
</clipPath>
</defs>
</svg>
