<svg width="20" height="20" viewBox="0 0 20 20" fill="none" xmlns="http://www.w3.org/2000/svg">
<path fill-rule="evenodd" clip-rule="evenodd" d="M3.403 17.0714C3.24367 17.0714 3.09087 17.0037 2.9782 16.8831C2.86554 16.7626 2.80225 16.5991 2.80225 16.4286V3.57143C2.80225 3.40093 2.86554 3.23742 2.9782 3.11686C3.09087 2.9963 3.24367 2.92857 3.403 2.92857H14.5169C14.7559 2.92857 14.9851 2.82698 15.154 2.64614C15.323 2.4653 15.418 2.22003 15.418 1.96429C15.418 1.70854 15.323 1.46327 15.154 1.28243C14.9851 1.10159 14.7559 1 14.5169 1H3.403C2.76568 1 2.15447 1.27092 1.70382 1.75315C1.25317 2.23539 1 2.88944 1 3.57143V16.4286C1 17.1106 1.25317 17.7646 1.70382 18.2468C2.15447 18.7291 2.76568 19 3.403 19H15.418C16.0553 19 16.6665 18.7291 17.1172 18.2468C17.5678 17.7646 17.821 17.1106 17.821 16.4286V12.25C17.821 11.9943 17.726 11.749 17.557 11.5681C17.3881 11.3873 17.1588 11.2857 16.9199 11.2857C16.6809 11.2857 16.4517 11.3873 16.2827 11.5681C16.1137 11.749 16.0187 11.9943 16.0187 12.25V16.4286C16.0187 16.5991 15.9554 16.7626 15.8428 16.8831C15.7301 17.0037 15.5773 17.0714 15.418 17.0714H3.403ZM18.7581 5.73143C18.9173 5.54863 19.004 5.30686 18.9999 5.05704C18.9957 4.80723 18.9012 4.56887 18.7361 4.3922C18.571 4.21553 18.3482 4.11433 18.1148 4.10992C17.8813 4.10551 17.6554 4.19824 17.4846 4.36857L10.8066 11.5133L8.55622 9.02414C8.47412 8.93234 8.37586 8.8588 8.26711 8.80776C8.15836 8.75673 8.04125 8.7292 7.92252 8.72675C7.80379 8.72431 7.68578 8.747 7.57528 8.79353C7.46477 8.84005 7.36395 8.90949 7.27861 8.99785C7.19326 9.08621 7.12508 9.19175 7.07798 9.3084C7.03088 9.42506 7.00579 9.55052 7.00416 9.67758C7.00252 9.80464 7.02437 9.9308 7.06845 10.0488C7.11253 10.1668 7.17797 10.2743 7.26101 10.3651L10.1482 13.5589C10.2313 13.6511 10.3307 13.7246 10.4406 13.7753C10.5506 13.8259 10.6688 13.8526 10.7885 13.8538C10.9082 13.855 11.0269 13.8307 11.1377 13.7822C11.2485 13.7338 11.3491 13.6622 11.4338 13.5717L18.7581 5.73143Z" fill="#0DB7CE"/>
</svg>
