<svg width="24" height="24" viewBox="0 0 24 24" fill="none" xmlns="http://www.w3.org/2000/svg">
<g clip-path="url(#clip0_1086_1975)">
<path d="M9.78003 9.5332C11.9892 9.5332 13.78 7.74234 13.78 5.5332C13.78 3.32406 11.9892 1.5332 9.78003 1.5332C7.57089 1.5332 5.78003 3.32406 5.78003 5.5332C5.78003 7.74234 7.57089 9.5332 9.78003 9.5332Z" fill="#6A6A6A"/>
<path d="M10.96 21.2133C10.7397 20.9954 10.596 20.7119 10.5503 20.4054C10.5046 20.099 10.5595 19.7859 10.7067 19.5133L11.06 18.8466L10.3334 18.6266C10.037 18.5338 9.77907 18.347 9.5986 18.0943C9.41812 17.8416 9.325 17.537 9.33337 17.2266V15.8599C9.33281 15.5509 9.43168 15.2499 9.61536 15.0014C9.79904 14.7529 10.0578 14.5701 10.3534 14.4799L11.08 14.2599L10.7334 13.5933C10.5905 13.3243 10.5361 13.0171 10.578 12.7155C10.6199 12.4138 10.7559 12.1331 10.9667 11.9133C10.4538 11.846 9.93729 11.8104 9.42004 11.8066C7.89225 11.7706 6.37536 12.0722 4.97753 12.6899C3.57971 13.3076 2.33541 14.2261 1.33337 15.3799V20.5466C1.33337 20.7234 1.40361 20.893 1.52864 21.018C1.65366 21.143 1.82323 21.2133 2.00004 21.2133H10.96Z" fill="#6A6A6A"/>
<path d="M22.4666 15.6399L21.1333 15.2399C21.0409 14.9106 20.9112 14.593 20.7466 14.2932L21.4133 13.0532C21.4391 13.0072 21.4485 12.9538 21.44 12.9017C21.4315 12.8497 21.4057 12.802 21.3666 12.7665L20.4 11.7932C20.3627 11.757 20.3153 11.733 20.264 11.7247C20.2127 11.7163 20.1601 11.724 20.1133 11.7465L18.88 12.4132C18.5764 12.2483 18.257 12.1143 17.9266 12.0132L17.52 10.6799C17.5021 10.6307 17.4694 10.5883 17.4264 10.5584C17.3834 10.5286 17.3323 10.5128 17.28 10.5132H15.8933C15.8413 10.5146 15.791 10.5321 15.7493 10.5631C15.7076 10.5941 15.6764 10.6372 15.66 10.6865L15.26 12.0199C14.9232 12.1178 14.5988 12.2543 14.2933 12.4265L13.0866 11.7599C13.0397 11.7349 12.9862 11.7254 12.9335 11.7326C12.8809 11.7397 12.8318 11.7633 12.7933 11.7999L11.8133 12.7599C11.7747 12.797 11.7493 12.8458 11.7409 12.8987C11.7324 12.9516 11.7415 13.0059 11.7666 13.0532L12.4333 14.2665C12.2547 14.5676 12.1094 14.8873 12 15.2199L10.6666 15.6265C10.6162 15.6411 10.5719 15.6718 10.5406 15.714C10.5093 15.7561 10.4927 15.8074 10.4933 15.8599V17.2265C10.4927 17.279 10.5093 17.3303 10.5406 17.3724C10.5719 17.4146 10.6162 17.4453 10.6666 17.4599L12 17.8665C12.0999 18.193 12.234 18.5081 12.4 18.8065L11.7333 20.0732C11.7082 20.1205 11.6991 20.1747 11.7075 20.2277C11.716 20.2806 11.7414 20.3293 11.78 20.3665L12.7733 21.3332C12.8118 21.3698 12.8609 21.3933 12.9135 21.4005C12.9662 21.4077 13.0197 21.3981 13.0666 21.3732L14.3133 20.7065C14.61 20.8661 14.9229 20.9935 15.2466 21.0865L15.6466 22.4532C15.6634 22.5036 15.6956 22.5475 15.7387 22.5786C15.7818 22.6097 15.8335 22.6264 15.8866 22.6265H17.2533C17.3053 22.6251 17.3556 22.6077 17.3973 22.5767C17.439 22.5456 17.4702 22.5025 17.4866 22.4532L17.8866 21.0865C18.2065 20.9946 18.5151 20.8672 18.8066 20.7065L20.0666 21.3732C20.1135 21.3981 20.1671 21.4077 20.2198 21.4005C20.2724 21.3933 20.3214 21.3698 20.36 21.3332L21.3333 20.3665C21.3699 20.328 21.3934 20.2789 21.4006 20.2263C21.4078 20.1737 21.3982 20.1201 21.3733 20.0732L20.7066 18.8199C20.8661 18.5278 20.9935 18.2193 21.0866 17.8999L22.42 17.4932C22.4701 17.4771 22.5141 17.4461 22.5462 17.4045C22.5784 17.3628 22.5971 17.3124 22.6 17.2599V15.8799C22.6016 15.8315 22.59 15.7837 22.5666 15.7414C22.5431 15.6991 22.5085 15.664 22.4666 15.6399ZM16.58 18.7865C16.1393 18.7878 15.7081 18.6584 15.3411 18.4145C14.974 18.1706 14.6876 17.8233 14.5181 17.4166C14.3485 17.0098 14.3034 16.5619 14.3886 16.1296C14.4738 15.6972 14.6853 15.2998 14.9965 14.9877C15.3076 14.6757 15.7043 14.4629 16.1364 14.3765C16.5686 14.29 17.0166 14.3337 17.4239 14.5021C17.8311 14.6704 18.1793 14.9558 18.4242 15.3221C18.6692 15.6884 18.8 16.1192 18.8 16.5599C18.8 17.1493 18.5663 17.7146 18.1502 18.132C17.734 18.5494 17.1694 18.7848 16.58 18.7865Z" fill="#6A6A6A"/>
</g>
<defs>
<clipPath id="clip0_1086_1975">
<rect width="24" height="24" fill="white"/>
</clipPath>
</defs>
</svg>
