<svg width="20" height="20" viewBox="0 0 20 20" fill="none" xmlns="http://www.w3.org/2000/svg">
<path d="M1.216 13.8471C1.36 13.9882 1.54 14.0588 1.72 14.0588C1.9 14.0588 2.08 13.9882 2.224 13.8471L5.14 10.9882L6.976 12.7882C7.264 13.0706 7.696 13.0706 7.984 12.7882L17.56 3.4V4.88235C17.56 5.27059 17.884 5.58824 18.28 5.58824C18.676 5.58824 19 5.27059 19 4.88235V1.70588C19 1.31765 18.676 1 18.28 1H15.04C14.644 1 14.32 1.31765 14.32 1.70588C14.32 2.09412 14.644 2.41176 15.04 2.41176H16.552L7.48 11.3059L5.644 9.50588C5.356 9.22353 4.924 9.22353 4.636 9.50588L1.216 12.8588C0.928 13.1412 0.928 13.5647 1.216 13.8471Z" fill="#3B0086"/>
<path d="M16.8389 17.2353V10.1765C16.8389 9.18824 16.0469 8.41176 15.0389 8.41176C14.0309 8.41176 13.2389 9.18824 13.2389 10.1765V17.2353C13.2389 18.2235 14.0309 19 15.0389 19C16.0469 19 16.8389 18.2235 16.8389 17.2353ZM14.6789 17.2353V10.1765C14.6789 9.96471 14.8229 9.82353 15.0389 9.82353C15.2549 9.82353 15.3989 9.96471 15.3989 10.1765V17.2353C15.3989 17.4471 15.2549 17.5882 15.0389 17.5882C14.8229 17.5882 14.6789 17.4471 14.6789 17.2353ZM12.5189 17.2353V14.4118C12.5189 13.4235 11.7269 12.6471 10.7189 12.6471C9.71091 12.6471 8.91891 13.4235 8.91891 14.4118V17.2353C8.91891 18.2235 9.71091 19 10.7189 19C11.7269 19 12.5189 18.2235 12.5189 17.2353ZM10.3589 17.2353V14.4118C10.3589 14.2 10.5029 14.0588 10.7189 14.0588C10.9349 14.0588 11.0789 14.2 11.0789 14.4118V17.2353C11.0789 17.4471 10.9349 17.5882 10.7189 17.5882C10.5029 17.5882 10.3589 17.4471 10.3589 17.2353ZM8.19891 17.2353V16.1765C8.19891 15.1882 7.40691 14.4118 6.39891 14.4118C5.39091 14.4118 4.59891 15.1882 4.59891 16.1765V17.2353C4.59891 18.2235 5.39091 19 6.39891 19C7.40691 19 8.19891 18.2235 8.19891 17.2353ZM6.03891 17.2353V16.1765C6.03891 15.9647 6.18291 15.8235 6.39891 15.8235C6.61491 15.8235 6.75891 15.9647 6.75891 16.1765V17.2353C6.75891 17.4471 6.61491 17.5882 6.39891 17.5882C6.18291 17.5882 6.03891 17.4471 6.03891 17.2353ZM4.59891 4.52941H8.55891C8.95491 4.52941 9.27891 4.21176 9.27891 3.82353C9.27891 3.43529 8.95491 3.11765 8.55891 3.11765H4.59891C4.20291 3.11765 3.87891 3.43529 3.87891 3.82353C3.87891 4.21176 4.20291 4.52941 4.59891 4.52941ZM4.59891 2.41176H6.03891C6.43491 2.41176 6.75891 2.09412 6.75891 1.70588C6.75891 1.31765 6.43491 1 6.03891 1H4.59891C4.20291 1 3.87891 1.31765 3.87891 1.70588C3.87891 2.09412 4.20291 2.41176 4.59891 2.41176ZM11.3309 3.43529C11.2949 3.4 11.2949 3.36471 11.2589 3.32941C10.9709 3.08235 10.5029 3.08235 10.2509 3.32941C10.2149 3.36471 10.1789 3.4 10.1789 3.43529C10.1429 3.47059 10.1429 3.50588 10.1069 3.57647C10.0709 3.61176 10.0709 3.64706 10.0709 3.71765V4C10.0709 4.03529 10.1069 4.07059 10.1069 4.14118C10.1069 4.17647 10.1429 4.21177 10.1789 4.24706C10.2149 4.28235 10.2149 4.31765 10.2509 4.35294C10.3589 4.45882 10.5389 4.52941 10.7189 4.52941C10.8989 4.52941 11.0789 4.45882 11.2229 4.31765C11.2589 4.28235 11.2949 4.24706 11.2949 4.21176C11.3309 4.17647 11.3309 4.14118 11.3669 4.10588C11.4029 4.07059 11.4029 4.03529 11.4029 3.96471V3.68235C11.4029 3.64706 11.3669 3.61176 11.3669 3.54118C11.3669 3.50588 11.3309 3.47059 11.3309 3.43529Z" fill="#3B0086"/>
</svg>
