<svg width="26" height="26" viewBox="0 0 26 26" fill="none" xmlns="http://www.w3.org/2000/svg">
<path d="M21.731 8.50966L15.8648 2.64341C15.5603 2.33858 15.1473 2.16713 14.7164 2.16675H5.41601C4.98504 2.16675 4.57171 2.33795 4.26697 2.6427C3.96222 2.94745 3.79102 3.36077 3.79102 3.79175V6.50008C3.79102 6.64374 3.84808 6.78151 3.94967 6.88309C4.05125 6.98468 4.18902 7.04174 4.33268 7.04174C4.47634 7.04174 4.61412 6.98468 4.7157 6.88309C4.81728 6.78151 4.87435 6.64374 4.87435 6.50008V3.79175C4.87435 3.64809 4.93142 3.51031 5.033 3.40873C5.13458 3.30715 5.27236 3.25008 5.41601 3.25008H14.6243V8.12508C14.6243 8.55605 14.7955 8.96938 15.1003 9.27412C15.405 9.57887 15.8184 9.75007 16.2493 9.75007H21.1243V22.2084C21.1243 22.3521 21.0673 22.4898 20.9657 22.5914C20.8641 22.693 20.7263 22.7501 20.5827 22.7501H5.41601C5.27236 22.7501 5.13458 22.693 5.033 22.5914C4.93142 22.4898 4.87435 22.3521 4.87435 22.2084V8.66674C4.87435 8.52308 4.81728 8.38531 4.7157 8.28373C4.61412 8.18214 4.47634 8.12508 4.33268 8.12508C4.18902 8.12508 4.05125 8.18214 3.94967 8.28373C3.84808 8.38531 3.79102 8.52308 3.79102 8.66674V22.2084C3.79102 22.6394 3.96222 23.0527 4.26697 23.3574C4.57171 23.6622 4.98504 23.8334 5.41601 23.8334H20.5827C21.0137 23.8334 21.427 23.6622 21.7317 23.3574C22.0365 23.0527 22.2077 22.6394 22.2077 22.2084V9.65799C22.2073 9.22716 22.0358 8.81411 21.731 8.50966ZM15.7077 8.12508V4.01383L20.3606 8.66674H16.2493C16.1057 8.66674 15.9679 8.60967 15.8663 8.50809C15.7647 8.40651 15.7077 8.26873 15.7077 8.12508ZM14.6243 13.0001V11.9167C14.6243 11.7731 14.5673 11.6353 14.4657 11.5337C14.3641 11.4321 14.2263 11.3751 14.0827 11.3751H11.916C11.7724 11.3751 11.6346 11.4321 11.533 11.5337C11.4314 11.6353 11.3743 11.7731 11.3743 11.9167V13.0001H9.74935C9.60569 13.0001 9.46791 13.0571 9.36633 13.1587C9.26475 13.2603 9.20768 13.3981 9.20768 13.5417C9.20768 13.6854 9.26475 13.8232 9.36633 13.9248C9.46791 14.0263 9.60569 14.0834 9.74935 14.0834H9.7981L10.2043 18.563C10.241 18.9681 10.4282 19.3448 10.7291 19.6186C11.0299 19.8924 11.4225 20.0434 11.8293 20.0417H14.1802C14.587 20.0434 14.9796 19.8924 15.2805 19.6186C15.5813 19.3448 15.7686 18.9681 15.8052 18.563L16.2006 14.0834H16.2493C16.393 14.0834 16.5308 14.0263 16.6324 13.9248C16.7339 13.8232 16.791 13.6854 16.791 13.5417C16.791 13.3981 16.7339 13.2603 16.6324 13.1587C16.5308 13.0571 16.393 13.0001 16.2493 13.0001H14.6243ZM12.4577 12.4584H13.541V13.0001H12.4577V12.4584ZM14.7164 18.4655C14.7042 18.6005 14.6418 18.7261 14.5415 18.8174C14.4412 18.9086 14.3104 18.959 14.1748 18.9584H11.8239C11.6883 18.959 11.5575 18.9086 11.4572 18.8174C11.3569 18.7261 11.2945 18.6005 11.2823 18.4655L10.8868 14.0834H15.1118L14.7164 18.4655ZM12.4577 17.8751V15.7084C12.4577 15.5647 12.5147 15.427 12.6163 15.3254C12.7179 15.2238 12.8557 15.1667 12.9993 15.1667C13.143 15.1667 13.2808 15.2238 13.3824 15.3254C13.4839 15.427 13.541 15.5647 13.541 15.7084V17.8751C13.541 18.0187 13.4839 18.1565 13.3824 18.2581C13.2808 18.3597 13.143 18.4167 12.9993 18.4167C12.8557 18.4167 12.7179 18.3597 12.6163 18.2581C12.5147 18.1565 12.4577 18.0187 12.4577 17.8751Z" fill="#990000"/>
</svg>
