<svg width="46" height="45" viewBox="0 0 46 45" fill="none" xmlns="http://www.w3.org/2000/svg">
<path d="M37.7882 14.636L27.7318 4.57955C27.2099 4.05698 26.5018 3.76306 25.7632 3.76241H9.81964C9.08082 3.76241 8.37226 4.0559 7.84984 4.57832C7.32741 5.10074 7.03392 5.8093 7.03392 6.54812V11.191C7.03392 11.4372 7.13175 11.6734 7.30589 11.8476C7.48003 12.0217 7.71622 12.1195 7.96249 12.1195C8.20876 12.1195 8.44495 12.0217 8.61909 11.8476C8.79323 11.6734 8.89106 11.4372 8.89106 11.191V6.54812C8.89106 6.30184 8.9889 6.06566 9.16304 5.89152C9.33718 5.71738 9.57336 5.61955 9.81964 5.61955H25.6054V13.9767C25.6054 14.7155 25.8988 15.4241 26.4213 15.9465C26.9437 16.4689 27.6523 16.7624 28.3911 16.7624H36.7482V38.1195C36.7482 38.3658 36.6504 38.602 36.4762 38.7761C36.3021 38.9502 36.0659 39.0481 35.8196 39.0481H9.81964C9.57336 39.0481 9.33718 38.9502 9.16304 38.7761C8.9889 38.602 8.89106 38.3658 8.89106 38.1195V14.9053C8.89106 14.659 8.79323 14.4228 8.61909 14.2487C8.44495 14.0745 8.20876 13.9767 7.96249 13.9767C7.71622 13.9767 7.48003 14.0745 7.30589 14.2487C7.13175 14.4228 7.03392 14.659 7.03392 14.9053V38.1195C7.03392 38.8583 7.32741 39.5669 7.84984 40.0893C8.37226 40.6117 9.08082 40.9052 9.81964 40.9052H35.8196C36.5585 40.9052 37.267 40.6117 37.7894 40.0893C38.3119 39.5669 38.6054 38.8583 38.6054 38.1195V16.6045C38.6047 15.866 38.3108 15.1579 37.7882 14.636ZM27.4625 13.9767V6.92883L35.4389 14.9053H28.3911C28.1448 14.9053 27.9086 14.8074 27.7345 14.6333C27.5603 14.4591 27.4625 14.223 27.4625 13.9767ZM25.6054 22.3338V20.4767C25.6054 20.2304 25.5075 19.9942 25.3334 19.8201C25.1592 19.6459 24.9231 19.5481 24.6768 19.5481H20.9625C20.7162 19.5481 20.48 19.6459 20.3059 19.8201C20.1318 19.9942 20.0339 20.2304 20.0339 20.4767V22.3338H17.2482C17.0019 22.3338 16.7657 22.4316 16.5916 22.6058C16.4175 22.7799 16.3196 23.0161 16.3196 23.2624C16.3196 23.5087 16.4175 23.7448 16.5916 23.919C16.7657 24.0931 17.0019 24.191 17.2482 24.191H17.3318L18.0282 31.8702C18.091 32.5648 18.4119 33.2105 18.9277 33.6799C19.4435 34.1492 20.1166 34.4081 20.8139 34.4052H24.8439C25.5413 34.4081 26.2143 34.1492 26.7301 33.6799C27.2459 33.2105 27.5669 32.5648 27.6296 31.8702L28.3075 24.191H28.3911C28.6373 24.191 28.8735 24.0931 29.0477 23.919C29.2218 23.7448 29.3196 23.5087 29.3196 23.2624C29.3196 23.0161 29.2218 22.7799 29.0477 22.6058C28.8735 22.4316 28.6373 22.3338 28.3911 22.3338H25.6054ZM21.8911 21.4052H23.7482V22.3338H21.8911V21.4052ZM25.7632 31.7031C25.7423 31.9346 25.6353 32.1498 25.4634 32.3063C25.2914 32.4628 25.0671 32.549 24.8346 32.5481H20.8046C20.5722 32.549 20.3478 32.4628 20.1759 32.3063C20.004 32.1498 19.897 31.9346 19.8761 31.7031L19.1982 24.191H26.4411L25.7632 31.7031ZM21.8911 30.6909V26.9767C21.8911 26.7304 21.9889 26.4942 22.163 26.3201C22.3372 26.1459 22.5734 26.0481 22.8196 26.0481C23.0659 26.0481 23.3021 26.1459 23.4762 26.3201C23.6504 26.4942 23.7482 26.7304 23.7482 26.9767V30.6909C23.7482 30.9372 23.6504 31.1734 23.4762 31.3475C23.3021 31.5217 23.0659 31.6195 22.8196 31.6195C22.5734 31.6195 22.3372 31.5217 22.163 31.3475C21.9889 31.1734 21.8911 30.9372 21.8911 30.6909Z" fill="#8D9900"/>
</svg>
