<svg width="20" height="20" viewBox="0 0 20 20" fill="none" xmlns="http://www.w3.org/2000/svg">
<g clip-path="url(#clip0_2050_1881)">
<path d="M9.07379 2.80564C10.2772 2.80454 11.4539 3.16038 12.455 3.82816C13.4561 4.49594 14.2367 5.44564 14.698 6.55713C15.1593 7.66861 15.2806 8.89194 15.0465 10.0724C14.8124 11.2528 14.2334 12.3372 13.3829 13.1886C12.5323 14.0399 11.4484 14.6198 10.2682 14.855C9.08798 15.0902 7.86454 14.97 6.75264 14.5098C5.64073 14.0495 4.69031 13.2698 4.02162 12.2693C3.35293 11.2687 2.99601 10.0924 2.99601 8.88897C3.00331 7.27878 3.64581 5.73653 4.78388 4.59742C5.92195 3.45831 7.4636 2.8144 9.07379 2.80564ZM9.07379 1.66675C7.64537 1.66675 6.24902 2.09032 5.06134 2.88391C3.87365 3.6775 2.94796 4.80546 2.40132 6.12514C1.85469 7.44483 1.71167 8.89698 1.99034 10.298C2.26901 11.6989 2.95686 12.9858 3.96691 13.9959C4.97695 15.0059 6.26383 15.6937 7.6648 15.9724C9.06578 16.2511 10.5179 16.1081 11.8376 15.5614C13.1573 15.0148 14.2853 14.0891 15.0788 12.9014C15.8724 11.7137 16.296 10.3174 16.296 8.88897C16.296 6.97352 15.5351 5.13652 14.1807 3.78209C12.8262 2.42766 10.9892 1.66675 9.07379 1.66675Z" fill="#0283CB"/>
<path d="M19.4458 18.4945L15.3514 14.3723L14.5625 15.1556L18.6569 19.2779C18.7084 19.3297 18.7695 19.3708 18.8369 19.399C18.9042 19.4272 18.9764 19.4418 19.0494 19.4421C19.1224 19.4423 19.1948 19.4282 19.2623 19.4005C19.3298 19.3728 19.3913 19.3321 19.4431 19.2806C19.4949 19.2292 19.536 19.1681 19.5642 19.1007C19.5924 19.0334 19.607 18.9612 19.6073 18.8882C19.6075 18.8152 19.5934 18.7428 19.5657 18.6753C19.538 18.6078 19.4973 18.5463 19.4458 18.4945Z" fill="#0283CB"/>
</g>
<defs>
<clipPath id="clip0_2050_1881">
<rect width="20" height="20" fill="white"/>
</clipPath>
</defs>
</svg>
