<svg width="24" height="24" viewBox="0 0 24 24" fill="none" xmlns="http://www.w3.org/2000/svg">
<path d="M9 2V6.69632H7V2C4.16 2.45911 2 4.81205 2 7.6528C2 9.77618 3.21 11.6222 5 12.6169V21.0435C5 21.5696 5.45 22 6 22H10C10.55 22 11 21.5696 11 21.0435V12.6169C12.79 11.6222 14 9.77618 14 7.6528C14 4.81205 11.84 2.45911 9 2ZM10 10.9622L9 11.517V20.087H7V11.517L6 10.9622C4.77 10.2736 4 9.011 4 7.6528C4 6.69632 4.37 5.79723 5 5.11812V8.60928H11V5.11812C11.63 5.79723 12 6.69632 12 7.6528C12 9.011 11.23 10.2736 10 10.9622ZM20.94 18.1167C20.9808 17.8343 20.9808 17.5478 20.94 17.2654L21.91 16.5672C21.9543 16.5364 21.985 16.4909 21.9961 16.4396C22.0072 16.3883 21.9979 16.3349 21.97 16.2898L21.05 14.7977C21 14.7021 20.87 14.6638 20.76 14.7021L19.61 15.1325C19.37 14.9699 19.12 14.8264 18.83 14.7116L18.66 13.5734C18.6496 13.5223 18.621 13.4763 18.579 13.4432C18.5371 13.41 18.4844 13.3918 18.43 13.3917H16.58C16.46 13.3917 16.36 13.4682 16.34 13.5734L16.17 14.7116C15.88 14.8264 15.63 14.9699 15.39 15.1325L14.24 14.7021C14.14 14.6638 14 14.7021 13.96 14.7977L13.03 16.2898C12.97 16.3855 13 16.5002 13.09 16.5672L14.06 17.2654C14.05 17.4089 14.03 17.5524 14.03 17.6958C14.03 17.8393 14.05 17.9732 14.06 18.1167L13.09 18.8245C13.0457 18.8553 13.015 18.9008 13.0039 18.9521C12.9928 19.0034 13.0021 19.0568 13.03 19.1019L13.96 20.594C14 20.6896 14.14 20.7183 14.24 20.6896L15.39 20.2496C15.63 20.4218 15.88 20.5653 16.17 20.6801L16.34 21.8183C16.36 21.9235 16.46 22 16.58 22H18.43C18.54 22 18.64 21.9235 18.66 21.8183L18.83 20.6801C19.12 20.5653 19.37 20.4218 19.61 20.2496L20.76 20.6896C20.87 20.7183 21 20.6896 21.05 20.594L21.97 19.1019C21.9979 19.0568 22.0072 19.0034 21.9961 18.9521C21.985 18.9008 21.9543 18.8553 21.91 18.8245L20.94 18.1167ZM17.5 19.1306C16.67 19.1306 16 18.4897 16 17.6958C16 16.902 16.67 16.2611 17.5 16.2611C18.33 16.2611 19 16.902 19 17.6958C19 18.4897 18.33 19.1306 17.5 19.1306Z" fill="black"/>
</svg>
