<svg width="32" height="32" viewBox="0 0 32 32" fill="none" xmlns="http://www.w3.org/2000/svg">
<path d="M22.125 24.125V25.75H24.1238C23.6696 26.2624 23.1116 26.6723 22.4868 26.9525C21.862 27.2327 21.1847 27.3767 20.5 27.375C19.2075 27.3735 17.9684 26.8594 17.0545 25.9455C16.1406 25.0316 15.6265 23.7925 15.625 22.5H14C13.9974 23.8217 14.3985 25.1127 15.1497 26.2001C15.901 27.2876 16.9664 28.1196 18.2036 28.5848C19.4407 29.0501 20.7904 29.1263 22.072 28.8034C23.3537 28.4804 24.5061 27.7737 25.375 26.7778V29H27V24.125H22.125ZM20.5 16C19.5765 16.0048 18.6645 16.2053 17.8242 16.5883C16.9839 16.9714 16.2343 17.5282 15.625 18.2222V16H14V20.875H18.875V19.25H16.8763C17.3304 18.7376 17.8885 18.3277 18.5132 18.0475C19.138 17.7673 19.8153 17.6233 20.5 17.625C21.7925 17.6265 23.0316 18.1406 23.9455 19.0545C24.8594 19.9684 25.3735 21.2075 25.375 22.5H27C26.9978 20.7767 26.3123 19.1247 25.0938 17.9062C23.8753 16.6877 22.2233 16.0022 20.5 16Z" fill="black"/>
<path d="M12.1667 27.1429H6.66667V23.4286H8.5V21.5714H6.66667V16.9286H8.5V15.0714H6.66667V10.4286H8.5V8.57143H6.66667V4.85714H23.1667V12.2857H25V4.85714C25 4.3646 24.8068 3.89223 24.463 3.54394C24.1192 3.19566 23.6529 3 23.1667 3H6.66667C6.18044 3 5.71412 3.19566 5.3703 3.54394C5.02649 3.89223 4.83333 4.3646 4.83333 4.85714V8.57143H3V10.4286H4.83333V15.0714H3V16.9286H4.83333V21.5714H3V23.4286H4.83333V27.1429C4.83333 27.6354 5.02649 28.1078 5.3703 28.4561C5.71412 28.8043 6.18044 29 6.66667 29H12.1667V27.1429Z" fill="black"/>
<path d="M12.1371 8.43537C12.1205 8.25308 12.0468 8.11139 11.9158 8.0103C11.7866 7.90755 11.6018 7.85618 11.3615 7.85618C11.2024 7.85618 11.0698 7.87689 10.9638 7.91832C10.8577 7.95975 10.7782 8.01693 10.7251 8.08984C10.6721 8.1611 10.6448 8.24313 10.6431 8.33594C10.6398 8.41217 10.6547 8.47928 10.6879 8.53729C10.7227 8.59529 10.7724 8.64666 10.837 8.69141C10.9033 8.73449 10.9828 8.77261 11.0756 8.80575C11.1684 8.8389 11.2728 8.8679 11.3888 8.89276L11.8263 8.99219C12.0782 9.04688 12.3003 9.11979 12.4925 9.21094C12.6864 9.30208 12.8488 9.41063 12.9798 9.53658C13.1123 9.66252 13.2126 9.80753 13.2805 9.97159C13.3485 10.1357 13.3833 10.3196 13.3849 10.5234C13.3833 10.8449 13.3021 11.1209 13.1413 11.3512C12.9806 11.5816 12.7494 11.758 12.4478 11.8807C12.1478 12.0033 11.7857 12.0646 11.3615 12.0646C10.9356 12.0646 10.5644 12.0008 10.2479 11.8732C9.93134 11.7456 9.68525 11.5517 9.50959 11.2915C9.33393 11.0314 9.24361 10.7024 9.23864 10.3047H10.4169C10.4268 10.4688 10.4708 10.6055 10.5487 10.7148C10.6265 10.8242 10.7334 10.9071 10.8693 10.9634C11.0069 11.0198 11.166 11.0479 11.3466 11.0479C11.5123 11.0479 11.6532 11.0256 11.7692 10.9808C11.8868 10.9361 11.9772 10.8739 12.0401 10.7944C12.1031 10.7148 12.1354 10.6237 12.1371 10.521C12.1354 10.4248 12.1056 10.3428 12.0476 10.2749C11.9896 10.2053 11.9001 10.1456 11.7791 10.0959C11.6598 10.0445 11.5073 9.99728 11.3217 9.95419L10.7898 9.8299C10.349 9.72881 10.0018 9.56558 9.74822 9.3402C9.49467 9.11316 9.36873 8.80658 9.37038 8.42045C9.36873 8.10559 9.45324 7.82966 9.62393 7.59268C9.79463 7.35571 10.0308 7.17093 10.3324 7.03835C10.634 6.90578 10.9779 6.83949 11.364 6.83949C11.7584 6.83949 12.1006 6.9066 12.3906 7.04084C12.6823 7.17341 12.9085 7.35985 13.0692 7.60014C13.23 7.84044 13.312 8.11884 13.3153 8.43537H12.1371ZM16.3629 6.67045L14.7223 12.7656H13.6857L15.3263 6.67045H16.3629ZM21.1487 6.90909V12H20.1047L18.0787 9.06179H18.0464V12H16.816V6.90909H17.8749L19.8785 9.84233H19.9207V6.90909H21.1487Z" fill="black"/>
</svg>
