<svg width="46" height="45" viewBox="0 0 46 45" fill="none" xmlns="http://www.w3.org/2000/svg">
<path d="M31.212 12.5838H36.9171C37.2622 12.5842 37.5948 12.7126 37.8506 12.9442C38.1064 13.1758 38.2671 13.4941 38.3016 13.8374L39.1512 22.3338H36.3488L35.6524 15.3695H31.212V19.5481C31.212 19.9175 31.0652 20.2718 30.804 20.533C30.5428 20.7942 30.1885 20.941 29.8191 20.941C29.4497 20.941 29.0954 20.7942 28.8342 20.533C28.573 20.2718 28.4262 19.9175 28.4262 19.5481V15.3695H17.2834V19.5481C17.2834 19.9175 17.1366 20.2718 16.8754 20.533C16.6142 20.7942 16.2599 20.941 15.8905 20.941C15.5211 20.941 15.1668 20.7942 14.9056 20.533C14.6444 20.2718 14.4977 19.9175 14.4977 19.5481V15.3695H10.0544L7.82587 37.6553H22.8548V40.441H6.28537C6.09083 40.4408 5.89848 40.3998 5.72073 40.3208C5.54297 40.2417 5.38375 40.1263 5.25332 39.982C5.12288 39.8376 5.02413 39.6676 4.96343 39.4827C4.90273 39.2979 4.88142 39.1024 4.90087 38.9088L7.40802 13.8374C7.44252 13.4941 7.60324 13.1758 7.85903 12.9442C8.11481 12.7126 8.44746 12.5842 8.79252 12.5838H14.4977V11.6116C14.4977 6.78119 18.2194 2.83383 22.8548 2.83383C27.4902 2.83383 31.212 6.78119 31.212 11.6116V12.5866V12.5838ZM28.4262 12.5838V11.6116C28.4262 8.28548 25.9135 5.61955 22.8548 5.61955C19.7961 5.61955 17.2834 8.28548 17.2834 11.6116V12.5866H28.4262V12.5838Z" fill="#0087A5"/>
<path d="M39.5007 33.9874C39.0007 36.4874 37.1157 38.8414 34.4707 39.3674C33.1807 39.6243 31.8425 39.4676 30.6467 38.9197C29.4509 38.3719 28.4584 37.4607 27.8106 36.3159C27.1628 35.1712 26.8926 33.8512 27.0386 32.544C27.1846 31.2368 27.7393 30.009 28.6237 29.0354C30.4377 27.0374 33.5007 26.4874 36.0007 27.4874" stroke="#0087A5" stroke-width="2" stroke-linecap="round" stroke-linejoin="round"/>
<path d="M31.0007 32.9874L33.5007 35.4874L39.5007 28.9874" stroke="#0087A5" stroke-width="2" stroke-linecap="round" stroke-linejoin="round"/>
</svg>
