<svg width="20" height="20" viewBox="0 0 20 20" fill="none" xmlns="http://www.w3.org/2000/svg">
<path d="M3.75 3.75C3.92259 3.75 4.0625 3.61009 4.0625 3.4375C4.0625 3.26491 3.92259 3.125 3.75 3.125C3.57741 3.125 3.4375 3.26491 3.4375 3.4375C3.4375 3.61009 3.57741 3.75 3.75 3.75Z" fill="white"/>
<path d="M5.3125 3.75C5.48509 3.75 5.625 3.61009 5.625 3.4375C5.625 3.26491 5.48509 3.125 5.3125 3.125C5.13991 3.125 5 3.26491 5 3.4375C5 3.61009 5.13991 3.75 5.3125 3.75Z" fill="white"/>
<path d="M6.875 3.75C7.04759 3.75 7.1875 3.61009 7.1875 3.4375C7.1875 3.26491 7.04759 3.125 6.875 3.125C6.70241 3.125 6.5625 3.26491 6.5625 3.4375C6.5625 3.61009 6.70241 3.75 6.875 3.75Z" fill="white"/>
<path d="M16.5625 5H2.1875C2.10462 5 2.02513 4.96708 1.96653 4.90847C1.90792 4.84987 1.875 4.77038 1.875 4.6875C1.875 4.60462 1.90792 4.52513 1.96653 4.46653C2.02513 4.40792 2.10462 4.375 2.1875 4.375H16.5625C16.6454 4.375 16.7249 4.40792 16.7835 4.46653C16.8421 4.52513 16.875 4.60462 16.875 4.6875C16.875 4.77038 16.8421 4.84987 16.7835 4.90847C16.7249 4.96708 16.6454 5 16.5625 5ZM11.5625 13.75C11.4796 13.75 11.4001 13.7171 11.3415 13.6585C11.2829 13.5999 11.25 13.5204 11.25 13.4375V12.1875C11.25 12.1046 11.2829 12.0251 11.3415 11.9665C11.4001 11.9079 11.4796 11.875 11.5625 11.875C11.6454 11.875 11.7249 11.9079 11.7835 11.9665C11.8421 12.0251 11.875 12.1046 11.875 12.1875V13.4375C11.875 13.5204 11.8421 13.5999 11.7835 13.6585C11.7249 13.7171 11.6454 13.75 11.5625 13.75ZM17.2219 16.5625C17.2742 16.6141 17.3066 16.6825 17.3134 16.7557C17.3203 16.8288 17.3011 16.9021 17.2594 16.9625C16.9438 17.394 16.5545 17.7664 16.1094 18.0625C16.0602 18.1011 16 18.123 15.9375 18.125C15.8707 18.1245 15.8059 18.1026 15.7525 18.0626C15.699 18.0225 15.6599 17.9664 15.6406 17.9025C15.6214 17.8385 15.6232 17.7701 15.6457 17.7072C15.6682 17.6444 15.7102 17.5904 15.7656 17.5531C16.145 17.2993 16.478 16.9822 16.75 16.6156C16.7753 16.5783 16.8084 16.5469 16.847 16.5235C16.8857 16.5002 16.9289 16.4855 16.9737 16.4804C17.0185 16.4754 17.0639 16.4801 17.1068 16.4943C17.1496 16.5084 17.1889 16.5317 17.2219 16.5625Z" fill="white"/>
<path d="M18.125 12.7V14.3094C18.1258 14.7915 18.0487 15.2706 17.8969 15.7281C17.8791 15.7778 17.8491 15.8222 17.8096 15.8572C17.7701 15.8921 17.7224 15.9165 17.6709 15.928C17.6195 15.9396 17.5659 15.9379 17.5152 15.9232C17.4646 15.9084 17.4185 15.8811 17.3812 15.8438C17.3422 15.803 17.3148 15.7524 17.3022 15.6974C17.2895 15.6424 17.292 15.585 17.3094 15.5313C17.4356 15.1362 17.4999 14.7241 17.5 14.3094V12.7C17.5053 12.5781 17.4656 12.4584 17.3884 12.3639C17.3111 12.2694 17.2018 12.2066 17.0812 12.1875C17.0154 12.1799 16.9486 12.1866 16.8855 12.2071C16.8224 12.2276 16.7645 12.2614 16.7156 12.3063C16.6671 12.3507 16.6284 12.4048 16.6021 12.4651C16.5757 12.5253 16.5622 12.5905 16.5625 12.6563C16.5625 12.7391 16.5296 12.8186 16.471 12.8772C16.4124 12.9358 16.3329 12.9688 16.25 12.9688C16.1671 12.9688 16.0876 12.9358 16.029 12.8772C15.9704 12.8186 15.9375 12.7391 15.9375 12.6563V12.075C15.9428 11.9531 15.9031 11.8334 15.8259 11.7389C15.7486 11.6444 15.6393 11.5816 15.5187 11.5625C15.4529 11.5549 15.3861 11.5616 15.323 11.5821C15.2599 11.6026 15.202 11.6364 15.1531 11.6813C15.1046 11.7257 15.0659 11.7798 15.0396 11.8401C15.0132 11.9003 14.9997 11.9655 15 12.0313C15 12.1141 14.9671 12.1936 14.9085 12.2522C14.8499 12.3108 14.7704 12.3438 14.6875 12.3438C14.6046 12.3438 14.5251 12.3108 14.4665 12.2522C14.4079 12.1936 14.375 12.1141 14.375 12.0313V11.7625C14.3803 11.6406 14.3406 11.5209 14.2634 11.4264C14.1861 11.3319 14.0768 11.2691 13.9562 11.25C13.8904 11.2424 13.8236 11.2491 13.7605 11.2696C13.6974 11.2901 13.6395 11.3239 13.5906 11.3688C13.5421 11.4132 13.5034 11.4673 13.4771 11.5276C13.4507 11.5878 13.4372 11.653 13.4375 11.7188C13.4375 11.8016 13.4046 11.8811 13.346 11.9397C13.2874 11.9983 13.2079 12.0313 13.125 12.0313C13.0421 12.0313 12.9626 11.9983 12.904 11.9397C12.8454 11.8811 12.8125 11.8016 12.8125 11.7188V8.90625C12.8129 8.84025 12.7993 8.77491 12.7727 8.71452C12.7461 8.65412 12.707 8.60003 12.658 8.55578C12.6091 8.51153 12.5513 8.47812 12.4885 8.45774C12.4257 8.43736 12.3594 8.43046 12.2937 8.4375C12.1732 8.45658 12.0639 8.51936 11.9866 8.61389C11.9094 8.70841 11.8697 8.82805 11.875 8.95V12.1875C11.875 12.2704 11.8421 12.3499 11.7835 12.4085C11.7249 12.4671 11.6454 12.5 11.5625 12.5C11.4796 12.5 11.4001 12.4671 11.3415 12.4085C11.2829 12.3499 11.25 12.2704 11.25 12.1875C11.2501 12.0617 11.2248 11.9372 11.1758 11.8214C11.1267 11.7055 11.0548 11.6008 10.9645 11.5133C10.8741 11.4258 10.767 11.3574 10.6496 11.3122C10.5322 11.267 10.407 11.2458 10.2812 11.25C10.2039 11.2578 10.1322 11.2941 10.0802 11.3519C10.0282 11.4097 9.99961 11.4848 10 11.5625V14.3094C9.99968 14.9511 10.1578 15.5829 10.4604 16.1488C10.7629 16.7146 11.2006 17.197 11.7344 17.5531C11.795 17.602 11.8352 17.6717 11.8472 17.7486C11.8591 17.8256 11.8418 17.9042 11.7988 17.9691C11.7558 18.034 11.6901 18.0805 11.6146 18.0995C11.5391 18.1185 11.4592 18.1087 11.3906 18.0719C10.7718 17.6611 10.264 17.1039 9.9124 16.4497C9.56077 15.7955 9.37617 15.0646 9.375 14.3219V11.5625C9.37466 11.3223 9.46654 11.0911 9.63168 10.9167C9.79682 10.7422 10.0226 10.6378 10.2625 10.625C10.6176 10.6139 10.9659 10.7241 11.25 10.9375V8.95C11.2453 8.67299 11.3428 8.40395 11.5238 8.19417C11.7047 7.98439 11.9566 7.84853 12.2312 7.8125C12.3841 7.79619 12.5388 7.8124 12.6849 7.86006C12.8311 7.90772 12.9656 7.98575 13.0795 8.08903C13.1934 8.19232 13.2842 8.31852 13.3459 8.45936C13.4076 8.6002 13.4388 8.75249 13.4375 8.90625V10.7313C13.6183 10.6445 13.819 10.6078 14.0187 10.625C14.1834 10.6442 14.3416 10.7006 14.4813 10.79C14.6209 10.8793 14.7385 10.9992 14.825 11.1406C14.9643 11.0389 15.1258 10.9718 15.2962 10.945C15.4666 10.9182 15.6409 10.9325 15.8047 10.9865C15.9685 11.0406 16.117 11.133 16.2379 11.256C16.3589 11.379 16.4487 11.5291 16.5 11.6938C16.6965 11.5864 16.9209 11.5406 17.1437 11.5625C17.4184 11.5985 17.6703 11.7344 17.8512 11.9442C18.0322 12.154 18.1297 12.423 18.125 12.7ZM2.1875 8.75C2.10462 8.75 2.02513 8.71708 1.96653 8.65847C1.90792 8.59987 1.875 8.52038 1.875 8.4375V3.125C1.875 2.79348 2.0067 2.47554 2.24112 2.24112C2.47554 2.0067 2.79348 1.875 3.125 1.875H9.0625C9.14538 1.875 9.22487 1.90792 9.28347 1.96653C9.34208 2.02513 9.375 2.10462 9.375 2.1875C9.375 2.27038 9.34208 2.34987 9.28347 2.40847C9.22487 2.46708 9.14538 2.5 9.0625 2.5H3.125C2.95924 2.5 2.80027 2.56585 2.68306 2.68306C2.56585 2.80027 2.5 2.95924 2.5 3.125V8.4375C2.5 8.52038 2.46708 8.59987 2.40847 8.65847C2.34987 8.71708 2.27038 8.75 2.1875 8.75Z" fill="white"/>
<path d="M10 13.4375C10 13.5204 9.96708 13.5999 9.90847 13.6585C9.84987 13.7171 9.77038 13.75 9.6875 13.75H3.125C2.79348 13.75 2.47554 13.6183 2.24112 13.3839C2.0067 13.1495 1.875 12.8315 1.875 12.5V9.6875C1.875 9.60462 1.90792 9.52513 1.96653 9.46653C2.02513 9.40792 2.10462 9.375 2.1875 9.375C2.27038 9.375 2.34987 9.40792 2.40847 9.46653C2.46708 9.52513 2.5 9.60462 2.5 9.6875V12.5C2.5 12.6658 2.56585 12.8247 2.68306 12.9419C2.80027 13.0592 2.95924 13.125 3.125 13.125H9.6875C9.77038 13.125 9.84987 13.1579 9.90847 13.2165C9.96708 13.2751 10 13.3546 10 13.4375Z" fill="white"/>
<path d="M10.625 2.1875C10.625 2.01491 10.4851 1.875 10.3125 1.875C10.1399 1.875 10 2.01491 10 2.1875C10 2.36009 10.1399 2.5 10.3125 2.5C10.4851 2.5 10.625 2.36009 10.625 2.1875Z" fill="white"/>
<path d="M16.875 3.125V12.0312C16.875 12.1141 16.8421 12.1936 16.7835 12.2522C16.7249 12.3108 16.6454 12.3438 16.5625 12.3438C16.4796 12.3438 16.4001 12.3108 16.3415 12.2522C16.2829 12.1936 16.25 12.1141 16.25 12.0312V3.125C16.25 2.95924 16.1842 2.80027 16.0669 2.68306C15.9497 2.56585 15.7908 2.5 15.625 2.5H11.5625C11.4796 2.5 11.4001 2.46708 11.3415 2.40847C11.2829 2.34987 11.25 2.27038 11.25 2.1875C11.25 2.10462 11.2829 2.02513 11.3415 1.96653C11.4001 1.90792 11.4796 1.875 11.5625 1.875H15.625C15.9565 1.875 16.2745 2.0067 16.5089 2.24112C16.7433 2.47554 16.875 2.79348 16.875 3.125Z" fill="white"/>
<path d="M14.1594 9.0625H13.125C13.0421 9.0625 12.9626 9.02958 12.904 8.97097C12.8454 8.91237 12.8125 8.83288 12.8125 8.75C12.8125 8.66712 12.8454 8.58763 12.904 8.52903C12.9626 8.47042 13.0421 8.4375 13.125 8.4375H14.175C14.3154 8.43802 14.4511 8.38685 14.5563 8.29375C14.6004 8.25412 14.6361 8.20605 14.6613 8.15237C14.6866 8.0987 14.7008 8.04051 14.7031 7.98125C14.7008 7.91333 14.6847 7.84659 14.6558 7.78511C14.6268 7.72362 14.5857 7.66868 14.5348 7.62364C14.4839 7.5786 14.4244 7.54441 14.3598 7.52315C14.2953 7.50189 14.2271 7.49402 14.1594 7.5H11.4656C11.3252 7.49948 11.1895 7.55065 11.0844 7.64375C11.0403 7.68338 11.0045 7.73145 10.9793 7.78513C10.9541 7.8388 10.9399 7.89699 10.9375 7.95625C10.9399 8.02275 10.9555 8.08811 10.9835 8.14849C11.0115 8.20887 11.0512 8.26306 11.1004 8.30788C11.1496 8.35271 11.2072 8.38726 11.2699 8.40951C11.3327 8.43177 11.3992 8.44129 11.4656 8.4375H11.5875C11.6704 8.4375 11.7499 8.47042 11.8085 8.52903C11.8671 8.58763 11.9 8.66712 11.9 8.75C11.9 8.83288 11.8671 8.91237 11.8085 8.97097C11.7499 9.02958 11.6704 9.0625 11.5875 9.0625H11.4656C11.168 9.06923 10.8798 8.95804 10.6638 8.75316C10.4478 8.54828 10.3215 8.26633 10.3125 7.96875C10.3142 7.82179 10.3458 7.67672 10.4055 7.54239C10.4651 7.40807 10.5515 7.28731 10.6594 7.1875C10.8795 6.98598 11.1672 6.87445 11.4656 6.875H14.1594C14.457 6.86827 14.7452 6.97946 14.9612 7.18434C15.1772 7.38922 15.3035 7.67117 15.3125 7.96875C15.3108 8.11571 15.2792 8.26078 15.2195 8.39511C15.1599 8.52943 15.0735 8.65019 14.9656 8.75C14.7455 8.95152 14.4578 9.06305 14.1594 9.0625ZM9.0625 9.6875H3.75C3.66712 9.6875 3.58763 9.65458 3.52903 9.59597C3.47042 9.53737 3.4375 9.45788 3.4375 9.375V6.25C3.4375 6.16712 3.47042 6.08763 3.52903 6.02903C3.58763 5.97042 3.66712 5.9375 3.75 5.9375H9.0625C9.14538 5.9375 9.22487 5.97042 9.28347 6.02903C9.34208 6.08763 9.375 6.16712 9.375 6.25V9.375C9.375 9.45788 9.34208 9.53737 9.28347 9.59597C9.22487 9.65458 9.14538 9.6875 9.0625 9.6875ZM4.0625 9.0625H8.75V6.5625H4.0625V9.0625ZM8.75 10.9375H4.0625C3.97962 10.9375 3.90013 10.9046 3.84153 10.846C3.78292 10.7874 3.75 10.7079 3.75 10.625C3.75 10.5421 3.78292 10.4626 3.84153 10.404C3.90013 10.3454 3.97962 10.3125 4.0625 10.3125H8.75C8.83288 10.3125 8.91237 10.3454 8.97097 10.404C9.02958 10.4626 9.0625 10.5421 9.0625 10.625C9.0625 10.7079 9.02958 10.7874 8.97097 10.846C8.91237 10.9046 8.83288 10.9375 8.75 10.9375ZM6.875 12.1875H4.0625C3.97962 12.1875 3.90013 12.1546 3.84153 12.096C3.78292 12.0374 3.75 11.9579 3.75 11.875C3.75 11.7921 3.78292 11.7126 3.84153 11.654C3.90013 11.5954 3.97962 11.5625 4.0625 11.5625H6.875C6.95788 11.5625 7.03737 11.5954 7.09597 11.654C7.15458 11.7126 7.1875 11.7921 7.1875 11.875C7.1875 11.9579 7.15458 12.0374 7.09597 12.096C7.03737 12.1546 6.95788 12.1875 6.875 12.1875Z" fill="white"/>
</svg>
