<svg width="24" height="24" viewBox="0 0 24 24" fill="none" xmlns="http://www.w3.org/2000/svg">
<path fill-rule="evenodd" clip-rule="evenodd" d="M2 2C1.73478 2 1.48043 2.10535 1.29289 2.29289C1.10536 2.48043 1 2.73478 1 3V17C1 18.354 1.897 19.498 3.129 19.872C3.3124 20.477 3.68224 21.0086 4.18573 21.3909C4.68921 21.7732 5.3006 21.9867 5.93263 22.0009C6.56466 22.0151 7.18502 21.8293 7.70516 21.4699C8.22529 21.1106 8.61862 20.5962 8.829 20H15.17C15.3804 20.5962 15.7737 21.1106 16.2938 21.4699C16.814 21.8293 17.4343 22.0151 18.0664 22.0009C18.6984 21.9867 19.3098 21.7732 19.8133 21.3909C20.3168 21.0086 20.6866 20.477 20.87 19.872C21.4862 19.6851 22.0259 19.305 22.4094 18.7879C22.793 18.2707 23 17.6439 23 17V13C23 12.3434 22.8707 11.6932 22.6194 11.0866C22.3681 10.48 21.9998 9.92876 21.5355 9.46446C21.0712 9.00017 20.52 8.63187 19.9134 8.3806C19.3068 8.12933 18.6566 8 18 8H14V3C14 2.73478 13.8946 2.48043 13.7071 2.29289C13.5196 2.10535 13.2652 2 13 2H2ZM15.171 18H14V10H18C18.7956 10 19.5587 10.3161 20.1213 10.8787C20.6839 11.4413 21 12.2043 21 13V17C21.0001 17.1313 20.9743 17.2614 20.924 17.3827C20.8738 17.5041 20.8 17.6143 20.707 17.707C20.4513 17.1714 20.0426 16.7237 19.5325 16.4205C19.0223 16.1173 18.4337 15.9722 17.8411 16.0036C17.2485 16.0349 16.6785 16.2414 16.2032 16.5967C15.7279 16.9521 15.3687 17.4404 15.171 18ZM5.293 18.293C5.38525 18.1975 5.49559 18.1213 5.6176 18.0689C5.7396 18.0165 5.87082 17.9889 6.0036 17.9877C6.13638 17.9866 6.26806 18.0119 6.39095 18.0622C6.51385 18.1125 6.6255 18.1867 6.7194 18.2806C6.81329 18.3745 6.88754 18.4861 6.93782 18.609C6.9881 18.7319 7.0134 18.8636 7.01225 18.9964C7.0111 19.1292 6.98351 19.2604 6.9311 19.3824C6.87869 19.5044 6.80251 19.6148 6.707 19.707C6.5184 19.8892 6.2658 19.99 6.0036 19.9877C5.7414 19.9854 5.49059 19.8802 5.30518 19.6948C5.11977 19.5094 5.0146 19.2586 5.01233 18.9964C5.01005 18.7342 5.11084 18.4816 5.293 18.293ZM17 19C17 18.7348 17.1054 18.4804 17.2929 18.2929C17.4804 18.1054 17.7348 18 18 18C18.2652 18 18.5196 18.1054 18.7071 18.2929C18.8946 18.4804 19 18.7348 19 19C19 19.2652 18.8946 19.5196 18.7071 19.7071C18.5196 19.8946 18.2652 20 18 20C17.7348 20 17.4804 19.8946 17.2929 19.7071C17.1054 19.5196 17 19.2652 17 19Z" fill="#6A6A6A"/>
</svg>
