<svg width="24" height="24" viewBox="0 0 24 24" fill="none" xmlns="http://www.w3.org/2000/svg">
<path d="M20 10H18L13.21 6.5C13.4517 6.33104 13.6495 6.10675 13.7869 5.84582C13.9244 5.58489 13.9974 5.29489 14 5C13.9951 4.65141 13.9006 4.30996 13.7254 4.00853C13.5503 3.7071 13.3004 3.45585 13 3.279V2H12V4C12.1978 4 12.3911 4.05865 12.5556 4.16853C12.72 4.27841 12.8482 4.43459 12.9239 4.61732C12.9996 4.80004 13.0194 5.00111 12.9808 5.19509C12.9422 5.38907 12.847 5.56725 12.7071 5.70711C12.5673 5.84696 12.3891 5.9422 12.1951 5.98079C12.0011 6.01937 11.8 5.99957 11.6173 5.92388C11.4346 5.84819 11.2784 5.72002 11.1685 5.55557C11.0586 5.39112 11 5.19778 11 5H10C10.0033 5.29542 10.0772 5.58576 10.2157 5.84673C10.3542 6.10769 10.5532 6.3317 10.796 6.5L6 10H4C3.46957 10 2.96086 10.2107 2.58579 10.5858C2.21071 10.9609 2 11.4696 2 12V20C2 20.5304 2.21071 21.0391 2.58579 21.4142C2.96086 21.7893 3.46957 22 4 22H20C20.2628 22.0004 20.523 21.9489 20.7658 21.8486C21.0087 21.7482 21.2293 21.6009 21.4151 21.4151C21.6009 21.2293 21.7482 21.0087 21.8486 20.7658C21.9489 20.523 22.0004 20.2628 22 20V12C22 11.4696 21.7893 10.9609 21.4142 10.5858C21.0391 10.2107 20.5304 10 20 10ZM12 7C12.006 7 16 10 16 10H8L12 7ZM20 20H4V12H20V20Z" fill="black"/>
<path fill-rule="evenodd" clip-rule="evenodd" d="M18 19C18.2652 19 18.5196 18.8946 18.7071 18.7071C18.8946 18.5196 19 18.2652 19 18V14C19 13.7348 18.8946 13.4804 18.7071 13.2929C18.5196 13.1054 18.2652 13 18 13C17.7348 13 17.4804 13.1054 17.2929 13.2929C17.1054 13.4804 17 13.7348 17 14V18C17 18.2652 17.1054 18.5196 17.2929 18.7071C17.4804 18.8946 17.7348 19 18 19ZM6 19C6.26522 19 6.51957 18.8946 6.70711 18.7071C6.89464 18.5196 7 18.2652 7 18V14C7 13.7348 6.89464 13.4804 6.70711 13.2929C6.51957 13.1054 6.26522 13 6 13C5.73478 13 5.48043 13.1054 5.29289 13.2929C5.10536 13.4804 5 13.7348 5 14V18C5 18.2652 5.10536 18.5196 5.29289 18.7071C5.48043 18.8946 5.73478 19 6 19Z" fill="black"/>
<path d="M9 13.5H15" stroke="black"/>
<path d="M12 14L12 19" stroke="black"/>
</svg>
