<svg width="24" height="24" viewBox="0 0 24 24" fill="none" xmlns="http://www.w3.org/2000/svg">
<path d="M18 9V7H16V5H18V3H20V5H22V7H20V9H18ZM6 16H13V13H6V16ZM6 11H13V8H6V11ZM4 20C3.45 20 2.97933 19.8043 2.588 19.413C2.19667 19.0217 2.00067 18.5507 2 18V6C2 5.45 2.196 4.97933 2.588 4.588C2.98 4.19667 3.45067 4.00067 4 4H14.425C14.2917 4.3 14.1877 4.621 14.113 4.963C14.0383 5.305 14.0007 5.65067 14 6C14 6.56667 14.0877 7.10433 14.263 7.613C14.4383 8.12167 14.684 8.584 15 9V16H18V10.9C18.1667 10.9333 18.3293 10.9583 18.488 10.975C18.6467 10.9917 18.8173 11 19 11C19.5667 11 20.1043 10.9127 20.613 10.738C21.1217 10.5633 21.584 10.3173 22 10V18C22 18.55 21.8043 19.021 21.413 19.413C21.0217 19.805 20.5507 20.0007 20 20H4Z" fill="black"/>
</svg>
