<svg width="46" height="45" viewBox="0 0 46 45" fill="none" xmlns="http://www.w3.org/2000/svg">
<path fill-rule="evenodd" clip-rule="evenodd" d="M23.4617 32.5359L30.9922 36.4349C31.2894 36.5886 31.6187 36.6698 31.9532 36.672C32.2878 36.6742 32.6181 36.5973 32.9173 36.4476L39.2676 33.2724C39.6201 33.0963 39.9166 32.8255 40.1239 32.4903C40.3312 32.1552 40.4411 31.769 40.4414 31.3749V25.5085C40.4411 25.1144 40.3312 24.7282 40.1239 24.3931C39.9166 24.058 39.6201 23.7872 39.2676 23.611L31.9515 19.9519L24.6079 23.7554C24.2624 23.9343 23.9728 24.2048 23.7707 24.5371C23.5686 24.8695 23.4617 25.2511 23.4617 25.6401V32.5359Z" stroke="#E48E0B" stroke-width="1.36148" stroke-linecap="round" stroke-linejoin="round"/>
<path fill-rule="evenodd" clip-rule="evenodd" d="M7.62824 33.1281L14.0126 36.4349C14.3097 36.5886 14.639 36.6698 14.9736 36.672C15.3081 36.6742 15.6385 36.5973 15.9376 36.4476L23.4617 32.6866V25.5085C23.4615 25.1144 23.3516 24.7282 23.1443 24.3931C22.937 24.058 22.6405 23.7872 22.288 23.611L14.9719 19.9519L7.62824 23.7553C7.28282 23.9343 6.99323 24.2047 6.7911 24.5371C6.58897 24.8695 6.48209 25.2511 6.48212 25.6401V31.2433C6.48209 31.6324 6.58897 32.0139 6.7911 32.3463C6.99323 32.6787 7.28282 32.9491 7.62824 33.1281ZM14.9719 19.8012L22.5024 23.7002C22.7996 23.8539 23.1289 23.9351 23.4634 23.9373C23.798 23.9396 24.1283 23.8626 24.4275 23.7129L31.9516 19.9519V12.7738C31.9513 12.3797 31.8414 11.9935 31.6341 11.6584C31.4268 11.3233 31.1303 11.0525 30.7778 10.8763L24.4275 7.70114C24.1283 7.55139 23.798 7.47449 23.4634 7.4767C23.1289 7.47891 22.7996 7.56018 22.5024 7.71388L16.1181 11.0207C15.7726 11.1996 15.483 11.47 15.2809 11.8024C15.0788 12.1348 14.9719 12.5164 14.9719 12.9054V19.8012Z" stroke="#E48E0B" stroke-width="1.36148" stroke-linecap="round" stroke-linejoin="round"/>
<path d="M15.7062 11.8293L22.5129 15.2316C22.8075 15.3788 23.1323 15.4554 23.4617 15.4554C23.791 15.4554 24.1158 15.3788 24.4104 15.2316L31.1449 11.8654M19.8514 9.65591L27.7066 13.5846M28.3412 22.3906L36.1964 26.3192M11.3616 22.3906L19.2168 26.3192M24.196 24.564L31.0027 27.9663C31.2973 28.1135 31.6221 28.1901 31.9515 28.1901C32.2808 28.1901 32.6056 28.1135 32.9002 27.9663L39.6326 24.6001M7.21643 24.564L14.0231 27.9663C14.3177 28.1135 14.6425 28.1901 14.9719 28.1901C15.3012 28.1901 15.626 28.1135 15.9206 27.9663L22.653 24.6001M23.4617 15.707V24.1968M31.9515 28.4417V35.8702M14.9719 28.4417V35.8702" stroke="#E48E0B" stroke-width="1.36148" stroke-linecap="round" stroke-linejoin="round"/>
</svg>
