<svg width="79" height="86" viewBox="0 0 79 86" fill="none" xmlns="http://www.w3.org/2000/svg">
<path d="M67.6312 72.2398H62.9246V25.7998C62.9478 25.4236 62.8554 25.0497 62.662 24.7379C62.4686 24.4261 62.1854 24.1944 61.8577 24.0798L50.3734 18.8166V72.2398H47.2356V12.0398C47.2356 11.5837 47.0703 11.1462 46.7761 10.8236C46.4819 10.501 46.0828 10.3198 45.6667 10.3198H17.4267C17.0106 10.3198 16.6115 10.501 16.3173 10.8236C16.0231 11.1462 15.8578 11.5837 15.8578 12.0398V72.2398H11.1511C10.735 72.2398 10.336 72.421 10.0417 72.7436C9.74751 73.0662 9.58221 73.5037 9.58221 73.9598C9.58221 74.416 9.74751 74.8535 10.0417 75.176C10.336 75.4986 10.735 75.6798 11.1511 75.6798H67.6312C68.0473 75.6798 68.4464 75.4986 68.7406 75.176C69.0348 74.8535 69.2001 74.416 69.2001 73.9598C69.2001 73.5037 69.0348 73.0662 68.7406 72.7436C68.4464 72.421 68.0473 72.2398 67.6312 72.2398ZM55.0801 30.9598H58.2179C58.634 30.9598 59.033 31.141 59.3273 31.4636C59.6215 31.7862 59.7868 32.2237 59.7868 32.6798C59.7787 33.1332 59.6109 33.5656 59.3184 33.8863C59.0259 34.207 58.6315 34.391 58.2179 34.3998H55.0801C54.6665 34.391 54.2721 34.207 53.9796 33.8863C53.6871 33.5656 53.5192 33.1332 53.5112 32.6798C53.5112 32.2237 53.6765 31.7862 53.9707 31.4636C54.2649 31.141 54.664 30.9598 55.0801 30.9598ZM55.0801 41.2798H58.2179C58.634 41.2798 59.033 41.461 59.3273 41.7836C59.6215 42.1062 59.7868 42.5437 59.7868 42.9998C59.7868 43.456 59.6215 43.8935 59.3273 44.216C59.033 44.5386 58.634 44.7198 58.2179 44.7198H55.0801C54.664 44.7198 54.2649 44.5386 53.9707 44.216C53.6765 43.8935 53.5112 43.456 53.5112 42.9998C53.5112 42.5437 53.6765 42.1062 53.9707 41.7836C54.2649 41.461 54.664 41.2798 55.0801 41.2798ZM55.0801 51.5998H58.2179C58.6315 51.6086 59.0259 51.7927 59.3184 52.1133C59.6109 52.434 59.7787 52.8664 59.7868 53.3198C59.7868 53.776 59.6215 54.2135 59.3273 54.536C59.033 54.8586 58.634 55.0398 58.2179 55.0398H55.0801C54.664 55.0398 54.2649 54.8586 53.9707 54.536C53.6765 54.2135 53.5112 53.776 53.5112 53.3198C53.5192 52.8664 53.6871 52.434 53.9796 52.1133C54.2721 51.7927 54.6665 51.6086 55.0801 51.5998ZM55.0801 61.9198H58.2179C58.634 61.9198 59.033 62.101 59.3273 62.4236C59.6215 62.7462 59.7868 63.1837 59.7868 63.6398C59.7868 64.096 59.6215 64.5335 59.3273 64.856C59.033 65.1786 58.634 65.3598 58.2179 65.3598H55.0801C54.664 65.3598 54.2649 65.1786 53.9707 64.856C53.6765 64.5335 53.5112 64.096 53.5112 63.6398C53.5112 63.1837 53.6765 62.7462 53.9707 62.4236C54.2649 62.101 54.664 61.9198 55.0801 61.9198ZM34.6845 20.6398H37.8223C38.2384 20.6398 38.6374 20.821 38.9317 21.1436C39.2259 21.4662 39.3912 21.9037 39.3912 22.3598C39.3912 22.816 39.2259 23.2535 38.9317 23.576C38.6374 23.8986 38.2384 24.0798 37.8223 24.0798H34.6845C34.2684 24.0798 33.8693 23.8986 33.5751 23.576C33.2809 23.2535 33.1156 22.816 33.1156 22.3598C33.1156 21.9037 33.2809 21.4662 33.5751 21.1436C33.8693 20.821 34.2684 20.6398 34.6845 20.6398ZM34.6845 30.9598H37.8223C38.2384 30.9598 38.6374 31.141 38.9317 31.4636C39.2259 31.7862 39.3912 32.2237 39.3912 32.6798C39.3912 33.136 39.2259 33.5735 38.9317 33.896C38.6374 34.2186 38.2384 34.3998 37.8223 34.3998H34.6845C34.2684 34.3998 33.8693 34.2186 33.5751 33.896C33.2809 33.5735 33.1156 33.136 33.1156 32.6798C33.1156 32.2237 33.2809 31.7862 33.5751 31.4636C33.8693 31.141 34.2684 30.9598 34.6845 30.9598ZM34.6845 41.2798H37.8223C38.2384 41.2798 38.6374 41.461 38.9317 41.7836C39.2259 42.1062 39.3912 42.5437 39.3912 42.9998C39.3912 43.456 39.2259 43.8935 38.9317 44.216C38.6374 44.5386 38.2384 44.7198 37.8223 44.7198H34.6845C34.2684 44.7198 33.8693 44.5386 33.5751 44.216C33.2809 43.8935 33.1156 43.456 33.1156 42.9998C33.1156 42.5437 33.2809 42.1062 33.5751 41.7836C33.8693 41.461 34.2684 41.2798 34.6845 41.2798ZM34.6845 51.5998H37.8223C38.2384 51.5998 38.6374 51.781 38.9317 52.1036C39.2259 52.4262 39.3912 52.8637 39.3912 53.3198C39.3912 53.776 39.2259 54.2135 38.9317 54.536C38.6374 54.8586 38.2384 55.0398 37.8223 55.0398H34.6845C34.2684 55.0398 33.8693 54.8586 33.5751 54.536C33.2809 54.2135 33.1156 53.776 33.1156 53.3198C33.1156 52.8637 33.2809 52.4262 33.5751 52.1036C33.8693 51.781 34.2684 51.5998 34.6845 51.5998ZM25.0829 20.6398H28.4089C28.825 20.6398 29.2241 20.821 29.5183 21.1436C29.8125 21.4662 29.9778 21.9037 29.9778 22.3598C29.9778 22.816 29.8125 23.2535 29.5183 23.576C29.2241 23.8986 28.825 24.0798 28.4089 24.0798H25.2711C24.855 24.0798 24.456 23.8986 24.1618 23.576C23.8675 23.2535 23.7022 22.816 23.7022 22.3598C23.7022 21.9037 23.8675 21.4662 24.1618 21.1436C24.456 20.821 24.855 20.6398 25.2711 20.6398H25.0829ZM25.0829 30.9598H28.4089C28.825 30.9598 29.2241 31.141 29.5183 31.4636C29.8125 31.7862 29.9778 32.2237 29.9778 32.6798C29.9778 33.136 29.8125 33.5735 29.5183 33.896C29.2241 34.2186 28.825 34.3998 28.4089 34.3998H25.2711C24.855 34.3998 24.456 34.2186 24.1618 33.896C23.8675 33.5735 23.7022 33.136 23.7022 32.6798C23.7022 32.2237 23.8675 31.7862 24.1618 31.4636C24.456 31.141 24.855 30.9598 25.2711 30.9598H25.0829ZM25.0829 41.2798H28.4089C28.825 41.2798 29.2241 41.461 29.5183 41.7836C29.8125 42.1062 29.9778 42.5437 29.9778 42.9998C29.9778 43.456 29.8125 43.8935 29.5183 44.216C29.2241 44.5386 28.825 44.7198 28.4089 44.7198H25.2711C24.855 44.7198 24.456 44.5386 24.1618 44.216C23.8675 43.8935 23.7022 43.456 23.7022 42.9998C23.7022 42.5437 23.8675 42.1062 24.1618 41.7836C24.456 41.461 24.855 41.2798 25.2711 41.2798H25.0829ZM25.0829 51.5998H28.4089C28.825 51.5998 29.2241 51.781 29.5183 52.1036C29.8125 52.4262 29.9778 52.8637 29.9778 53.3198C29.9778 53.776 29.8125 54.2135 29.5183 54.536C29.2241 54.8586 28.825 55.0398 28.4089 55.0398H25.2711C24.855 55.0398 24.456 54.8586 24.1618 54.536C23.8675 54.2135 23.7022 53.776 23.7022 53.3198C23.7022 52.8637 23.8675 52.4262 24.1618 52.1036C24.456 51.781 24.855 51.5998 25.2711 51.5998H25.0829ZM33.1156 72.2398V65.3598H29.9778V72.2398H26.84V63.5366C26.864 63.0986 27.0399 62.6871 27.3315 62.3866C27.6232 62.086 28.0086 61.919 28.4089 61.9198H34.6845C35.1006 61.9198 35.4996 62.101 35.7939 62.4236C36.0881 62.7462 36.2534 63.1837 36.2534 63.6398V72.2398H33.1156Z" fill="#E48E0B"/>
</svg>
