<svg width="24" height="26" viewBox="0 0 24 26" fill="none" xmlns="http://www.w3.org/2000/svg">
<g clip-path="url(#clip0_1062_612)">
<path d="M0 17.5V25.7H23.3V17.5H0ZM22.3 24.7H1V18.5H2V20H3V18.4H4V21.5H5V18.4H6.5V20H7.5V18.4H8.7V21.5H9.7V18.4H11.1V20H12.1V18.4H13.5V21.5H14.5V18.4H15.7V20H16.7V18.4H18.2V21.5H19.2V18.4H20.3V20H21.3V18.4H22.3V24.7ZM19.3 2.6H13V0H10.3V2.6H4L1.4 15.9H22L19.3 2.6ZM11.3 1H12V2.6H11.3V1ZM4.8 3.6H18.5L20.7 14.9H2.6L4.8 3.6Z" fill="black"/>
<path d="M8.8331 6.90909H9.60369V10.2575C9.60369 10.6138 9.52 10.9295 9.35263 11.2045C9.18525 11.478 8.94993 11.6934 8.64666 11.8509C8.3434 12.0066 7.98793 12.0845 7.58026 12.0845C7.17424 12.0845 6.8196 12.0066 6.51634 11.8509C6.21307 11.6934 5.97775 11.478 5.81037 11.2045C5.64299 10.9295 5.5593 10.6138 5.5593 10.2575V6.90909H6.32741V10.1953C6.32741 10.4257 6.37796 10.6303 6.47905 10.8093C6.58179 10.9883 6.7268 11.1291 6.91406 11.2319C7.10133 11.333 7.32339 11.3835 7.58026 11.3835C7.83878 11.3835 8.06167 11.333 8.24893 11.2319C8.43786 11.1291 8.58203 10.9883 8.68146 10.8093C8.78255 10.6303 8.8331 10.4257 8.8331 10.1953V6.90909ZM11.404 9.73295V12H10.6608V8.18182H11.3742V8.80327H11.4214C11.5093 8.60109 11.6468 8.43868 11.8341 8.31605C12.023 8.19342 12.2608 8.1321 12.5475 8.1321C12.8077 8.1321 13.0355 8.18679 13.2311 8.29616C13.4266 8.40388 13.5783 8.56463 13.686 8.77841C13.7937 8.99219 13.8476 9.25651 13.8476 9.57138V12H13.1043V9.66087C13.1043 9.38411 13.0322 9.16785 12.8881 9.01207C12.7439 8.85464 12.5458 8.77592 12.2939 8.77592C12.1216 8.77592 11.9683 8.81321 11.8341 8.88778C11.7015 8.96236 11.5963 9.07173 11.5184 9.21591C11.4421 9.35843 11.404 9.53078 11.404 9.73295ZM14.8444 12V8.18182H15.5876V12H14.8444ZM15.2197 7.59268C15.0905 7.59268 14.9794 7.5496 14.8866 7.46342C14.7955 7.37559 14.7499 7.27119 14.7499 7.15021C14.7499 7.02758 14.7955 6.92318 14.8866 6.837C14.9794 6.74917 15.0905 6.70526 15.2197 6.70526C15.349 6.70526 15.4592 6.74917 15.5503 6.837C15.6431 6.92318 15.6895 7.02758 15.6895 7.15021C15.6895 7.27119 15.6431 7.37559 15.5503 7.46342C15.4592 7.5496 15.349 7.59268 15.2197 7.59268ZM18.3699 8.18182V8.77841H16.2843V8.18182H18.3699ZM16.8436 7.26705H17.5868V10.8789C17.5868 11.0231 17.6084 11.1316 17.6515 11.2045C17.6945 11.2758 17.7501 11.3247 17.818 11.3512C17.8876 11.3761 17.963 11.3885 18.0442 11.3885C18.1039 11.3885 18.1561 11.3844 18.2008 11.3761C18.2456 11.3678 18.2804 11.3612 18.3052 11.3562L18.4395 11.9702C18.3964 11.9867 18.335 12.0033 18.2555 12.0199C18.176 12.0381 18.0765 12.0481 17.9572 12.0497C17.7617 12.053 17.5794 12.0182 17.4103 11.9453C17.2413 11.8724 17.1046 11.7597 17.0002 11.6072C16.8958 11.4548 16.8436 11.2634 16.8436 11.033V7.26705Z" fill="black"/>
</g>
<defs>
<clipPath id="clip0_1062_612">
<rect width="23.3" height="25.7" fill="white"/>
</clipPath>
</defs>
</svg>
