<svg width="24" height="24" viewBox="0 0 24 24" fill="none" xmlns="http://www.w3.org/2000/svg">
<path d="M2.72564 17.139C2.8047 17.5043 3.1072 17.7234 3.39939 17.6246L10.8381 15.1324C11.1303 15.0336 11.3056 14.6555 11.2266 14.2902L9.51814 6.31953C9.43907 5.95429 9.13657 5.73515 8.84439 5.83398L6.19064 6.72773L7.04314 10.7109L4.91877 11.4199L4.06627 7.43671L1.40908 8.32616C1.11689 8.42499 0.941581 8.80312 1.02064 9.16835L2.72564 17.139ZM14.2 1C13.5916 1 13.1 1.61445 13.1 2.375V16.2797L1.20283 20.3359C1.05502 20.3875 0.969081 20.5765 1.01033 20.757L1.44346 22.7465C1.48471 22.9312 1.63596 23.0386 1.78033 22.9871L15.3138 18.3722C15.3963 20.9418 17.0738 23 19.15 23C21.2778 23 23 20.8472 23 18.1875V1H14.2ZM19.15 20.25C18.2391 20.25 17.5 19.3262 17.5 18.1875C17.5 17.0488 18.2391 16.125 19.15 16.125C20.0609 16.125 20.8 17.0488 20.8 18.1875C20.8 19.3262 20.0609 20.25 19.15 20.25Z" fill="black"/>
</svg>
