<svg width="30" height="30" viewBox="0 0 30 30" fill="none" xmlns="http://www.w3.org/2000/svg">
<path d="M12.5 20.0001H17.5C18.1875 20.0001 18.75 19.4376 18.75 18.7501V12.5001H20.7375C21.85 12.5001 22.4125 11.1501 21.625 10.3626L15.8875 4.62508C15.7719 4.5092 15.6345 4.41726 15.4833 4.35454C15.3321 4.29181 15.17 4.25952 15.0063 4.25952C14.8425 4.25952 14.6804 4.29181 14.5292 4.35454C14.378 4.41726 14.2406 4.5092 14.125 4.62508L8.3875 10.3626C7.6 11.1501 8.15 12.5001 9.2625 12.5001H11.25V18.7501C11.25 19.4376 11.8125 20.0001 12.5 20.0001ZM7.5 22.5001H22.5C23.1875 22.5001 23.75 23.0626 23.75 23.7501C23.75 24.4376 23.1875 25.0001 22.5 25.0001H7.5C6.8125 25.0001 6.25 24.4376 6.25 23.7501C6.25 23.0626 6.8125 22.5001 7.5 22.5001Z" fill="#035C00"/>
</svg>
