<svg width="26" height="26" viewBox="0 0 26 26" fill="none" xmlns="http://www.w3.org/2000/svg">
<path d="M22.8866 21.783C21.4236 19.1528 19.169 17.2668 16.5379 16.3727C17.8394 15.567 18.8506 14.3393 19.4161 12.8782C19.9817 11.417 20.0704 9.80319 19.6686 8.28454C19.2668 6.76589 18.3968 5.42637 17.1921 4.4717C15.9874 3.51703 14.5146 3 13 3C11.4854 3 10.0126 3.51703 8.80792 4.4717C7.60321 5.42637 6.73316 6.76589 6.33138 8.28454C5.9296 9.80319 6.0183 11.417 6.58387 12.8782C7.14944 14.3393 8.1606 15.567 9.46207 16.3727C6.83095 17.2658 4.5764 19.1518 3.11339 21.783C3.05974 21.874 3.02415 21.9752 3.00873 22.0807C2.99331 22.1862 2.99836 22.2939 3.02359 22.3973C3.04883 22.5008 3.09373 22.5979 3.15565 22.683C3.21757 22.7681 3.29525 22.8395 3.38411 22.8929C3.47297 22.9462 3.57122 22.9806 3.67305 22.9938C3.77487 23.0071 3.87822 22.999 3.977 22.97C4.07577 22.9411 4.16797 22.8918 4.24815 22.8252C4.32832 22.7586 4.39486 22.676 4.44383 22.5822C6.25363 19.3296 9.45246 17.3876 13 17.3876C16.5475 17.3876 19.7464 19.3296 21.5562 22.5822C21.6051 22.676 21.6717 22.7586 21.7519 22.8252C21.832 22.8918 21.9242 22.9411 22.023 22.97C22.1218 22.999 22.2251 23.0071 22.327 22.9938C22.4288 22.9806 22.527 22.9462 22.6159 22.8929C22.7048 22.8395 22.7824 22.7681 22.8444 22.683C22.9063 22.5979 22.9512 22.5008 22.9764 22.3973C23.0016 22.2939 23.0067 22.1862 22.9913 22.0807C22.9758 21.9752 22.9403 21.874 22.8866 21.783ZM7.62058 10.1952C7.62058 9.08876 7.93607 8.0072 8.52717 7.08724C9.11827 6.16729 9.95842 5.45028 10.9414 5.02687C11.9243 4.60346 13.006 4.49268 14.0495 4.70853C15.093 4.92438 16.0515 5.45717 16.8038 6.23953C17.5562 7.02188 18.0685 8.01866 18.2761 9.10382C18.4836 10.189 18.3771 11.3138 17.9699 12.336C17.5628 13.3582 16.8733 14.2318 15.9886 14.8465C15.104 15.4612 14.0639 15.7893 13 15.7893C11.5738 15.7877 10.2064 15.1978 9.19786 14.1491C8.18935 13.1003 7.6221 11.6784 7.62058 10.1952Z" fill="#8D8D8D"/>
</svg>
