<svg width="24" height="24" viewBox="0 0 24 24" fill="none" xmlns="http://www.w3.org/2000/svg">
<path d="M9 14C10.381 14 11.631 13.44 12.536 12.535C13.44 11.631 14 10.381 14 9C14 7.619 13.44 6.369 12.536 5.465C11.631 4.56 10.381 4 9 4C7.619 4 6.369 4.56 5.464 5.465C4.56 6.369 4 7.619 4 9C4 10.381 4.56 11.631 5.464 12.535C5.92781 13.0001 6.47897 13.369 7.0858 13.6204C7.69262 13.8718 8.34315 14.0008 9 14ZM9 21C12.518 21 15 20 15 19C15 17 12.646 15 9 15C5.25 15 3 17 3 19C3 20 5.25 21 9 21ZM21 12H19V10C19 9.73478 18.8946 9.48043 18.7071 9.29289C18.5196 9.10536 18.2652 9 18 9C17.7348 9 17.4804 9.10536 17.2929 9.29289C17.1054 9.48043 17 9.73478 17 10V12H15C14.7348 12 14.4804 12.1054 14.2929 12.2929C14.1054 12.4804 14 12.7348 14 13C14 13.2652 14.1054 13.5196 14.2929 13.7071C14.4804 13.8946 14.7348 14 15 14H17V16C17 16.2652 17.1054 16.5196 17.2929 16.7071C17.4804 16.8946 17.7348 17 18 17C18.2652 17 18.5196 16.8946 18.7071 16.7071C18.8946 16.5196 19 16.2652 19 16V14H21C21.2652 14 21.5196 13.8946 21.7071 13.7071C21.8946 13.5196 22 13.2652 22 13C22 12.7348 21.8946 12.4804 21.7071 12.2929C21.5196 12.1054 21.2652 12 21 12Z" fill="#6A6A6A"/>
</svg>
