<svg width="24" height="24" viewBox="0 0 24 24" fill="none" xmlns="http://www.w3.org/2000/svg">
<path d="M0 5C0 4.46957 0.210714 3.96086 0.585786 3.58579C0.960859 3.21071 1.46957 3 2 3H13C13.5304 3 14.0391 3.21071 14.4142 3.58579C14.7893 3.96086 15 4.46957 15 5V7H13V5H2V12H8V14H2V18H8V20H5.414L3.5 21.914L2.086 20.5L2.586 20H2C1.46957 20 0.960859 19.7893 0.585786 19.4142C0.210714 19.0391 0 18.5304 0 18V5ZM11.323 8H21.677L24 13.807V21.5H22V20H11V21.5H9V13.807L11.323 8ZM11 18H22V14.193L21.923 14H11.077L11 14.193V18ZM11.877 12H21.123L20.323 10H12.677L11.877 12ZM3 15H5.004V17.004H3V15ZM12 15H14.004V17.004H12V15ZM19 15H21.004V17.004H19V15Z" fill="black"/>
</svg>
