<svg width="24" height="24" viewBox="0 0 24 24" fill="none" xmlns="http://www.w3.org/2000/svg">
<path d="M22 8C22.0001 7.81852 21.9507 7.64045 21.857 7.485L19.148 2.97C18.9695 2.67484 18.7181 2.43057 18.4179 2.26069C18.1178 2.09081 17.7789 2.00104 17.434 2H6.566C5.868 2 5.211 2.372 4.852 2.971L2.143 7.485C2.04935 7.64045 1.99991 7.81852 2 8C2 9.005 2.386 9.914 3 10.618V20C3 20.2652 3.10536 20.5196 3.29289 20.7071C3.48043 20.8946 3.73478 21 4 21H12C12.2652 21 12.5196 20.8946 12.7071 20.7071C12.8946 20.5196 13 20.2652 13 20V15H17V20C17 20.2652 17.1054 20.5196 17.2929 20.7071C17.4804 20.8946 17.7348 21 18 21H20C20.2652 21 20.5196 20.8946 20.7071 20.7071C20.8946 20.5196 21 20.2652 21 20V10.618C21.614 9.914 22 9.005 22 8ZM19.984 8.251C19.9225 8.73391 19.6871 9.17785 19.3219 9.49977C18.9568 9.82169 18.4868 9.99953 18 10C16.897 10 16 9.103 16 8C16 7.932 15.975 7.872 15.961 7.808L15.981 7.804L15.22 4H17.434L19.984 8.251ZM10.007 8.065L10.819 4H13.18L13.993 8.065C13.958 9.138 13.08 10 12 10C10.92 10 10.042 9.138 10.007 8.065ZM6.566 4H8.78L8.02 7.804L8.04 7.808C8.025 7.872 8 7.932 8 8C8 9.103 7.103 10 6 10C5.51319 9.99953 5.04323 9.82169 4.67806 9.49977C4.31289 9.17785 4.07752 8.73391 4.016 8.251L6.566 4ZM10 16H6V13H10V16Z" fill="black"/>
</svg>
