<svg width="24" height="24" viewBox="0 0 24 24" fill="none" xmlns="http://www.w3.org/2000/svg">
<path d="M2 6.75C2 5.784 2.784 5 3.75 5H17.25C18.216 5 19 5.784 19 6.75V11.174C18.0863 10.9573 17.1365 10.9411 16.2159 11.1266C15.2953 11.3121 14.4259 11.6948 13.6674 12.2485C12.909 12.8022 12.2795 13.5136 11.8223 14.3339C11.3651 15.1541 11.091 16.0637 11.019 17H3.75C3.28587 17 2.84075 16.8156 2.51256 16.4874C2.18437 16.1592 2 15.7141 2 15.25V6.75ZM4.401 18.5H11.076C11.157 19.023 11.3 19.526 11.498 20H7C6.47323 20.0002 5.95571 19.8616 5.49948 19.5983C5.04324 19.335 4.66438 18.9562 4.401 18.5ZM20.5 11.732C21.0488 12.0181 21.5539 12.3811 22 12.81V10C22.0002 9.47323 21.8616 8.95571 21.5983 8.49948C21.335 8.04324 20.9562 7.66438 20.5 7.401V11.732ZM5 7.25C5 7.44891 4.92098 7.63968 4.78033 7.78033C4.63968 7.92098 4.44891 8 4.25 8H3.25V9.5H4.25C4.54547 9.5 4.83806 9.4418 5.11104 9.32873C5.38402 9.21566 5.63206 9.04992 5.84099 8.84099C6.04992 8.63206 6.21566 8.38402 6.32873 8.11104C6.4418 7.83805 6.5 7.54547 6.5 7.25V6.25H5V7.25ZM10.5 13.5C11.0967 13.5 11.669 13.2629 12.091 12.841C12.5129 12.419 12.75 11.8467 12.75 11.25C12.75 10.6533 12.5129 10.081 12.091 9.65901C11.669 9.23705 11.0967 9 10.5 9C9.90326 9 9.33097 9.23705 8.90901 9.65901C8.48705 10.081 8.25 10.6533 8.25 11.25C8.25 11.8467 8.48705 12.419 8.90901 12.841C9.33097 13.2629 9.90326 13.5 10.5 13.5ZM4.25 14C4.44891 14 4.63968 14.079 4.78033 14.2197C4.92098 14.3603 5 14.5511 5 14.75V15.75H6.5V14.75C6.5 14.1533 6.26295 13.581 5.84099 13.159C5.41903 12.7371 4.84674 12.5 4.25 12.5H3.25V14H4.25ZM16.75 8C16.5511 8 16.3603 7.92098 16.2197 7.78033C16.079 7.63968 16 7.44891 16 7.25V6.25H14.5V7.25C14.5 7.54547 14.5582 7.83805 14.6713 8.11104C14.7843 8.38402 14.9501 8.63206 15.159 8.84099C15.581 9.26295 16.1533 9.5 16.75 9.5H17.75V8H16.75ZM14.278 13.976C14.3526 14.2345 14.3743 14.5055 14.3417 14.7726C14.3092 15.0397 14.223 15.2975 14.0885 15.5306C13.954 15.7636 13.7738 15.9671 13.5587 16.1289C13.3437 16.2906 13.0982 16.4073 12.837 16.472L12.253 16.616C12.1588 17.2151 12.1608 17.8255 12.259 18.424L12.799 18.554C13.0626 18.6175 13.3105 18.7339 13.5277 18.8962C13.7449 19.0585 13.9268 19.2632 14.0624 19.4979C14.1981 19.7327 14.2845 19.9926 14.3166 20.2618C14.3487 20.531 14.3257 20.8039 14.249 21.064L14.062 21.695C14.502 22.081 15.002 22.394 15.546 22.617L16.04 22.098C16.2268 21.9015 16.4517 21.745 16.7008 21.6381C16.95 21.5312 17.2183 21.476 17.4895 21.476C17.7607 21.476 18.029 21.5312 18.2782 21.6381C18.5273 21.745 18.7522 21.9015 18.939 22.098L19.437 22.623C19.9783 22.4025 20.4794 22.094 20.92 21.71L20.722 21.024C20.6474 20.7655 20.6257 20.4945 20.6583 20.2274C20.6908 19.9603 20.777 19.7025 20.9115 19.4694C21.046 19.2364 21.2262 19.0329 21.4413 18.8711C21.6563 18.7094 21.9018 18.5927 22.163 18.528L22.747 18.384C22.8412 17.7849 22.8392 17.1745 22.741 16.576L22.201 16.446C21.9374 16.3825 21.6895 16.2661 21.4723 16.1038C21.2551 15.9415 21.0732 15.7368 20.9376 15.5021C20.8019 15.2673 20.7155 15.0074 20.6834 14.7382C20.6513 14.469 20.6743 14.1961 20.751 13.936L20.938 13.306C20.4977 12.9187 19.9963 12.6071 19.454 12.384L18.961 12.902C18.7742 13.0987 18.5493 13.2553 18.3 13.3623C18.0507 13.4693 17.7823 13.5245 17.511 13.5245C17.2397 13.5245 16.9713 13.4693 16.722 13.3623C16.4727 13.2553 16.2478 13.0987 16.061 12.902L15.563 12.377C15.0218 12.5972 14.5207 12.9053 14.08 13.289L14.278 13.976ZM17.5 19C16.7 19 16.05 18.328 16.05 17.5C16.05 16.672 16.7 16 17.5 16C18.3 16 18.95 16.672 18.95 17.5C18.95 18.328 18.3 19 17.5 19Z" fill="black"/>
</svg>
