<svg width="24" height="24" viewBox="0 0 24 24" fill="none" xmlns="http://www.w3.org/2000/svg">
<path d="M7.00107 22H3.05107C2.76774 22 2.5304 21.896 2.33907 21.688C2.14774 21.48 2.06007 21.234 2.07607 20.95C2.22607 18.4333 2.94274 16.271 4.22607 14.463C5.5094 12.655 7.4344 11.5007 10.0011 11V8C9.35107 7.91667 8.61774 7.75833 7.80107 7.525C6.9844 7.29167 6.19674 6.975 5.43807 6.575C4.6794 6.175 4.00874 5.696 3.42607 5.138C2.8434 4.58 2.4684 3.94233 2.30107 3.225C2.21774 2.90833 2.27207 2.625 2.46407 2.375C2.65607 2.125 2.9184 2 3.25107 2H20.7511C21.0844 2 21.3471 2.125 21.5391 2.375C21.7311 2.625 21.7851 2.90833 21.7011 3.225C21.5344 3.94167 21.1594 4.57933 20.5761 5.138C19.9927 5.69667 19.3221 6.17567 18.5641 6.575C17.8061 6.97433 17.0184 7.291 16.2011 7.525C15.3837 7.759 14.6504 7.91733 14.0011 8V11C16.5677 11.5 18.4927 12.6543 19.7761 14.463C21.0594 16.2717 21.7761 18.434 21.9261 20.95C21.9427 21.2333 21.8554 21.4793 21.6641 21.688C21.4727 21.8967 21.2351 22.0007 20.9511 22H17.0011C16.7177 22 16.4804 21.904 16.2891 21.712C16.0977 21.52 16.0017 21.2827 16.0011 21C16.0004 20.7173 16.0964 20.48 16.2891 20.288C16.4817 20.096 16.7191 20 17.0011 20H19.8761C19.5761 17.4667 18.6301 15.6333 17.0381 14.5C15.4461 13.3667 13.7671 12.8 12.0011 12.8C10.2351 12.8 8.55574 13.3667 6.96307 14.5C5.3704 15.6333 4.42474 17.4667 4.12607 20H7.00107C7.2844 20 7.52207 20.096 7.71407 20.288C7.90607 20.48 8.00174 20.7173 8.00107 21C8.0004 21.2827 7.9044 21.5203 7.71307 21.713C7.52174 21.9057 7.2844 22.0013 7.00107 22ZM12.0011 22C11.4511 22 10.9804 21.8043 10.5891 21.413C10.1977 21.0217 10.0017 20.5507 10.0011 20C10.0011 19.7167 10.0554 19.4583 10.1641 19.225C10.2727 18.9917 10.4184 18.7833 10.6011 18.6C10.8011 18.4 11.0721 18.196 11.4141 17.988C11.7561 17.78 12.1601 17.5673 12.6261 17.35L14.9261 16.425C15.1261 16.3417 15.3054 16.3793 15.4641 16.538C15.6227 16.6967 15.6601 16.8757 15.5761 17.075L14.6511 19.375C14.4344 19.8417 14.2217 20.246 14.0131 20.588C13.8044 20.93 13.6004 21.2007 13.4011 21.4C13.2177 21.5833 13.0094 21.7293 12.7761 21.838C12.5427 21.9467 12.2844 22.0007 12.0011 22Z" fill="black"/>
</svg>
