<svg width="24" height="24" viewBox="0 0 24 24" fill="none" xmlns="http://www.w3.org/2000/svg">
<path d="M9.2381 15.875C9.56014 15.875 9.869 15.7565 10.0967 15.5455C10.3244 15.3345 10.4524 15.0484 10.4524 14.75C10.4524 14.4516 10.3244 14.1655 10.0967 13.9545C9.869 13.7435 9.56014 13.625 9.2381 13.625C8.91605 13.625 8.60719 13.7435 8.37947 13.9545C8.15174 14.1655 8.02381 14.4516 8.02381 14.75C8.02381 15.0484 8.15174 15.3345 8.37947 15.5455C8.60719 15.7565 8.91605 15.875 9.2381 15.875ZM8.02381 9.125L6.43714 11H10.0476V9.125M18.9524 15.875C19.2744 15.875 19.5833 15.7565 19.811 15.5455C20.0387 15.3345 20.1667 15.0484 20.1667 14.75C20.1667 14.4516 20.0387 14.1655 19.811 13.9545C19.5833 13.7435 19.2744 13.625 18.9524 13.625C18.6303 13.625 18.3215 13.7435 18.0938 13.9545C17.866 14.1655 17.7381 14.4516 17.7381 14.75C17.7381 15.0484 17.866 15.3345 18.0938 15.5455C18.3215 15.7565 18.6303 15.875 18.9524 15.875ZM7.61905 8H10.0476V5H21.381C22.2795 5 23 5.6675 23 6.5V14.75H21.381C21.381 15.3467 21.1251 15.919 20.6696 16.341C20.2142 16.7629 19.5965 17 18.9524 17C18.3083 17 17.6906 16.7629 17.2351 16.341C16.7797 15.919 16.5238 15.3467 16.5238 14.75H11.6667C11.6667 15.3467 11.4108 15.919 10.9554 16.341C10.4999 16.7629 9.88219 17 9.2381 17C8.594 17 7.97628 16.7629 7.52084 16.341C7.06539 15.919 6.80952 15.3467 6.80952 14.75H5.19048V11L7.61905 8Z" fill="black"/>
<path d="M1 18C1 17.4477 1.44772 17 2 17H20.9524C21.5047 17 21.9524 17.4477 21.9524 18V18H1V18Z" fill="black"/>
<path d="M3.09524 7C3.55967 6.99988 4.01097 7.15696 4.3782 7.44654C4.74542 7.73612 5.00773 8.14178 5.12389 8.59974C5.24006 9.0577 5.20349 9.542 5.01993 9.97648C4.83638 10.411 4.51624 10.771 4.10986 11H2.08061C1.67423 10.771 1.3541 10.411 1.17054 9.97648C0.986988 9.542 0.950418 9.0577 1.06658 8.59974C1.18275 8.14178 1.44506 7.73612 1.81228 7.44654C2.1795 7.15696 2.6308 6.99988 3.09524 7ZM4.28137 10.3413C4.43761 10.1831 4.56147 9.9948 4.64579 9.78745C4.7301 9.58009 4.7732 9.35776 4.77258 9.13333H4.40443V8.86667H4.75242C4.72397 8.68025 4.66512 8.49998 4.57829 8.33333H4.14259V8.06667H4.40548C4.20233 7.80661 3.92877 7.61294 3.61865 7.5096V7.8H3.35681V7.4456C3.1833 7.41811 3.00665 7.41811 2.83314 7.4456V7.8H2.5713V7.5096C2.26126 7.61311 1.98775 7.80675 1.78447 8.06667H2.04736V8.33333H1.61166C1.52484 8.49998 1.46598 8.68025 1.43754 8.86667H1.78552V9.13333H1.41738C1.41738 9.5896 1.59176 10.0187 1.90859 10.3413C1.95231 10.3859 1.9984 10.4277 2.04579 10.4667H2.83288L2.98239 8.33333H3.20678L3.35629 10.4667H4.14338C4.19103 10.4277 4.23685 10.3859 4.28058 10.3413H4.28137Z" fill="black"/>
<path d="M3.09375 11V17" stroke="black"/>
</svg>
