<svg width="1442" height="684" viewBox="0 0 1442 684" fill="none" xmlns="http://www.w3.org/2000/svg">
<path opacity="0.13" d="M84.234 -79.1863C941.596 -145.33 1074.51 415.62 1766.26 478.775" stroke="#797979" stroke-opacity="0.2" stroke-width="1.38163" stroke-miterlimit="10"/>
<path opacity="0.1581" d="M87.1699 -65.6289C936.548 -136.766 1079.42 425.857 1766.13 480.113" stroke="#797979" stroke-opacity="0.2" stroke-width="1.38163" stroke-miterlimit="10"/>
<path opacity="0.1861" d="M90.108 -52.0682C931.499 -128.2 1084.33 436.098 1766.01 481.458" stroke="#797979" stroke-opacity="0.2" stroke-width="1.38163" stroke-miterlimit="10"/>
<path opacity="0.2142" d="M93.0439 -38.5105C926.451 -119.636 1089.24 446.333 1765.88 482.797" stroke="#797979" stroke-opacity="0.2" stroke-width="1.38163" stroke-miterlimit="10"/>
<path opacity="0.2423" d="M95.9827 -24.9525C921.406 -111.072 1094.15 456.572 1765.76 484.139" stroke="#797979" stroke-opacity="0.2" stroke-width="1.38163" stroke-miterlimit="10"/>
<path opacity="0.2703" d="M98.918 -11.393C916.354 -102.507 1099.06 466.812 1765.63 485.48" stroke="#797979" stroke-opacity="0.2" stroke-width="1.38163" stroke-miterlimit="10"/>
<path opacity="0.2984" d="M101.857 2.16532C911.308 -93.94 1103.97 477.053 1765.5 486.819" stroke="#797979" stroke-opacity="0.2" stroke-width="1.38163" stroke-miterlimit="10"/>
<path opacity="0.3265" d="M104.793 15.7229C906.257 -85.3768 1108.88 487.288 1765.38 488.159" stroke="#797979" stroke-opacity="0.2" stroke-width="1.38163" stroke-miterlimit="10"/>
<path opacity="0.3545" d="M107.728 29.2831C901.208 -76.8106 1113.79 497.528 1765.25 489.503" stroke="#797979" stroke-opacity="0.2" stroke-width="1.38163" stroke-miterlimit="10"/>
<path opacity="0.3826" d="M110.667 42.8413C896.16 -68.2468 1118.7 507.767 1765.12 490.842" stroke="#797979" stroke-opacity="0.2" stroke-width="1.38163" stroke-miterlimit="10"/>
<path opacity="0.4106" d="M113.603 56.3986C891.112 -59.6834 1123.61 518.004 1765 492.184" stroke="#797979" stroke-opacity="0.2" stroke-width="1.38163" stroke-miterlimit="10"/>
<path opacity="0.4387" d="M116.541 69.9591C886.063 -51.1174 1128.52 528.245 1764.87 493.525" stroke="#797979" stroke-opacity="0.2" stroke-width="1.38163" stroke-miterlimit="10"/>
<path opacity="0.4668" d="M119.477 83.5169C881.015 -42.5534 1133.42 538.483 1764.75 494.865" stroke="#797979" stroke-opacity="0.2" stroke-width="1.38163" stroke-miterlimit="10"/>
<path opacity="0.4948" d="M122.415 97.0748C875.967 -33.99 1138.34 548.722 1764.62 496.207" stroke="#797979" stroke-opacity="0.2" stroke-width="1.38163" stroke-miterlimit="10"/>
<path opacity="0.5229" d="M125.351 110.635C870.918 -25.4241 1143.24 558.962 1764.49 497.547" stroke="#797979" stroke-opacity="0.2" stroke-width="1.38163" stroke-miterlimit="10"/>
<path opacity="0.551" d="M128.289 124.193C865.87 -16.8602 1148.16 569.2 1764.37 498.887" stroke="#797979" stroke-opacity="0.2" stroke-width="1.38163" stroke-miterlimit="10"/>
<path opacity="0.579" d="M131.225 137.753C860.821 -8.29372 1153.06 579.441 1764.24 500.231" stroke="#797979" stroke-opacity="0.2" stroke-width="1.38163" stroke-miterlimit="10"/>
<path opacity="0.6071" d="M134.161 151.311C855.77 0.269197 1157.97 589.678 1764.12 501.57" stroke="#797979" stroke-opacity="0.2" stroke-width="1.38163" stroke-miterlimit="10"/>
<path opacity="0.6352" d="M137.099 164.868C850.725 8.83305 1162.88 599.916 1763.99 502.909" stroke="#797979" stroke-opacity="0.2" stroke-width="1.38163" stroke-miterlimit="10"/>
<path opacity="0.6632" d="M140.035 178.429C845.673 17.399 1167.79 610.157 1763.86 504.254" stroke="#797979" stroke-opacity="0.2" stroke-width="1.38163" stroke-miterlimit="10"/>
<path opacity="0.6913" d="M142.973 191.987C840.628 25.9634 1172.7 620.395 1763.74 505.594" stroke="#797979" stroke-opacity="0.2" stroke-width="1.38163" stroke-miterlimit="10"/>
<path opacity="0.7194" d="M145.909 205.544C835.58 34.5266 1177.61 630.633 1763.61 506.932" stroke="#797979" stroke-opacity="0.2" stroke-width="1.38163" stroke-miterlimit="10"/>
<path opacity="0.7474" d="M148.847 219.105C830.53 43.0955 1182.52 640.874 1763.49 508.277" stroke="#797979" stroke-opacity="0.2" stroke-width="1.38163" stroke-miterlimit="10"/>
<path opacity="0.7755" d="M151.783 232.663C825.482 51.6594 1187.43 651.112 1763.36 509.615" stroke="#797979" stroke-opacity="0.2" stroke-width="1.38163" stroke-miterlimit="10"/>
<path opacity="0.8035" d="M154.721 246.224C820.434 60.2232 1192.34 661.35 1763.23 510.957" stroke="#797979" stroke-opacity="0.2" stroke-width="1.38163" stroke-miterlimit="10"/>
<path opacity="0.8316" d="M157.657 259.781C815.385 68.7893 1197.25 671.591 1763.11 512.299" stroke="#797979" stroke-opacity="0.2" stroke-width="1.38163" stroke-miterlimit="10"/>
<path opacity="0.8597" d="M160.593 273.339C810.337 77.3532 1202.16 681.829 1762.98 513.641" stroke="#797979" stroke-opacity="0.2" stroke-width="1.38163" stroke-miterlimit="10"/>
<path opacity="0.8877" d="M163.531 286.899C805.288 85.9194 1207.07 692.07 1762.85 514.983" stroke="#797979" stroke-opacity="0.2" stroke-width="1.38163" stroke-miterlimit="10"/>
<path opacity="0.9158" d="M166.467 300.456C800.24 94.4825 1211.98 702.305 1762.73 516.321" stroke="#797979" stroke-opacity="0.2" stroke-width="1.38163" stroke-miterlimit="10"/>
<path opacity="0.9439" d="M169.406 314.015C795.192 103.047 1216.89 712.546 1762.6 517.664" stroke="#797979" stroke-opacity="0.2" stroke-width="1.38163" stroke-miterlimit="10"/>
<path opacity="0.9719" d="M172.341 327.574C790.14 111.612 1221.79 722.782 1762.47 519.004" stroke="#797979" stroke-opacity="0.2" stroke-width="1.38163" stroke-miterlimit="10"/>
<path d="M175.28 341.132C785.095 120.176 1226.71 733.021 1762.35 520.344" stroke="#797979" stroke-opacity="0.2" stroke-width="1.38163" stroke-miterlimit="10"/>
</svg>
