<svg width="125" height="113" viewBox="0 0 125 113" fill="none" xmlns="http://www.w3.org/2000/svg">
<path fill-rule="evenodd" clip-rule="evenodd" d="M0 108.385C0 105.823 2.07682 103.77 4.61516 103.77C7.17657 103.77 9.23031 105.823 9.23031 108.385C9.23031 110.923 7.17657 113 4.61516 113C2.07682 113 0 110.923 0 108.385ZM0 79.2401C0 76.6787 2.07682 74.625 4.61516 74.625C7.17657 74.625 9.23031 76.6787 9.23031 79.2401C9.23031 81.7785 7.17657 83.8553 4.61516 83.8553C2.07682 83.8553 0 81.7785 0 79.2401ZM0 50.0723C0 47.534 2.07682 45.4572 4.61516 45.4572C7.17657 45.4572 9.23031 47.534 9.23031 50.0723C9.23031 52.6338 7.17657 54.6875 4.61516 54.6875C2.07682 54.6875 0 52.6338 0 50.0723ZM0 20.9277C0 18.3893 2.07682 16.3125 4.61516 16.3125C7.17657 16.3125 9.23031 18.3893 9.23031 20.9277C9.23031 23.4891 7.17657 25.5428 4.61516 25.5428C2.07682 25.5428 0 23.4891 0 20.9277ZM0 -8.21706C0 -10.7785 2.07682 -12.8322 4.61516 -12.8322C7.17657 -12.8322 9.23031 -10.7785 9.23031 -8.21706C9.23031 -5.67873 7.17657 -3.6019 4.61516 -3.6019C2.07682 -3.6019 0 -5.67873 0 -8.21706ZM0 -37.3848C0 -39.9232 2.07682 -42 4.61516 -42C7.17657 -42 9.23031 -39.9232 9.23031 -37.3848C9.23031 -34.8234 7.17657 -32.7697 4.61516 -32.7697C2.07682 -32.7697 0 -34.8234 0 -37.3848Z" fill="#1A79A8"/>
<path fill-rule="evenodd" clip-rule="evenodd" d="M23.0758 108.385C23.0758 105.823 25.1526 103.77 27.6909 103.77C30.2523 103.77 32.3061 105.823 32.3061 108.385C32.3061 110.923 30.2523 113 27.6909 113C25.1526 113 23.0758 110.923 23.0758 108.385ZM23.0758 79.2401C23.0758 76.6787 25.1526 74.625 27.6909 74.625C30.2523 74.625 32.3061 76.6787 32.3061 79.2401C32.3061 81.7785 30.2523 83.8553 27.6909 83.8553C25.1526 83.8553 23.0758 81.7785 23.0758 79.2401ZM23.0758 50.0723C23.0758 47.534 25.1526 45.4572 27.6909 45.4572C30.2523 45.4572 32.3061 47.534 32.3061 50.0723C32.3061 52.6338 30.2523 54.6875 27.6909 54.6875C25.1526 54.6875 23.0758 52.6338 23.0758 50.0723ZM23.0758 20.9277C23.0758 18.3893 25.1526 16.3125 27.6909 16.3125C30.2523 16.3125 32.3061 18.3893 32.3061 20.9277C32.3061 23.4891 30.2523 25.5428 27.6909 25.5428C25.1526 25.5428 23.0758 23.4891 23.0758 20.9277ZM23.0758 -8.21706C23.0758 -10.7785 25.1526 -12.8322 27.6909 -12.8322C30.2523 -12.8322 32.3061 -10.7785 32.3061 -8.21706C32.3061 -5.67873 30.2523 -3.6019 27.6909 -3.6019C25.1526 -3.6019 23.0758 -5.67873 23.0758 -8.21706ZM23.0758 -37.3848C23.0758 -39.9232 25.1526 -42 27.6909 -42C30.2523 -42 32.3061 -39.9232 32.3061 -37.3848C32.3061 -34.8234 30.2523 -32.7697 27.6909 -32.7697C25.1526 -32.7697 23.0758 -34.8234 23.0758 -37.3848Z" fill="#1A79A8"/>
<path fill-rule="evenodd" clip-rule="evenodd" d="M46.1516 108.385C46.1516 105.823 48.2284 103.77 50.7667 103.77C53.3281 103.77 55.3819 105.823 55.3819 108.385C55.3819 110.923 53.3281 113 50.7667 113C48.2284 113 46.1516 110.923 46.1516 108.385ZM46.1516 79.2401C46.1516 76.6787 48.2284 74.625 50.7667 74.625C53.3281 74.625 55.3819 76.6787 55.3819 79.2401C55.3819 81.7785 53.3281 83.8553 50.7667 83.8553C48.2284 83.8553 46.1516 81.7785 46.1516 79.2401ZM46.1516 50.0723C46.1516 47.534 48.2284 45.4572 50.7667 45.4572C53.3281 45.4572 55.3819 47.534 55.3819 50.0723C55.3819 52.6338 53.3281 54.6875 50.7667 54.6875C48.2284 54.6875 46.1516 52.6338 46.1516 50.0723ZM46.1516 20.9277C46.1516 18.3893 48.2284 16.3125 50.7667 16.3125C53.3281 16.3125 55.3819 18.3893 55.3819 20.9277C55.3819 23.4891 53.3281 25.5428 50.7667 25.5428C48.2284 25.5428 46.1516 23.4891 46.1516 20.9277ZM46.1516 -8.21706C46.1516 -10.7785 48.2284 -12.8322 50.7667 -12.8322C53.3281 -12.8322 55.3819 -10.7785 55.3819 -8.21706C55.3819 -5.67873 53.3281 -3.6019 50.7667 -3.6019C48.2284 -3.6019 46.1516 -5.67873 46.1516 -8.21706ZM46.1516 -37.3848C46.1516 -39.9232 48.2284 -42 50.7667 -42C53.3281 -42 55.3819 -39.9232 55.3819 -37.3848C55.3819 -34.8234 53.3281 -32.7697 50.7667 -32.7697C48.2284 -32.7697 46.1516 -34.8234 46.1516 -37.3848Z" fill="#1A79A8"/>
<path fill-rule="evenodd" clip-rule="evenodd" d="M69.2273 108.385C69.2273 105.823 71.3041 103.77 73.8425 103.77C76.4039 103.77 78.4576 105.823 78.4576 108.385C78.4576 110.923 76.4039 113 73.8425 113C71.3041 113 69.2273 110.923 69.2273 108.385ZM69.2273 79.2401C69.2273 76.6787 71.3041 74.625 73.8425 74.625C76.4039 74.625 78.4576 76.6787 78.4576 79.2401C78.4576 81.7785 76.4039 83.8553 73.8425 83.8553C71.3041 83.8553 69.2273 81.7785 69.2273 79.2401ZM69.2273 50.0723C69.2273 47.534 71.3041 45.4572 73.8425 45.4572C76.4039 45.4572 78.4576 47.534 78.4576 50.0723C78.4576 52.6338 76.4039 54.6875 73.8425 54.6875C71.3041 54.6875 69.2273 52.6338 69.2273 50.0723ZM69.2273 20.9277C69.2273 18.3893 71.3041 16.3125 73.8425 16.3125C76.4039 16.3125 78.4576 18.3893 78.4576 20.9277C78.4576 23.4891 76.4039 25.5428 73.8425 25.5428C71.3041 25.5428 69.2273 23.4891 69.2273 20.9277ZM69.2273 -8.21706C69.2273 -10.7785 71.3041 -12.8322 73.8425 -12.8322C76.4039 -12.8322 78.4576 -10.7785 78.4576 -8.21706C78.4576 -5.67873 76.4039 -3.6019 73.8425 -3.6019C71.3041 -3.6019 69.2273 -5.67873 69.2273 -8.21706ZM69.2273 -37.3848C69.2273 -39.9232 71.3041 -42 73.8425 -42C76.4039 -42 78.4576 -39.9232 78.4576 -37.3848C78.4576 -34.8234 76.4039 -32.7697 73.8425 -32.7697C71.3041 -32.7697 69.2273 -34.8234 69.2273 -37.3848Z" fill="#1A79A8"/>
<path fill-rule="evenodd" clip-rule="evenodd" d="M92.3031 108.385C92.3031 105.823 94.3799 103.77 96.9183 103.77C99.4797 103.77 101.533 105.823 101.533 108.385C101.533 110.923 99.4797 113 96.9183 113C94.3799 113 92.3031 110.923 92.3031 108.385ZM92.3031 79.2401C92.3031 76.6787 94.3799 74.625 96.9183 74.625C99.4797 74.625 101.533 76.6787 101.533 79.2401C101.533 81.7785 99.4797 83.8553 96.9183 83.8553C94.3799 83.8553 92.3031 81.7785 92.3031 79.2401ZM92.3031 50.0723C92.3031 47.534 94.3799 45.4572 96.9183 45.4572C99.4797 45.4572 101.533 47.534 101.533 50.0723C101.533 52.6338 99.4797 54.6875 96.9183 54.6875C94.3799 54.6875 92.3031 52.6338 92.3031 50.0723ZM92.3031 20.9277C92.3031 18.3893 94.3799 16.3125 96.9183 16.3125C99.4797 16.3125 101.533 18.3893 101.533 20.9277C101.533 23.4891 99.4797 25.5428 96.9183 25.5428C94.3799 25.5428 92.3031 23.4891 92.3031 20.9277ZM92.3031 -8.21706C92.3031 -10.7785 94.3799 -12.8322 96.9183 -12.8322C99.4797 -12.8322 101.533 -10.7785 101.533 -8.21706C101.533 -5.67873 99.4797 -3.6019 96.9183 -3.6019C94.3799 -3.6019 92.3031 -5.67873 92.3031 -8.21706ZM92.3031 -37.3848C92.3031 -39.9232 94.3799 -42 96.9183 -42C99.4797 -42 101.533 -39.9232 101.533 -37.3848C101.533 -34.8234 99.4797 -32.7697 96.9183 -32.7697C94.3799 -32.7697 92.3031 -34.8234 92.3031 -37.3848Z" fill="#1A79A8"/>
<path fill-rule="evenodd" clip-rule="evenodd" d="M115.379 108.385C115.379 105.823 117.456 103.77 119.994 103.77C122.555 103.77 124.609 105.823 124.609 108.385C124.609 110.923 122.555 113 119.994 113C117.456 113 115.379 110.923 115.379 108.385ZM115.379 79.2401C115.379 76.6787 117.456 74.625 119.994 74.625C122.555 74.625 124.609 76.6787 124.609 79.2401C124.609 81.7785 122.555 83.8553 119.994 83.8553C117.456 83.8553 115.379 81.7785 115.379 79.2401ZM115.379 50.0723C115.379 47.534 117.456 45.4572 119.994 45.4572C122.555 45.4572 124.609 47.534 124.609 50.0723C124.609 52.6338 122.555 54.6875 119.994 54.6875C117.456 54.6875 115.379 52.6338 115.379 50.0723ZM115.379 20.9277C115.379 18.3893 117.456 16.3125 119.994 16.3125C122.555 16.3125 124.609 18.3893 124.609 20.9277C124.609 23.4891 122.555 25.5428 119.994 25.5428C117.456 25.5428 115.379 23.4891 115.379 20.9277ZM115.379 -8.21706C115.379 -10.7785 117.456 -12.8322 119.994 -12.8322C122.555 -12.8322 124.609 -10.7785 124.609 -8.21706C124.609 -5.67873 122.555 -3.6019 119.994 -3.6019C117.456 -3.6019 115.379 -5.67873 115.379 -8.21706ZM115.379 -37.3848C115.379 -39.9232 117.456 -42 119.994 -42C122.555 -42 124.609 -39.9232 124.609 -37.3848C124.609 -34.8234 122.555 -32.7697 119.994 -32.7697C117.456 -32.7697 115.379 -34.8234 115.379 -37.3848Z" fill="#1A79A8"/>
</svg>
